Droid Devanagari-Regular.ufo
<glyph name="parenleft" format="1">
  <advance width="709"/>
  <unicode hex="0028"/>
  <outline>
    <contour>
      <point x="330" y="486"/>
      <point x="338" y="325"/>
      <point x="381" y="183" type="curve" smooth="yes"/>
      <point x="424" y="41"/>
      <point x="503" y="-83"/>
      <point x="643" y="-168" type="curve"/>
      <point x="643" y="-262" type="line"/>
      <point x="455" y="-187"/>
      <point x="323" y="-83"/>
      <point x="239" y="65" type="curve" smooth="yes"/>
      <point x="154" y="212"/>
      <point x="117" y="402"/>
      <point x="117" y="649" type="curve" smooth="yes"/>
      <point x="117" y="896"/>
      <point x="154" y="1084"/>
      <point x="239" y="1231" type="curve" smooth="yes"/>
      <point x="323" y="1378"/>
      <point x="455" y="1481"/>
      <point x="643" y="1556" type="curve"/>
      <point x="643" y="1464" type="line"/>
      <point x="503" y="1379"/>
      <point x="424" y="1256"/>
      <point x="381" y="1115" type="curve" smooth="yes"/>
      <point x="338" y="974"/>
      <point x="330" y="812"/>
      <point x="330" y="649" type="curve" smooth="yes"/>
    </contour>
  </outline>
</glyph>
<glyph name="period" format="1">
  <advance width="586"/>
  <unicode hex="002E"/>
  <outline>
    <contour>
      <point x="164" y="178"/>
      <point x="178" y="213"/>
      <point x="202" y="234" type="curve" smooth="yes"/>
      <point x="225" y="255"/>
      <point x="257" y="264"/>
      <point x="293" y="264" type="curve" smooth="yes"/>
      <point x="328" y="264"/>
      <point x="360" y="255"/>
      <point x="384" y="234" type="curve" smooth="yes"/>
      <point x="407" y="213"/>
      <point x="422" y="178"/>
      <point x="422" y="125" type="curve" smooth="yes"/>
      <point x="422" y="73"/>
      <point x="407" y="37"/>
      <point x="384" y="16" type="curve" smooth="yes"/>
      <point x="360" y="-5"/>
      <point x="328" y="-14"/>
      <point x="293" y="-14" type="curve" smooth="yes"/>
      <point x="257" y="-14"/>
      <point x="225" y="-5"/>
      <point x="202" y="16" type="curve" smooth="yes"/>
      <point x="178" y="37"/>
      <point x="164" y="73"/>
      <point x="164" y="125" type="curve" smooth="yes"/>
    </contour>
  </outline>
</glyph>
<glyph name="bracketright" format="1">
  <advance width="737"/>
  <unicode hex="005D"/>
  <outline>
    <contour>
      <point x="532" y="-262" type="line"/>
      <point x="76" y="-262" type="line"/>
      <point x="76" y="-176" type="line"/>
      <point x="164" y="-176" type="line" smooth="yes"/>
      <point x="211" y="-176"/>
      <point x="253" y="-171"/>
      <point x="283" y="-150" type="curve" smooth="yes"/>
      <point x="313" y="-130"/>
      <point x="332" y="-93"/>
      <point x="332" y="-29" type="curve" smooth="yes"/>
      <point x="332" y="1323" type="line" smooth="yes"/>
      <point x="332" y="1387"/>
      <point x="313" y="1424"/>
      <point x="283" y="1445" type="curve" smooth="yes"/>
      <point x="253" y="1465"/>
      <point x="211" y="1470"/>
      <point x="164" y="1470" type="curve" smooth="yes"/>
      <point x="76" y="1470" type="line"/>
      <point x="76" y="1556" type="line"/>
      <point x="532" y="1556" type="line"/>
    </contour>
  </outline>
</glyph>
<glyph name="grave" format="1">
  <advance width="1182"/>
  <unicode hex="0060"/>
  <outline>
    <contour>
      <point x="791" y="1241" type="line"/>
      <point x="713" y="1241" type="line"/>
      <point x="658" y="1278"/>
      <point x="591" y="1337"/>
      <point x="531" y="1396" type="curve" smooth="yes"/>
      <point x="471" y="1455"/>
      <point x="418" y="1512"/>
      <point x="393" y="1548" type="curve"/>
      <point x="393" y="1569" type="line"/>
      <point x="612" y="1569" type="line"/>
      <point x="633" y="1524"/>
      <point x="663" y="1468"/>
      <point x="695" y="1414" type="curve" smooth="yes"/>
      <point x="727" y="1360"/>
      <point x="762" y="1307"/>
      <point x="791" y="1268" type="curve"/>
    </contour>
  </outline>
</glyph>
<glyph name="asciitilde" format="1">
  <advance width="1149"/>
  <unicode hex="007E"/>
  <outline>
    <contour>
      <point x="736" y="551"/>
      <point x="693" y="570"/>
      <point x="651" y="595" type="curve" smooth="yes"/>
      <point x="609" y="620"/>
      <point x="570" y="652"/>
      <point x="539" y="680" type="curve" smooth="yes"/>
      <point x="508" y="708"/>
      <point x="479" y="735"/>
      <point x="451" y="755" type="curve" smooth="yes"/>
      <point x="422" y="775"/>
      <point x="393" y="788"/>
      <point x="362" y="788" type="curve" smooth="yes"/>
      <point x="282" y="788"/>
      <point x="248" y="712"/>
      <point x="233" y="551" type="curve"/>
      <point x="113" y="551" type="line"/>
      <point x="121" y="636"/>
      <point x="135" y="726"/>
      <point x="172" y="794" type="curve" smooth="yes"/>
      <point x="209" y="862"/>
      <point x="270" y="909"/>
      <point x="371" y="909" type="curve" smooth="yes"/>
      <point x="416" y="909"/>
      <point x="462" y="890"/>
      <point x="505" y="863" type="curve" smooth="yes"/>
      <point x="548" y="836"/>
      <point x="586" y="802"/>
      <point x="618" y="774" type="curve" smooth="yes"/>
      <point x="647" y="747"/>
      <point x="675" y="722"/>
      <point x="703" y="703" type="curve" smooth="yes"/>
      <point x="730" y="684"/>
      <point x="758" y="672"/>
      <point x="786" y="672" type="curve" smooth="yes"/>
      <point x="862" y="672"/>
      <point x="892" y="757"/>
      <point x="911" y="909" type="curve"/>
      <point x="1034" y="909" type="line"/>
      <point x="1025" y="824"/>
      <point x="1009" y="734"/>
      <point x="971" y="666" type="curve" smooth="yes"/>
      <point x="933" y="598"/>
      <point x="873" y="551"/>
      <point x="776" y="551" type="curve" smooth="yes"/>
    </contour>
  </outline>
</glyph>
<glyph name="candrabinduinverteddeva" format="1">
  <advance width="0"/>
  <unicode hex="0900"/>
  <outline>
    <contour>
      <point x="-10" y="1569"/>
      <point x="5" y="1588"/>
      <point x="5" y="1623" type="curve" smooth="yes"/>
      <point x="5" y="1761"/>
      <point x="-131" y="1954"/>
      <point x="-336" y="1954" type="curve" smooth="yes"/>
      <point x="-500" y="1954"/>
      <point x="-625" y="1831"/>
      <point x="-625" y="1678" type="curve" smooth="yes"/>
      <point x="-625" y="1616"/>
      <point x="-593" y="1575"/>
      <point x="-530" y="1554" type="curve"/>
      <point x="-508" y="1741"/>
      <point x="-415" y="1821"/>
      <point x="-298" y="1821" type="curve" smooth="yes"/>
      <point x="-188" y="1821"/>
      <point x="-97" y="1751"/>
      <point x="-36" y="1556" type="curve"/>
    </contour>
    <contour>
      <point x="-345" y="1681"/>
      <point x="-389" y="1637"/>
      <point x="-389" y="1583" type="curve" smooth="yes"/>
      <point x="-389" y="1530"/>
      <point x="-345" y="1486"/>
      <point x="-292" y="1486" type="curve" smooth="yes"/>
      <point x="-238" y="1486"/>
      <point x="-194" y="1530"/>
      <point x="-194" y="1583" type="curve" smooth="yes"/>
      <point x="-194" y="1637"/>
      <point x="-238" y="1681"/>
      <point x="-292" y="1681" type="curve" smooth="yes"/>
    </contour>
    <contour>
      <point x="-120" y="666" type="move" name="_class0"/>
    </contour>
  </outline>
</glyph>
<glyph name="candrabindudeva" format="1">
  <advance width="0"/>
  <unicode hex="0901"/>
  <outline>
    <contour>
      <point x="-258" y="1759"/>
      <point x="-214" y="1803"/>
      <point x="-214" y="1857" type="curve" smooth="yes"/>
      <point x="-214" y="1910"/>
      <point x="-258" y="1954"/>
      <point x="-312" y="1954" type="curve" smooth="yes"/>
      <point x="-365" y="1954"/>
      <point x="-409" y="1910"/>
      <point x="-409" y="1857" type="curve" smooth="yes"/>
      <point x="-409" y="1803"/>
      <point x="-365" y="1759"/>
      <point x="-312" y="1759" type="curve" smooth="yes"/>
    </contour>
    <contour>
      <point x="-610" y="1871"/>
      <point x="-625" y="1852"/>
      <point x="-625" y="1817" type="curve" smooth="yes"/>
      <point x="-625" y="1679"/>
      <point x="-489" y="1486"/>
      <point x="-284" y="1486" type="curve" smooth="yes"/>
      <point x="-120" y="1486"/>
      <point x="5" y="1609"/>
      <point x="5" y="1762" type="curve" smooth="yes"/>
      <point x="5" y="1824"/>
      <point x="-27" y="1865"/>
      <point x="-90" y="1886" type="curve"/>
      <point x="-112" y="1699"/>
      <point x="-205" y="1619"/>
      <point x="-322" y="1619" type="curve" smooth="yes"/>
      <point x="-432" y="1619"/>
      <point x="-523" y="1689"/>
      <point x="-584" y="1884" type="curve"/>
    </contour>
    <contour>
      <point x="-120" y="666" type="move" name="_class0"/>
    </contour>
  </outline>
</glyph>
<glyph name="visargadeva" format="1">
  <advance width="573"/>
  <unicode hex="0903"/>
  <outline>
    <contour>
      <point x="231" y="1017"/>
      <point x="182" y="968"/>
      <point x="182" y="908" type="curve" smooth="yes"/>
      <point x="182" y="848"/>
      <point x="231" y="799"/>
      <point x="291" y="799" type="curve" smooth="yes"/>
      <point x="351" y="799"/>
      <point x="401" y="848"/>
      <point x="401" y="908" type="curve" smooth="yes"/>
      <point x="401" y="968"/>
      <point x="351" y="1017"/>
      <point x="291" y="1017" type="curve" smooth="yes"/>
    </contour>
    <contour>
      <point x="231" y="347"/>
      <point x="182" y="298"/>
      <point x="182" y="238" type="curve" smooth="yes"/>
      <point x="182" y="178"/>
      <point x="231" y="129"/>
      <point x="291" y="129" type="curve" smooth="yes"/>
      <point x="351" y="129"/>
      <point x="401" y="178"/>
      <point x="401" y="238" type="curve" smooth="yes"/>
      <point x="401" y="298"/>
      <point x="351" y="347"/>
      <point x="291" y="347" type="curve" smooth="yes"/>
    </contour>
  </outline>
</glyph>
<glyph name="iideva" format="1">
  <advance width="1006"/>
  <unicode hex="0908"/>
  <outline>
    <contour>
      <point x="794" y="885" type="line"/>
      <point x="802" y="893" type="line"/>
      <point x="802" y="1197" type="line"/>
      <point x="1056" y="1197" type="line"/>
      <point x="1062" y="1206" type="line"/>
      <point x="1006" y="1330" type="line"/>
      <point x="742" y="1330" type="line"/>
      <point x="671" y="1387"/>
      <point x="628" y="1457"/>
      <point x="628" y="1540" type="curve" smooth="yes"/>
      <point x="628" y="1642"/>
      <point x="692" y="1715"/>
      <point x="802" y="1715" type="curve" smooth="yes"/>
      <point x="856" y="1715"/>
      <point x="920" y="1697"/>
      <point x="977" y="1648" type="curve"/>
      <point x="980" y="1658"/>
      <point x="981" y="1668"/>
      <point x="981" y="1678" type="curve" smooth="yes"/>
      <point x="981" y="1768"/>
      <point x="887" y="1854"/>
      <point x="753" y="1854" type="curve" smooth="yes"/>
      <point x="593" y="1854"/>
      <point x="490" y="1733"/>
      <point x="490" y="1593" type="curve" smooth="yes"/>
      <point x="490" y="1497"/>
      <point x="539" y="1402"/>
      <point x="616" y="1330" type="curve"/>
      <point x="-50" y="1330" type="line"/>
      <point x="-56" y="1321" type="line"/>
      <point x="0" y="1197" type="line"/>
      <point x="648" y="1197" type="line"/>
      <point x="648" y="1034" type="line" smooth="yes"/>
      <point x="648" y="1029"/>
      <point x="645" y="1026"/>
      <point x="640" y="1026" type="curve" smooth="yes"/>
      <point x="307" y="1026" type="line" smooth="yes"/>
      <point x="175" y="1026"/>
      <point x="114" y="961"/>
      <point x="114" y="877" type="curve" smooth="yes"/>
      <point x="114" y="740"/>
      <point x="275" y="532"/>
      <point x="456" y="532" type="curve" smooth="yes"/>
      <point x="515" y="532"/>
      <point x="672" y="554"/>
      <point x="709" y="554" type="curve" smooth="yes"/>
      <point x="755" y="554"/>
      <point x="778" y="520"/>
      <point x="778" y="481" type="curve" smooth="yes"/>
      <point x="778" y="386"/>
      <point x="637" y="310"/>
      <point x="420" y="311" type="curve"/>
      <point x="380" y="396"/>
      <point x="334" y="447"/>
      <point x="266" y="447" type="curve" smooth="yes"/>
      <point x="214" y="447"/>
      <point x="155" y="416"/>
      <point x="155" y="341" type="curve" smooth="yes"/>
      <point x="155" y="248"/>
      <point x="245" y="163"/>
      <point x="403" y="150" type="curve"/>
      <point x="475" y="-61"/>
      <point x="593" y="-143"/>
      <point x="698" y="-143" type="curve" smooth="yes"/>
      <point x="770" y="-143"/>
      <point x="824" y="-105"/>
      <point x="824" y="-42" type="curve" smooth="yes"/>
      <point x="824" y="-20"/>
      <point x="817" y="5"/>
      <point x="802" y="33" type="curve"/>
      <point x="772" y="23"/>
      <point x="746" y="17"/>
      <point x="704" y="17" type="curve" smooth="yes"/>
      <point x="611" y="17"/>
      <point x="551" y="47"/>
      <point x="497" y="142" type="curve"/>
      <point x="501" y="149" type="line"/>
      <point x="733" y="163"/>
      <point x="886" y="273"/>
      <point x="886" y="428" type="curve" smooth="yes"/>
      <point x="886" y="555"/>
      <point x="784" y="721"/>
      <point x="631" y="721" type="curve" smooth="yes"/>
      <point x="565" y="721"/>
      <point x="430" y="690"/>
      <point x="368" y="690" type="curve" smooth="yes"/>
      <point x="299" y="690"/>
      <point x="256" y="729"/>
      <point x="256" y="790" type="curve" smooth="yes"/>
      <point x="256" y="845"/>
      <point x="291" y="885"/>
      <point x="389" y="885" type="curve" smooth="yes"/>
    </contour>
  </outline>
</glyph>
<glyph name="udeva" format="1">
  <advance width="1118"/>
  <unicode hex="0909"/>
  <outline>
    <contour>
      <point x="1168" y="1197" type="line"/>
      <point x="1174" y="1206" type="line"/>
      <point x="1118" y="1330" type="line"/>
      <point x="-50" y="1330" type="line"/>
      <point x="-56" y="1321" type="line"/>
      <point x="0" y="1197" type="line"/>
      <point x="614" y="1197" type="line" smooth="yes"/>
      <point x="735" y="1197"/>
      <point x="791" y="1110"/>
      <point x="791" y="1031" type="curve" smooth="yes"/>
      <point x="791" y="908"/>
      <point x="656" y="830"/>
      <point x="415" y="828" type="curve"/>
      <point x="409" y="819" type="line"/>
      <point x="477" y="655" type="line"/>
      <point x="564" y="655"/>
      <point x="640" y="666"/>
      <point x="703" y="687" type="curve"/>
      <point x="800" y="650"/>
      <point x="869" y="574"/>
      <point x="869" y="463" type="curve" smooth="yes"/>
      <point x="869" y="323"/>
      <point x="760" y="232"/>
      <point x="610" y="232" type="curve" smooth="yes"/>
      <point x="395" y="232"/>
      <point x="217" y="421"/>
      <point x="156" y="806" type="curve"/>
      <point x="101" y="801"/>
      <point x="79" y="771"/>
      <point x="79" y="708" type="curve" smooth="yes"/>
      <point x="79" y="527"/>
      <point x="257" y="70"/>
      <point x="653" y="70" type="curve" smooth="yes"/>
      <point x="874" y="70"/>
      <point x="1007" y="213"/>
      <point x="1007" y="395" type="curve" smooth="yes"/>
      <point x="1007" y="532"/>
      <point x="932" y="654"/>
      <point x="820" y="736" type="curve"/>
      <point x="820" y="744" type="line"/>
      <point x="894" y="799"/>
      <point x="930" y="871"/>
      <point x="930" y="953" type="curve" smooth="yes"/>
      <point x="930" y="1030"/>
      <point x="899" y="1109"/>
      <point x="832" y="1187" type="curve"/>
      <point x="836" y="1197" type="line"/>
    </contour>
  </outline>
</glyph>
<glyph name="uudeva" format="1">
  <advance width="1481"/>
  <unicode hex="090A"/>
  <outline>
    <contour>
      <point x="796" y="1197" type="line"/>
      <point x="1531" y="1197" type="line"/>
      <point x="1537" y="1206" type="line"/>
      <point x="1481" y="1330" type="line"/>
      <point x="-50" y="1330" type="line"/>
      <point x="-56" y="1321" type="line"/>
      <point x="0" y="1197" type="line"/>
      <point x="574" y="1197" type="line" smooth="yes"/>
      <point x="695" y="1197"/>
      <point x="751" y="1110"/>
      <point x="751" y="1031" type="curve" smooth="yes"/>
      <point x="751" y="908"/>
      <point x="616" y="830"/>
      <point x="375" y="828" type="curve"/>
      <point x="369" y="819" type="line"/>
      <point x="437" y="655" type="line"/>
      <point x="524" y="655"/>
      <point x="600" y="666"/>
      <point x="663" y="687" type="curve"/>
      <point x="760" y="650"/>
      <point x="829" y="574"/>
      <point x="829" y="463" type="curve" smooth="yes"/>
      <point x="829" y="323"/>
      <point x="720" y="232"/>
      <point x="570" y="232" type="curve" smooth="yes"/>
      <point x="355" y="232"/>
      <point x="187" y="421"/>
      <point x="116" y="806" type="curve"/>
      <point x="68" y="801"/>
      <point x="49" y="770"/>
      <point x="49" y="710" type="curve" smooth="yes"/>
      <point x="49" y="527"/>
      <point x="222" y="62"/>
      <point x="615" y="62" type="curve" smooth="yes"/>
      <point x="833" y="62"/>
      <point x="967" y="206"/>
      <point x="967" y="393" type="curve" smooth="yes"/>
      <point x="967" y="446"/>
      <point x="956" y="496"/>
      <point x="937" y="543" type="curve"/>
      <point x="1017" y="649"/>
      <point x="1089" y="703"/>
      <point x="1162" y="703" type="curve" smooth="yes"/>
      <point x="1248" y="703"/>
      <point x="1299" y="629"/>
      <point x="1299" y="520" type="curve" smooth="yes"/>
      <point x="1299" y="386"/>
      <point x="1220" y="269"/>
      <point x="1098" y="213" type="curve"/>
      <point x="1129" y="155"/>
      <point x="1184" y="116"/>
      <point x="1248" y="116" type="curve" smooth="yes"/>
      <point x="1362" y="116"/>
      <point x="1440" y="256"/>
      <point x="1440" y="408" type="curve" smooth="yes"/>
      <point x="1440" y="635"/>
      <point x="1281" y="829"/>
      <point x="1099" y="829" type="curve" smooth="yes"/>
      <point x="1009" y="829"/>
      <point x="938" y="782"/>
      <point x="843" y="682" type="curve"/>
      <point x="822" y="703"/>
      <point x="799" y="722"/>
      <point x="774" y="740" type="curve"/>
      <point x="852" y="795"/>
      <point x="890" y="869"/>
      <point x="890" y="953" type="curve" smooth="yes"/>
      <point x="890" y="1030"/>
      <point x="859" y="1109"/>
      <point x="792" y="1187" type="curve"/>
    </contour>
  </outline>
</glyph>
<glyph name="rvocalicdeva" format="1">
  <advance width="1711"/>
  <unicode hex="090B"/>
  <outline>
    <contour>
      <point x="1761" y="1197" type="line"/>
      <point x="1767" y="1206" type="line"/>
      <point x="1711" y="1330" type="line"/>
      <point x="-50" y="1330" type="line"/>
      <point x="-56" y="1321" type="line"/>
      <point x="0" y="1197" type="line"/>
      <point x="794" y="1197" type="line"/>
      <point x="794" y="773" type="line"/>
      <point x="784" y="769" type="line"/>
      <point x="514" y="972"/>
      <point x="428" y="1019"/>
      <point x="321" y="1019" type="curve" smooth="yes"/>
      <point x="176" y="1019"/>
      <point x="94" y="931"/>
      <point x="94" y="859" type="curve" smooth="yes"/>
      <point x="94" y="811"/>
      <point x="130" y="765"/>
      <point x="194" y="725" type="curve"/>
      <point x="250" y="823"/>
      <point x="318" y="879"/>
      <point x="392" y="879" type="curve" smooth="yes"/>
      <point x="464" y="879"/>
      <point x="553" y="824"/>
      <point x="734" y="691" type="curve"/>
      <point x="734" y="682" type="line"/>
      <point x="543" y="559"/>
      <point x="375" y="426"/>
      <point x="221" y="288" type="curve"/>
      <point x="221" y="276" type="line"/>
      <point x="343" y="158" type="line"/>
      <point x="478" y="282"/>
      <point x="625" y="403"/>
      <point x="784" y="517" type="curve"/>
      <point x="794" y="512" type="line"/>
      <point x="794" y="19" type="line"/>
      <point x="945" y="-19" type="line"/>
      <point x="954" y="-12" type="line"/>
      <point x="954" y="567" type="line"/>
      <point x="1098" y="573"/>
      <point x="1231" y="617"/>
      <point x="1327" y="678" type="curve"/>
      <point x="1439" y="524"/>
      <point x="1458" y="468"/>
      <point x="1458" y="424" type="curve" smooth="yes"/>
      <point x="1458" y="321"/>
      <point x="1351" y="270"/>
      <point x="1240" y="270" type="curve"/>
      <point x="1250" y="188"/>
      <point x="1306" y="136"/>
      <point x="1386" y="136" type="curve" smooth="yes"/>
      <point x="1490" y="136"/>
      <point x="1588" y="222"/>
      <point x="1588" y="358" type="curve" smooth="yes"/>
      <point x="1588" y="465"/>
      <point x="1527" y="576"/>
      <point x="1400" y="735" type="curve"/>
      <point x="1449" y="783"/>
      <point x="1477" y="836"/>
      <point x="1477" y="888" type="curve" smooth="yes"/>
      <point x="1477" y="968"/>
      <point x="1409" y="1045"/>
      <point x="1316" y="1045" type="curve" smooth="yes"/>
      <point x="1239" y="1045"/>
      <point x="1193" y="992"/>
      <point x="1193" y="928" type="curve" smooth="yes"/>
      <point x="1193" y="893"/>
      <point x="1207" y="855"/>
      <point x="1236" y="808" type="curve"/>
      <point x="1156" y="753"/>
      <point x="1065" y="722"/>
      <point x="954" y="713" type="curve"/>
      <point x="954" y="1197" type="line"/>
    </contour>
  </outline>
</glyph>
<glyph name="lvocalicdeva" format="1">
  <advance width="1411"/>
  <unicode hex="090C"/>
  <outline>
    <contour>
      <point x="1461" y="1197" type="line"/>
      <point x="1467" y="1206" type="line"/>
      <point x="1411" y="1330" type="line"/>
      <point x="-50" y="1330" type="line"/>
      <point x="-56" y="1321" type="line"/>
      <point x="0" y="1197" type="line"/>
      <point x="924" y="1197" type="line"/>
      <point x="924" y="901" type="line"/>
      <point x="849" y="883"/>
      <point x="771" y="836"/>
      <point x="702" y="757" type="curve"/>
      <point x="586" y="880"/>
      <point x="488" y="924"/>
      <point x="383" y="924" type="curve" smooth="yes"/>
      <point x="208" y="924"/>
      <point x="102" y="799"/>
      <point x="102" y="625" type="curve" smooth="yes"/>
      <point x="102" y="314"/>
      <point x="438" y="-8"/>
      <point x="553" y="-8" type="curve" smooth="yes"/>
      <point x="579" y="-8"/>
      <point x="602" y="9"/>
      <point x="611" y="34" type="curve"/>
      <point x="379" y="197"/>
      <point x="258" y="417"/>
      <point x="258" y="574" type="curve" smooth="yes"/>
      <point x="258" y="697"/>
      <point x="333" y="788"/>
      <point x="445" y="788" type="curve" smooth="yes"/>
      <point x="511" y="788"/>
      <point x="579" y="756"/>
      <point x="648" y="686" type="curve"/>
      <point x="618" y="640"/>
      <point x="591" y="585"/>
      <point x="568" y="522" type="curve"/>
      <point x="701" y="438" type="line"/>
      <point x="711" y="441" type="line"/>
      <point x="813" y="684"/>
      <point x="949" y="770"/>
      <point x="1054" y="771" type="curve" smooth="yes"/>
      <point x="1136" y="772"/>
      <point x="1198" y="722"/>
      <point x="1198" y="626" type="curve" smooth="yes"/>
      <point x="1198" y="533"/>
      <point x="1141" y="451"/>
      <point x="1038" y="333" type="curve" smooth="yes"/>
      <point x="975" y="261"/>
      <point x="876" y="153"/>
      <point x="876" y="57" type="curve" smooth="yes"/>
      <point x="876" y="-58"/>
      <point x="1018" y="-190"/>
      <point x="1181" y="-190" type="curve" smooth="yes"/>
      <point x="1310" y="-190"/>
      <point x="1416" y="-107"/>
      <point x="1416" y="-26" type="curve" smooth="yes"/>
      <point x="1416" y="28"/>
      <point x="1369" y="73"/>
      <point x="1331" y="87" type="curve"/>
      <point x="1276" y="-16"/>
      <point x="1161" y="-64"/>
      <point x="1086" y="-64" type="curve" smooth="yes"/>
      <point x="1038" y="-64"/>
      <point x="1005" y="-45"/>
      <point x="1005" y="-3" type="curve" smooth="yes"/>
      <point x="1005" y="68"/>
      <point x="1103" y="152"/>
      <point x="1199" y="271" type="curve" smooth="yes"/>
      <point x="1294" y="388"/>
      <point x="1320" y="452"/>
      <point x="1320" y="540" type="curve" smooth="yes"/>
      <point x="1320" y="718"/>
      <point x="1212" y="855"/>
      <point x="1074" y="897" type="curve"/>
      <point x="1074" y="1197" type="line"/>
    </contour>
  </outline>
</glyph>
<glyph name="aideva" format="1">
  <advance width="1126"/>
  <unicode hex="0910"/>
  <outline>
    <contour>
      <point x="682" y="576"/>
      <point x="731" y="544"/>
      <point x="785" y="544" type="curve" smooth="yes"/>
      <point x="860" y="544"/>
      <point x="908" y="607"/>
      <point x="908" y="707" type="curve" smooth="yes"/>
      <point x="908" y="1197" type="line"/>
      <point x="1176" y="1197" type="line"/>
      <point x="1182" y="1206" type="line"/>
      <point x="1126" y="1330" type="line"/>
      <point x="879" y="1330" type="line"/>
      <point x="475" y="1861"/>
      <point x="320" y="1932"/>
      <point x="193" y="1932" type="curve" smooth="yes"/>
      <point x="66" y="1932"/>
      <point x="10" y="1861"/>
      <point x="10" y="1793" type="curve" smooth="yes"/>
      <point x="10" y="1735"/>
      <point x="52" y="1680"/>
      <point x="129" y="1658" type="curve"/>
      <point x="158" y="1712"/>
      <point x="208" y="1751"/>
      <point x="283" y="1751" type="curve" smooth="yes"/>
      <point x="386" y="1751"/>
      <point x="476" y="1689"/>
      <point x="762" y="1330" type="curve"/>
      <point x="-50" y="1330" type="line"/>
      <point x="-56" y="1321" type="line"/>
      <point x="0" y="1197" type="line"/>
      <point x="123" y="1197" type="line"/>
      <point x="123" y="787" type="line" smooth="yes"/>
      <point x="123" y="526"/>
      <point x="276" y="454"/>
      <point x="686" y="265" type="curve" smooth="yes"/>
      <point x="889" y="176"/>
      <point x="909" y="149"/>
      <point x="909" y="95" type="curve" smooth="yes"/>
      <point x="909" y="39"/>
      <point x="868" y="-14"/>
      <point x="779" y="-59" type="curve"/>
      <point x="808" y="-105"/>
      <point x="856" y="-134"/>
      <point x="915" y="-134" type="curve" smooth="yes"/>
      <point x="1001" y="-134"/>
      <point x="1066" y="-73"/>
      <point x="1066" y="39" type="curve" smooth="yes"/>
      <point x="1066" y="146"/>
      <point x="991" y="243"/>
      <point x="642" y="402" type="curve" smooth="yes"/>
      <point x="383" y="523"/>
      <point x="283" y="546"/>
      <point x="283" y="671" type="curve" smooth="yes"/>
      <point x="284" y="1197" type="line"/>
      <point x="748" y="1197" type="line"/>
      <point x="748" y="781" type="line" smooth="yes"/>
      <point x="748" y="711"/>
      <point x="712" y="649"/>
      <point x="640" y="621" type="curve"/>
    </contour>
  </outline>
</glyph>
<glyph name="oshortdeva" format="1">
  <advance width="2033"/>
  <unicode hex="0912"/>
  <outline>
    <contour>
      <point x="2083" y="1197" type="line"/>
      <point x="2089" y="1206" type="line"/>
      <point x="2033" y="1330" type="line"/>
      <point x="1821" y="1330" type="line"/>
      <point x="1771" y="1603"/>
      <point x="1610" y="1702"/>
      <point x="1296" y="1731" type="curve" smooth="yes"/>
      <point x="1032" y="1760"/>
      <point x="945" y="1818"/>
      <point x="865" y="1956" type="curve"/>
      <point x="854" y="1934"/>
      <point x="847" y="1912"/>
      <point x="847" y="1880" type="curve" smooth="yes"/>
      <point x="847" y="1729"/>
      <point x="992" y="1601"/>
      <point x="1402" y="1557" type="curve" smooth="yes"/>
      <point x="1633" y="1535"/>
      <point x="1699" y="1511"/>
      <point x="1699" y="1413" type="curve" smooth="yes"/>
      <point x="1699" y="1392"/>
      <point x="1693" y="1362"/>
      <point x="1681" y="1330" type="curve"/>
      <point x="969" y="1330" type="line"/>
      <point x="963" y="1321" type="line"/>
      <point x="1019" y="1197" type="line"/>
      <point x="1182" y="1197" type="line"/>
      <point x="1182" y="907" type="line" smooth="yes"/>
      <point x="1182" y="770"/>
      <point x="1084" y="696"/>
      <point x="957" y="696" type="curve" smooth="yes"/>
      <point x="905" y="696"/>
      <point x="847" y="709"/>
      <point x="790" y="735" type="curve"/>
      <point x="788" y="747" type="line"/>
      <point x="858" y="803"/>
      <point x="892" y="879"/>
      <point x="892" y="973" type="curve" smooth="yes"/>
      <point x="892" y="1181"/>
      <point x="724" y="1335"/>
      <point x="481" y="1335" type="curve" smooth="yes"/>
      <point x="285" y="1335"/>
      <point x="177" y="1234"/>
      <point x="177" y="1137" type="curve" smooth="yes"/>
      <point x="177" y="1065"/>
      <point x="233" y="1017"/>
      <point x="323" y="1017" type="curve"/>
      <point x="323" y="1135"/>
      <point x="407" y="1224"/>
      <point x="547" y="1224" type="curve" smooth="yes"/>
      <point x="665" y="1224"/>
      <point x="746" y="1161"/>
      <point x="746" y="1039" type="curve" smooth="yes"/>
      <point x="746" y="898"/>
      <point x="638" y="812"/>
      <point x="388" y="799" type="curve"/>
      <point x="382" y="789" type="line"/>
      <point x="463" y="632" type="line"/>
      <point x="548" y="642"/>
      <point x="620" y="659"/>
      <point x="679" y="683" type="curve"/>
      <point x="768" y="643"/>
      <point x="827" y="554"/>
      <point x="827" y="443" type="curve" smooth="yes"/>
      <point x="827" y="319"/>
      <point x="730" y="224"/>
      <point x="578" y="224" type="curve" smooth="yes"/>
      <point x="379" y="224"/>
      <point x="217" y="385"/>
      <point x="154" y="756" type="curve"/>
      <point x="113" y="752"/>
      <point x="90" y="734"/>
      <point x="90" y="666" type="curve" smooth="yes"/>
      <point x="90" y="489"/>
      <point x="248" y="62"/>
      <point x="627" y="62" type="curve" smooth="yes"/>
      <point x="830" y="62"/>
      <point x="962" y="198"/>
      <point x="962" y="383" type="curve" smooth="yes"/>
      <point x="962" y="460"/>
      <point x="940" y="531"/>
      <point x="903" y="593" type="curve"/>
      <point x="909" y="600" type="line"/>
      <point x="955" y="582"/>
      <point x="1002" y="573"/>
      <point x="1047" y="573" type="curve" smooth="yes"/>
      <point x="1090" y="573"/>
      <point x="1133" y="582"/>
      <point x="1173" y="601" type="curve"/>
      <point x="1182" y="595" type="line"/>
      <point x="1182" y="19" type="line"/>
      <point x="1333" y="-19" type="line"/>
      <point x="1342" y="-12" type="line"/>
      <point x="1342" y="1197" type="line"/>
      <point x="1665" y="1197" type="line"/>
      <point x="1665" y="19" type="line"/>
      <point x="1816" y="-19" type="line"/>
      <point x="1825" y="-12" type="line"/>
      <point x="1825" y="1197" type="line"/>
    </contour>
  </outline>
</glyph>
<glyph name="odeva" format="1">
  <advance width="2033"/>
  <unicode hex="0913"/>
  <outline>
    <contour>
      <point x="2083" y="1197" type="line"/>
      <point x="2089" y="1206" type="line"/>
      <point x="2033" y="1330" type="line"/>
      <point x="1790" y="1330" type="line"/>
      <point x="1380" y="1861"/>
      <point x="1223" y="1932"/>
      <point x="1094" y="1932" type="curve" smooth="yes"/>
      <point x="967" y="1932"/>
      <point x="911" y="1861"/>
      <point x="911" y="1793" type="curve" smooth="yes"/>
      <point x="911" y="1735"/>
      <point x="953" y="1680"/>
      <point x="1030" y="1658" type="curve"/>
      <point x="1059" y="1712"/>
      <point x="1109" y="1751"/>
      <point x="1184" y="1751" type="curve" smooth="yes"/>
      <point x="1288" y="1751"/>
      <point x="1381" y="1689"/>
      <point x="1673" y="1330" type="curve"/>
      <point x="969" y="1330" type="line"/>
      <point x="963" y="1321" type="line"/>
      <point x="1019" y="1197" type="line"/>
      <point x="1182" y="1197" type="line"/>
      <point x="1182" y="907" type="line" smooth="yes"/>
      <point x="1182" y="770"/>
      <point x="1084" y="696"/>
      <point x="957" y="696" type="curve" smooth="yes"/>
      <point x="905" y="696"/>
      <point x="847" y="709"/>
      <point x="790" y="735" type="curve"/>
      <point x="788" y="747" type="line"/>
      <point x="858" y="803"/>
      <point x="892" y="879"/>
      <point x="892" y="973" type="curve" smooth="yes"/>
      <point x="892" y="1181"/>
      <point x="724" y="1335"/>
      <point x="481" y="1335" type="curve" smooth="yes"/>
      <point x="285" y="1335"/>
      <point x="177" y="1234"/>
      <point x="177" y="1137" type="curve" smooth="yes"/>
      <point x="177" y="1065"/>
      <point x="233" y="1017"/>
      <point x="323" y="1017" type="curve"/>
      <point x="323" y="1135"/>
      <point x="407" y="1224"/>
      <point x="547" y="1224" type="curve" smooth="yes"/>
      <point x="665" y="1224"/>
      <point x="746" y="1161"/>
      <point x="746" y="1039" type="curve" smooth="yes"/>
      <point x="746" y="898"/>
      <point x="638" y="812"/>
      <point x="388" y="799" type="curve"/>
      <point x="382" y="789" type="line"/>
      <point x="463" y="632" type="line"/>
      <point x="548" y="642"/>
      <point x="620" y="659"/>
      <point x="679" y="683" type="curve"/>
      <point x="768" y="643"/>
      <point x="827" y="554"/>
      <point x="827" y="443" type="curve" smooth="yes"/>
      <point x="827" y="319"/>
      <point x="730" y="224"/>
      <point x="578" y="224" type="curve" smooth="yes"/>
      <point x="379" y="224"/>
      <point x="217" y="385"/>
      <point x="154" y="756" type="curve"/>
      <point x="113" y="752"/>
      <point x="90" y="734"/>
      <point x="90" y="666" type="curve" smooth="yes"/>
      <point x="90" y="489"/>
      <point x="248" y="62"/>
      <point x="627" y="62" type="curve" smooth="yes"/>
      <point x="830" y="62"/>
      <point x="962" y="198"/>
      <point x="962" y="383" type="curve" smooth="yes"/>
      <point x="962" y="460"/>
      <point x="940" y="531"/>
      <point x="903" y="593" type="curve"/>
      <point x="909" y="600" type="line"/>
      <point x="955" y="582"/>
      <point x="1002" y="573"/>
      <point x="1047" y="573" type="curve" smooth="yes"/>
      <point x="1090" y="573"/>
      <point x="1133" y="582"/>
      <point x="1173" y="601" type="curve"/>
      <point x="1182" y="595" type="line"/>
      <point x="1182" y="19" type="line"/>
      <point x="1333" y="-19" type="line"/>
      <point x="1342" y="-12" type="line"/>
      <point x="1342" y="1197" type="line"/>
      <point x="1665" y="1197" type="line"/>
      <point x="1665" y="19" type="line"/>
      <point x="1816" y="-19" type="line"/>
      <point x="1825" y="-12" type="line"/>
      <point x="1825" y="1197" type="line"/>
    </contour>
  </outline>
</glyph>
<glyph name="audeva" format="1">
  <advance width="2033"/>
  <unicode hex="0914"/>
  <outline>
    <contour>
      <point x="2083" y="1197" type="line"/>
      <point x="2089" y="1206" type="line"/>
      <point x="2033" y="1330" type="line"/>
      <point x="1810" y="1330" type="line"/>
      <point x="1632" y="1937"/>
      <point x="1484" y="2025"/>
      <point x="1363" y="2025" type="curve" smooth="yes"/>
      <point x="1267" y="2025"/>
      <point x="1218" y="1969"/>
      <point x="1218" y="1912" type="curve" smooth="yes"/>
      <point x="1218" y="1862"/>
      <point x="1256" y="1823"/>
      <point x="1311" y="1801" type="curve"/>
      <point x="1338" y="1839"/>
      <point x="1373" y="1864"/>
      <point x="1422" y="1864" type="curve" smooth="yes"/>
      <point x="1486" y="1864"/>
      <point x="1546" y="1821"/>
      <point x="1672" y="1451" type="curve"/>
      <point x="1666" y="1446" type="line"/>
      <point x="1467" y="1612"/>
      <point x="1238" y="1742"/>
      <point x="1101" y="1742" type="curve" smooth="yes"/>
      <point x="1018" y="1742"/>
      <point x="944" y="1693"/>
      <point x="944" y="1619" type="curve" smooth="yes"/>
      <point x="944" y="1568"/>
      <point x="980" y="1531"/>
      <point x="1050" y="1498" type="curve"/>
      <point x="1075" y="1558"/>
      <point x="1119" y="1597"/>
      <point x="1183" y="1597" type="curve" smooth="yes"/>
      <point x="1283" y="1597"/>
      <point x="1475" y="1501"/>
      <point x="1660" y="1338" type="curve"/>
      <point x="1657" y="1330" type="line"/>
      <point x="969" y="1330" type="line"/>
      <point x="963" y="1321" type="line"/>
      <point x="1019" y="1197" type="line"/>
      <point x="1182" y="1197" type="line"/>
      <point x="1182" y="907" type="line" smooth="yes"/>
      <point x="1182" y="770"/>
      <point x="1084" y="696"/>
      <point x="958" y="696" type="curve" smooth="yes"/>
      <point x="905" y="696"/>
      <point x="847" y="709"/>
      <point x="790" y="735" type="curve"/>
      <point x="788" y="747" type="line"/>
      <point x="858" y="803"/>
      <point x="892" y="879"/>
      <point x="892" y="973" type="curve" smooth="yes"/>
      <point x="892" y="1181"/>
      <point x="724" y="1335"/>
      <point x="481" y="1335" type="curve" smooth="yes"/>
      <point x="284" y="1335"/>
      <point x="177" y="1234"/>
      <point x="177" y="1136" type="curve" smooth="yes"/>
      <point x="177" y="1065"/>
      <point x="234" y="1017"/>
      <point x="323" y="1017" type="curve"/>
      <point x="323" y="1135"/>
      <point x="407" y="1224"/>
      <point x="547" y="1224" type="curve" smooth="yes"/>
      <point x="665" y="1224"/>
      <point x="746" y="1161"/>
      <point x="746" y="1039" type="curve" smooth="yes"/>
      <point x="746" y="898"/>
      <point x="638" y="812"/>
      <point x="388" y="799" type="curve"/>
      <point x="382" y="789" type="line"/>
      <point x="463" y="632" type="line"/>
      <point x="548" y="642"/>
      <point x="620" y="659"/>
      <point x="679" y="683" type="curve"/>
      <point x="768" y="644"/>
      <point x="827" y="550"/>
      <point x="827" y="448" type="curve" smooth="yes"/>
      <point x="827" y="317"/>
      <point x="730" y="224"/>
      <point x="578" y="224" type="curve" smooth="yes"/>
      <point x="379" y="224"/>
      <point x="207" y="385"/>
      <point x="154" y="756" type="curve"/>
      <point x="107" y="752"/>
      <point x="80" y="735"/>
      <point x="80" y="664" type="curve" smooth="yes"/>
      <point x="80" y="489"/>
      <point x="245" y="62"/>
      <point x="621" y="62" type="curve" smooth="yes"/>
      <point x="833" y="62"/>
      <point x="962" y="198"/>
      <point x="962" y="383" type="curve" smooth="yes"/>
      <point x="962" y="460"/>
      <point x="940" y="531"/>
      <point x="903" y="593" type="curve"/>
      <point x="909" y="600" type="line"/>
      <point x="955" y="582"/>
      <point x="1002" y="573"/>
      <point x="1046" y="573" type="curve" smooth="yes"/>
      <point x="1090" y="573"/>
      <point x="1133" y="582"/>
      <point x="1173" y="601" type="curve"/>
      <point x="1182" y="595" type="line"/>
      <point x="1182" y="19" type="line"/>
      <point x="1333" y="-19" type="line"/>
      <point x="1342" y="-12" type="line"/>
      <point x="1342" y="1197" type="line"/>
      <point x="1665" y="1197" type="line"/>
      <point x="1665" y="19" type="line"/>
      <point x="1816" y="-19" type="line"/>
      <point x="1825" y="-12" type="line"/>
      <point x="1825" y="1197" type="line"/>
    </contour>
  </outline>
</glyph>
<glyph name="kadeva" format="1">
  <advance width="1542"/>
  <unicode hex="0915"/>
  <outline>
    <contour>
      <point x="1592" y="1197" type="line"/>
      <point x="1598" y="1206" type="line"/>
      <point x="1542" y="1330" type="line"/>
      <point x="-50" y="1330" type="line"/>
      <point x="-56" y="1321" type="line"/>
      <point x="0" y="1197" type="line"/>
      <point x="733" y="1197" type="line"/>
      <point x="733" y="856" type="line"/>
      <point x="723" y="853" type="line"/>
      <point x="635" y="951"/>
      <point x="515" y="987"/>
      <point x="420" y="987" type="curve" smooth="yes"/>
      <point x="235" y="987"/>
      <point x="99" y="849"/>
      <point x="99" y="667" type="curve" smooth="yes"/>
      <point x="99" y="421"/>
      <point x="349" y="219"/>
      <point x="552" y="219" type="curve" smooth="yes"/>
      <point x="611" y="219"/>
      <point x="672" y="236"/>
      <point x="723" y="274" type="curve"/>
      <point x="733" y="269" type="line"/>
      <point x="733" y="19" type="line"/>
      <point x="884" y="-19" type="line"/>
      <point x="893" y="-12" type="line"/>
      <point x="893" y="496" type="line" smooth="yes"/>
      <point x="893" y="678"/>
      <point x="1060" y="805"/>
      <point x="1183" y="805" type="curve" smooth="yes"/>
      <point x="1271" y="805"/>
      <point x="1331" y="740"/>
      <point x="1331" y="626" type="curve" smooth="yes"/>
      <point x="1331" y="500"/>
      <point x="1258" y="359"/>
      <point x="1120" y="287" type="curve"/>
      <point x="1151" y="236"/>
      <point x="1203" y="200"/>
      <point x="1255" y="200" type="curve" smooth="yes"/>
      <point x="1350" y="200"/>
      <point x="1456" y="318"/>
      <point x="1456" y="529" type="curve" smooth="yes"/>
      <point x="1456" y="784"/>
      <point x="1301" y="932"/>
      <point x="1120" y="932" type="curve" smooth="yes"/>
      <point x="1030" y="932"/>
      <point x="956" y="895"/>
      <point x="903" y="839" type="curve"/>
      <point x="893" y="843" type="line"/>
      <point x="893" y="1197" type="line"/>
    </contour>
    <contour>
      <point x="635" y="843"/>
      <point x="733" y="745"/>
      <point x="733" y="632" type="curve" smooth="yes"/>
      <point x="733" y="568" type="line" smooth="yes"/>
      <point x="733" y="444"/>
      <point x="614" y="358"/>
      <point x="486" y="358" type="curve" smooth="yes"/>
      <point x="350" y="358"/>
      <point x="248" y="456"/>
      <point x="248" y="597" type="curve" smooth="yes"/>
      <point x="248" y="734"/>
      <point x="345" y="843"/>
      <point x="494" y="843" type="curve" smooth="yes"/>
    </contour>
  </outline>
</glyph>
<glyph name="ghadeva" format="1">
  <advance width="1261"/>
  <unicode hex="0918"/>
  <outline>
    <contour>
      <point x="1311" y="1197" type="line"/>
      <point x="1317" y="1206" type="line"/>
      <point x="1261" y="1330" type="line"/>
      <point x="-50" y="1330" type="line"/>
      <point x="-56" y="1321" type="line"/>
      <point x="0" y="1197" type="line"/>
      <point x="127" y="1197" type="line"/>
      <point x="132" y="1187" type="line"/>
      <point x="108" y="1149"/>
      <point x="96" y="1104"/>
      <point x="96" y="1053" type="curve" smooth="yes"/>
      <point x="96" y="922"/>
      <point x="174" y="827"/>
      <point x="310" y="746" type="curve"/>
      <point x="312" y="738" type="line"/>
      <point x="278" y="687"/>
      <point x="259" y="631"/>
      <point x="259" y="571" type="curve" smooth="yes"/>
      <point x="259" y="388"/>
      <point x="434" y="221"/>
      <point x="656" y="221" type="curve" smooth="yes"/>
      <point x="740" y="221"/>
      <point x="820" y="245"/>
      <point x="884" y="284" type="curve"/>
      <point x="894" y="279" type="line"/>
      <point x="894" y="19" type="line"/>
      <point x="1045" y="-19" type="line"/>
      <point x="1054" y="-12" type="line"/>
      <point x="1054" y="1197" type="line"/>
    </contour>
    <contour>
      <point x="894" y="1197" type="line"/>
      <point x="894" y="610" type="line" smooth="yes"/>
      <point x="892" y="438"/>
      <point x="707" y="351"/>
      <point x="576" y="351" type="curve" smooth="yes"/>
      <point x="461" y="351"/>
      <point x="391" y="417"/>
      <point x="391" y="507" type="curve" smooth="yes"/>
      <point x="391" y="617"/>
      <point x="497" y="725"/>
      <point x="694" y="777" type="curve"/>
      <point x="698" y="788" type="line"/>
      <point x="586" y="918" type="line"/>
      <point x="505" y="900"/>
      <point x="434" y="863"/>
      <point x="379" y="815" type="curve"/>
      <point x="298" y="858"/>
      <point x="252" y="915"/>
      <point x="252" y="991" type="curve" smooth="yes"/>
      <point x="252" y="1096"/>
      <point x="339" y="1197"/>
      <point x="464" y="1197" type="curve" smooth="yes"/>
    </contour>
  </outline>
</glyph>
<glyph name="ngadeva" format="1">
  <advance width="1192"/>
  <unicode hex="0919"/>
  <outline>
    <contour>
      <point x="1242" y="1197" type="line"/>
      <point x="1248" y="1206" type="line"/>
      <point x="1192" y="1330" type="line"/>
      <point x="-50" y="1330" type="line"/>
      <point x="-56" y="1321" type="line"/>
      <point x="0" y="1197" type="line"/>
      <point x="688" y="1197" type="line"/>
      <point x="688" y="1034" type="line" smooth="yes"/>
      <point x="688" y="1029"/>
      <point x="685" y="1026"/>
      <point x="680" y="1026" type="curve" smooth="yes"/>
      <point x="377" y="1026" type="line" smooth="yes"/>
      <point x="245" y="1026"/>
      <point x="184" y="962"/>
      <point x="184" y="872" type="curve" smooth="yes"/>
      <point x="184" y="721"/>
      <point x="358" y="522"/>
      <point x="526" y="522" type="curve" smooth="yes"/>
      <point x="575" y="522"/>
      <point x="693" y="539"/>
      <point x="739" y="539" type="curve" smooth="yes"/>
      <point x="818" y="539"/>
      <point x="845" y="488"/>
      <point x="845" y="435" type="curve" smooth="yes"/>
      <point x="845" y="325"/>
      <point x="728" y="255"/>
      <point x="596" y="255" type="curve" smooth="yes"/>
      <point x="424" y="255"/>
      <point x="254" y="374"/>
      <point x="133" y="616" type="curve"/>
      <point x="103" y="601"/>
      <point x="88" y="572"/>
      <point x="91" y="535" type="curve" smooth="yes"/>
      <point x="101" y="411"/>
      <point x="320" y="99"/>
      <point x="648" y="99" type="curve" smooth="yes"/>
      <point x="837" y="99"/>
      <point x="950" y="202"/>
      <point x="950" y="361" type="curve" smooth="yes"/>
      <point x="950" y="537"/>
      <point x="810" y="701"/>
      <point x="666" y="701" type="curve" smooth="yes"/>
      <point x="614" y="701"/>
      <point x="502" y="680"/>
      <point x="444" y="680" type="curve" smooth="yes"/>
      <point x="360" y="680"/>
      <point x="316" y="723"/>
      <point x="316" y="787" type="curve" smooth="yes"/>
      <point x="316" y="845"/>
      <point x="352" y="885"/>
      <point x="459" y="885" type="curve" smooth="yes"/>
      <point x="834" y="885" type="line"/>
      <point x="842" y="893" type="line"/>
      <point x="842" y="1197" type="line"/>
    </contour>
    <contour>
      <point x="954" y="861"/>
      <point x="911" y="818"/>
      <point x="911" y="766" type="curve" smooth="yes"/>
      <point x="911" y="713"/>
      <point x="954" y="670"/>
      <point x="1007" y="670" type="curve" smooth="yes"/>
      <point x="1059" y="670"/>
      <point x="1102" y="713"/>
      <point x="1102" y="766" type="curve" smooth="yes"/>
      <point x="1102" y="818"/>
      <point x="1059" y="861"/>
      <point x="1007" y="861" type="curve" smooth="yes"/>
    </contour>
  </outline>
</glyph>
<glyph name="cadeva" format="1">
  <advance width="1321"/>
  <unicode hex="091A"/>
  <outline>
    <contour>
      <point x="1371" y="1197" type="line"/>
      <point x="1377" y="1206" type="line"/>
      <point x="1321" y="1330" type="line"/>
      <point x="-50" y="1330" type="line"/>
      <point x="-56" y="1321" type="line"/>
      <point x="0" y="1197" type="line"/>
      <point x="954" y="1197" type="line"/>
      <point x="954" y="660" type="line" smooth="yes"/>
      <point x="954" y="508"/>
      <point x="805" y="373"/>
      <point x="632" y="373" type="curve" smooth="yes"/>
      <point x="497" y="373"/>
      <point x="411" y="456"/>
      <point x="411" y="565" type="curve" smooth="yes"/>
      <point x="411" y="699"/>
      <point x="540" y="830"/>
      <point x="741" y="830" type="curve" smooth="yes"/>
      <point x="796" y="830" type="line"/>
      <point x="802" y="839" type="line"/>
      <point x="746" y="963" type="line"/>
      <point x="68" y="963" type="line"/>
      <point x="62" y="954" type="line"/>
      <point x="118" y="830" type="line"/>
      <point x="345" y="830" type="line"/>
      <point x="349" y="820" type="line"/>
      <point x="305" y="765"/>
      <point x="279" y="698"/>
      <point x="279" y="625" type="curve" smooth="yes"/>
      <point x="279" y="435"/>
      <point x="454" y="251"/>
      <point x="695" y="251" type="curve" smooth="yes"/>
      <point x="786" y="251"/>
      <point x="873" y="277"/>
      <point x="944" y="326" type="curve"/>
      <point x="954" y="321" type="line"/>
      <point x="954" y="19" type="line"/>
      <point x="1105" y="-19" type="line"/>
      <point x="1114" y="-12" type="line"/>
      <point x="1114" y="1197" type="line"/>
    </contour>
  </outline>
</glyph>
<glyph name="jhadeva" format="1">
  <advance width="1500"/>
  <unicode hex="091D"/>
  <outline>
    <contour>
      <point x="1550" y="1197" type="line"/>
      <point x="1556" y="1206" type="line"/>
      <point x="1500" y="1330" type="line"/>
      <point x="-50" y="1330" type="line"/>
      <point x="-56" y="1321" type="line"/>
      <point x="0" y="1197" type="line"/>
      <point x="618" y="1197" type="line"/>
      <point x="618" y="1034" type="line" smooth="yes"/>
      <point x="618" y="1029"/>
      <point x="615" y="1026"/>
      <point x="610" y="1026" type="curve" smooth="yes"/>
      <point x="307" y="1026" type="line" smooth="yes"/>
      <point x="175" y="1026"/>
      <point x="114" y="961"/>
      <point x="114" y="877" type="curve" smooth="yes"/>
      <point x="114" y="740"/>
      <point x="275" y="540"/>
      <point x="457" y="540" type="curve" smooth="yes"/>
      <point x="513" y="540"/>
      <point x="673" y="559"/>
      <point x="708" y="559" type="curve" smooth="yes"/>
      <point x="756" y="559"/>
      <point x="778" y="523"/>
      <point x="778" y="483" type="curve" smooth="yes"/>
      <point x="778" y="381"/>
      <point x="630" y="310"/>
      <point x="420" y="311" type="curve"/>
      <point x="380" y="396"/>
      <point x="334" y="447"/>
      <point x="266" y="447" type="curve" smooth="yes"/>
      <point x="214" y="447"/>
      <point x="155" y="416"/>
      <point x="155" y="341" type="curve" smooth="yes"/>
      <point x="155" y="248"/>
      <point x="245" y="163"/>
      <point x="403" y="150" type="curve"/>
      <point x="475" y="-61"/>
      <point x="593" y="-143"/>
      <point x="698" y="-143" type="curve" smooth="yes"/>
      <point x="770" y="-143"/>
      <point x="824" y="-105"/>
      <point x="824" y="-42" type="curve" smooth="yes"/>
      <point x="824" y="-20"/>
      <point x="817" y="5"/>
      <point x="802" y="33" type="curve"/>
      <point x="772" y="23"/>
      <point x="746" y="17"/>
      <point x="704" y="17" type="curve" smooth="yes"/>
      <point x="611" y="17"/>
      <point x="551" y="47"/>
      <point x="497" y="142" type="curve"/>
      <point x="501" y="149" type="line"/>
      <point x="733" y="163"/>
      <point x="886" y="273"/>
      <point x="886" y="428" type="curve" smooth="yes"/>
      <point x="886" y="464"/>
      <point x="878" y="503"/>
      <point x="863" y="541" type="curve"/>
      <point x="868" y="546" type="line"/>
      <point x="911" y="532"/>
      <point x="956" y="523"/>
      <point x="998" y="523" type="curve" smooth="yes"/>
      <point x="1040" y="523"/>
      <point x="1084" y="532"/>
      <point x="1125" y="552" type="curve"/>
      <point x="1132" y="548" type="line"/>
      <point x="1132" y="19" type="line"/>
      <point x="1283" y="-19" type="line"/>
      <point x="1292" y="-12" type="line"/>
      <point x="1292" y="1197" type="line"/>
    </contour>
    <contour>
      <point x="772" y="1197" type="line"/>
      <point x="1132" y="1197" type="line"/>
      <point x="1132" y="857" type="line" smooth="yes"/>
      <point x="1132" y="721"/>
      <point x="1038" y="646"/>
      <point x="902" y="646" type="curve" smooth="yes"/>
      <point x="858" y="646"/>
      <point x="808" y="654"/>
      <point x="754" y="682" type="curve"/>
      <point x="717" y="699"/>
      <point x="676" y="713"/>
      <point x="629" y="713" type="curve" smooth="yes"/>
      <point x="568" y="713"/>
      <point x="426" y="690"/>
      <point x="370" y="690" type="curve" smooth="yes"/>
      <point x="298" y="690"/>
      <point x="256" y="729"/>
      <point x="256" y="790" type="curve" smooth="yes"/>
      <point x="256" y="845"/>
      <point x="291" y="885"/>
      <point x="389" y="885" type="curve" smooth="yes"/>
      <point x="764" y="885" type="line"/>
      <point x="772" y="893" type="line"/>
    </contour>
  </outline>
</glyph>
<glyph name="ttadeva" format="1">
  <advance width="1008"/>
  <unicode hex="091F"/>
  <outline>
    <contour>
      <point x="1058" y="1197" type="line"/>
      <point x="1064" y="1206" type="line"/>
      <point x="1008" y="1330" type="line"/>
      <point x="-50" y="1330" type="line"/>
      <point x="-56" y="1321" type="line"/>
      <point x="0" y="1197" type="line"/>
      <point x="638" y="1197" type="line"/>
      <point x="638" y="974" type="line" smooth="yes"/>
      <point x="638" y="969"/>
      <point x="635" y="966"/>
      <point x="630" y="966" type="curve" smooth="yes"/>
      <point x="507" y="966" type="line" smooth="yes"/>
      <point x="215" y="966"/>
      <point x="51" y="800"/>
      <point x="51" y="592" type="curve" smooth="yes"/>
      <point x="51" y="346"/>
      <point x="282" y="91"/>
      <point x="584" y="91" type="curve" smooth="yes"/>
      <point x="782" y="91"/>
      <point x="946" y="201"/>
      <point x="946" y="321" type="curve" smooth="yes"/>
      <point x="946" y="373"/>
      <point x="915" y="415"/>
      <point x="851" y="435" type="curve"/>
      <point x="799" y="308"/>
      <point x="669" y="222"/>
      <point x="511" y="222" type="curve" smooth="yes"/>
      <point x="309" y="222"/>
      <point x="199" y="361"/>
      <point x="199" y="518" type="curve" smooth="yes"/>
      <point x="199" y="691"/>
      <point x="334" y="819"/>
      <point x="563" y="819" type="curve" smooth="yes"/>
      <point x="784" y="819" type="line"/>
      <point x="792" y="827" type="line"/>
      <point x="792" y="1197" type="line"/>
    </contour>
  </outline>
</glyph>
<glyph name="tthadeva" format="1">
  <advance width="1138"/>
  <unicode hex="0920"/>
  <outline>
    <contour>
      <point x="1188" y="1197" type="line"/>
      <point x="1194" y="1206" type="line"/>
      <point x="1138" y="1330" type="line"/>
      <point x="-50" y="1330" type="line"/>
      <point x="-56" y="1321" type="line"/>
      <point x="0" y="1197" type="line"/>
      <point x="638" y="1197" type="line"/>
      <point x="638" y="974" type="line" smooth="yes"/>
      <point x="638" y="969"/>
      <point x="635" y="966"/>
      <point x="630" y="966" type="curve" smooth="yes"/>
      <point x="513" y="966" type="line" smooth="yes"/>
      <point x="247" y="966"/>
      <point x="87" y="793"/>
      <point x="87" y="588" type="curve" smooth="yes"/>
      <point x="87" y="336"/>
      <point x="327" y="81"/>
      <point x="622" y="81" type="curve" smooth="yes"/>
      <point x="862" y="81"/>
      <point x="1045" y="250"/>
      <point x="1045" y="471" type="curve" smooth="yes"/>
      <point x="1045" y="642"/>
      <point x="936" y="793"/>
      <point x="792" y="885" type="curve"/>
      <point x="792" y="1197" type="line"/>
    </contour>
    <contour>
      <point x="813" y="819"/>
      <point x="904" y="685"/>
      <point x="904" y="542" type="curve" smooth="yes"/>
      <point x="904" y="349"/>
      <point x="737" y="212"/>
      <point x="547" y="212" type="curve" smooth="yes"/>
      <point x="355" y="212"/>
      <point x="229" y="352"/>
      <point x="229" y="517" type="curve" smooth="yes"/>
      <point x="229" y="683"/>
      <point x="358" y="819"/>
      <point x="586" y="819" type="curve" smooth="yes"/>
    </contour>
  </outline>
</glyph>
<glyph name="ddhadeva" format="1">
  <advance width="1008"/>
  <unicode hex="0922"/>
  <outline>
    <contour>
      <point x="1058" y="1197" type="line"/>
      <point x="1064" y="1206" type="line"/>
      <point x="1008" y="1330" type="line"/>
      <point x="-50" y="1330" type="line"/>
      <point x="-56" y="1321" type="line"/>
      <point x="0" y="1197" type="line"/>
      <point x="638" y="1197" type="line"/>
      <point x="638" y="984" type="line" smooth="yes"/>
      <point x="638" y="979"/>
      <point x="635" y="976"/>
      <point x="630" y="976" type="curve" smooth="yes"/>
      <point x="512" y="976" type="line" smooth="yes"/>
      <point x="221" y="976"/>
      <point x="57" y="807"/>
      <point x="57" y="593" type="curve" smooth="yes"/>
      <point x="57" y="329"/>
      <point x="304" y="61"/>
      <point x="592" y="61" type="curve" smooth="yes"/>
      <point x="795" y="61"/>
      <point x="952" y="194"/>
      <point x="952" y="372" type="curve" smooth="yes"/>
      <point x="952" y="524"/>
      <point x="837" y="655"/>
      <point x="690" y="655" type="curve" smooth="yes"/>
      <point x="580" y="655"/>
      <point x="499" y="583"/>
      <point x="499" y="464" type="curve" smooth="yes"/>
      <point x="499" y="384"/>
      <point x="536" y="302"/>
      <point x="626" y="211" type="curve"/>
      <point x="624" y="203" type="line"/>
      <point x="594" y="195"/>
      <point x="563" y="192"/>
      <point x="532" y="192" type="curve" smooth="yes"/>
      <point x="319" y="192"/>
      <point x="199" y="353"/>
      <point x="199" y="519" type="curve" smooth="yes"/>
      <point x="199" y="696"/>
      <point x="334" y="829"/>
      <point x="563" y="829" type="curve" smooth="yes"/>
      <point x="784" y="829" type="line"/>
      <point x="792" y="837" type="line"/>
      <point x="792" y="1197" type="line"/>
    </contour>
    <contour>
      <point x="808" y="531"/>
      <point x="851" y="489"/>
      <point x="851" y="425" type="curve" smooth="yes"/>
      <point x="851" y="352"/>
      <point x="796" y="278"/>
      <point x="710" y="234" type="curve"/>
      <point x="658" y="299"/>
      <point x="637" y="354"/>
      <point x="637" y="402" type="curve" smooth="yes"/>
      <point x="637" y="477"/>
      <point x="690" y="531"/>
      <point x="753" y="531" type="curve" smooth="yes"/>
    </contour>
  </outline>
</glyph>
<glyph name="tadeva" format="1">
  <advance width="1241"/>
  <unicode hex="0924"/>
  <outline>
    <contour>
      <point x="1291" y="1197" type="line"/>
      <point x="1297" y="1206" type="line"/>
      <point x="1241" y="1330" type="line"/>
      <point x="-50" y="1330" type="line"/>
      <point x="-56" y="1321" type="line"/>
      <point x="0" y="1197" type="line"/>
      <point x="874" y="1197" type="line"/>
      <point x="874" y="923" type="line"/>
      <point x="416" y="923" type="line" smooth="yes"/>
      <point x="230" y="923"/>
      <point x="136" y="808"/>
      <point x="136" y="629" type="curve" smooth="yes"/>
      <point x="136" y="317"/>
      <point x="423" y="-18"/>
      <point x="530" y="-18" type="curve" smooth="yes"/>
      <point x="551" y="-18"/>
      <point x="573" y="-5"/>
      <point x="583" y="20" type="curve"/>
      <point x="398" y="179"/>
      <point x="285" y="392"/>
      <point x="285" y="564" type="curve" smooth="yes"/>
      <point x="285" y="683"/>
      <point x="339" y="778"/>
      <point x="488" y="778" type="curve" smooth="yes"/>
      <point x="874" y="778" type="line"/>
      <point x="874" y="19" type="line"/>
      <point x="1025" y="-19" type="line"/>
      <point x="1034" y="-12" type="line"/>
      <point x="1034" y="1197" type="line"/>
    </contour>
  </outline>
</glyph>
<glyph name="thadeva" format="1">
  <advance width="1341"/>
  <unicode hex="0925"/>
  <outline>
    <contour>
      <point x="183" y="1387"/>
      <point x="78" y="1309"/>
      <point x="78" y="1188" type="curve" smooth="yes"/>
      <point x="78" y="1050"/>
      <point x="214" y="926"/>
      <point x="335" y="926" type="curve" smooth="yes"/>
      <point x="366" y="926"/>
      <point x="385" y="934"/>
      <point x="399" y="942" type="curve"/>
      <point x="275" y="1006"/>
      <point x="228" y="1067"/>
      <point x="228" y="1136" type="curve" smooth="yes"/>
      <point x="228" y="1214"/>
      <point x="288" y="1260"/>
      <point x="373" y="1260" type="curve" smooth="yes"/>
      <point x="475" y="1260"/>
      <point x="545" y="1195"/>
      <point x="545" y="1069" type="curve" smooth="yes"/>
      <point x="545" y="904"/>
      <point x="426" y="788"/>
      <point x="150" y="710" type="curve"/>
      <point x="145" y="700" type="line"/>
      <point x="328" y="374"/>
      <point x="545" y="241"/>
      <point x="746" y="241" type="curve" smooth="yes"/>
      <point x="835" y="241"/>
      <point x="907" y="267"/>
      <point x="964" y="311" type="curve"/>
      <point x="974" y="306" type="line"/>
      <point x="974" y="19" type="line"/>
      <point x="1125" y="-19" type="line"/>
      <point x="1134" y="-12" type="line"/>
      <point x="1134" y="1197" type="line"/>
      <point x="1391" y="1197" type="line"/>
      <point x="1397" y="1206" type="line"/>
      <point x="1341" y="1330" type="line"/>
      <point x="730" y="1330" type="line"/>
      <point x="724" y="1321" type="line"/>
      <point x="780" y="1197" type="line"/>
      <point x="974" y="1197" type="line"/>
      <point x="974" y="680" type="line" smooth="yes"/>
      <point x="974" y="512"/>
      <point x="836" y="401"/>
      <point x="677" y="401" type="curve" smooth="yes"/>
      <point x="569" y="401"/>
      <point x="430" y="452"/>
      <point x="333" y="589" type="curve"/>
      <point x="568" y="672"/>
      <point x="685" y="809"/>
      <point x="685" y="982" type="curve" smooth="yes"/>
      <point x="685" y="1204"/>
      <point x="492" y="1387"/>
      <point x="305" y="1387" type="curve" smooth="yes"/>
    </contour>
  </outline>
</glyph>
<glyph name="dadeva" format="1">
  <advance width="1008"/>
  <unicode hex="0926"/>
  <outline>
    <contour>
      <point x="784" y="819" type="line"/>
      <point x="792" y="827" type="line"/>
      <point x="792" y="1197" type="line"/>
      <point x="1058" y="1197" type="line"/>
      <point x="1064" y="1206" type="line"/>
      <point x="1008" y="1330" type="line"/>
      <point x="-50" y="1330" type="line"/>
      <point x="-56" y="1321" type="line"/>
      <point x="0" y="1197" type="line"/>
      <point x="638" y="1197" type="line"/>
      <point x="638" y="974" type="line" smooth="yes"/>
      <point x="638" y="969"/>
      <point x="635" y="966"/>
      <point x="630" y="966" type="curve" smooth="yes"/>
      <point x="512" y="966" type="line" smooth="yes"/>
      <point x="193" y="966"/>
      <point x="57" y="785"/>
      <point x="57" y="594" type="curve" smooth="yes"/>
      <point x="57" y="346"/>
      <point x="285" y="91"/>
      <point x="570" y="91" type="curve" smooth="yes"/>
      <point x="650" y="91"/>
      <point x="721" y="111"/>
      <point x="777" y="140" type="curve"/>
      <point x="833" y="81"/>
      <point x="854" y="41"/>
      <point x="854" y="9" type="curve" smooth="yes"/>
      <point x="854" y="-39"/>
      <point x="807" y="-79"/>
      <point x="735" y="-98" type="curve"/>
      <point x="761" y="-164"/>
      <point x="805" y="-202"/>
      <point x="861" y="-202" type="curve" smooth="yes"/>
      <point x="928" y="-202"/>
      <point x="980" y="-147"/>
      <point x="980" y="-60" type="curve" smooth="yes"/>
      <point x="980" y="1"/>
      <point x="955" y="68"/>
      <point x="845" y="190" type="curve"/>
      <point x="885" y="228"/>
      <point x="915" y="281"/>
      <point x="915" y="339" type="curve" smooth="yes"/>
      <point x="915" y="420"/>
      <point x="856" y="499"/>
      <point x="763" y="499" type="curve" smooth="yes"/>
      <point x="682" y="499"/>
      <point x="629" y="438"/>
      <point x="629" y="364" type="curve" smooth="yes"/>
      <point x="629" y="326"/>
      <point x="643" y="294"/>
      <point x="669" y="262" type="curve"/>
      <point x="667" y="254" type="line"/>
      <point x="619" y="231"/>
      <point x="565" y="219"/>
      <point x="507" y="219" type="curve" smooth="yes"/>
      <point x="306" y="219"/>
      <point x="199" y="365"/>
      <point x="199" y="518" type="curve" smooth="yes"/>
      <point x="199" y="690"/>
      <point x="334" y="819"/>
      <point x="563" y="819" type="curve" smooth="yes"/>
    </contour>
  </outline>
</glyph>
<glyph name="dhadeva" format="1">
  <advance width="1315"/>
  <unicode hex="0927"/>
  <outline>
    <contour>
      <point x="194" y="1387"/>
      <point x="100" y="1280"/>
      <point x="100" y="1151" type="curve" smooth="yes"/>
      <point x="100" y="1021"/>
      <point x="196" y="895"/>
      <point x="374" y="792" type="curve"/>
      <point x="322" y="731"/>
      <point x="293" y="654"/>
      <point x="293" y="581" type="curve" smooth="yes"/>
      <point x="293" y="399"/>
      <point x="476" y="221"/>
      <point x="713" y="221" type="curve" smooth="yes"/>
      <point x="798" y="221"/>
      <point x="876" y="244"/>
      <point x="938" y="283" type="curve"/>
      <point x="948" y="278" type="line"/>
      <point x="948" y="19" type="line"/>
      <point x="1099" y="-19" type="line"/>
      <point x="1108" y="-12" type="line"/>
      <point x="1108" y="1197" type="line"/>
      <point x="1365" y="1197" type="line"/>
      <point x="1371" y="1206" type="line"/>
      <point x="1315" y="1330" type="line"/>
      <point x="704" y="1330" type="line"/>
      <point x="698" y="1321" type="line"/>
      <point x="754" y="1197" type="line"/>
      <point x="948" y="1197" type="line"/>
      <point x="948" y="610" type="line" smooth="yes"/>
      <point x="948" y="433"/>
      <point x="767" y="351"/>
      <point x="632" y="351" type="curve" smooth="yes"/>
      <point x="503" y="351"/>
      <point x="425" y="426"/>
      <point x="425" y="520" type="curve" smooth="yes"/>
      <point x="425" y="631"/>
      <point x="533" y="745"/>
      <point x="747" y="778" type="curve"/>
      <point x="751" y="789" type="line"/>
      <point x="640" y="918" type="line"/>
      <point x="563" y="910"/>
      <point x="494" y="884"/>
      <point x="439" y="846" type="curve"/>
      <point x="312" y="923"/>
      <point x="256" y="1009"/>
      <point x="256" y="1094" type="curve" smooth="yes"/>
      <point x="256" y="1182"/>
      <point x="316" y="1249"/>
      <point x="398" y="1249" type="curve" smooth="yes"/>
      <point x="466" y="1249"/>
      <point x="519" y="1203"/>
      <point x="557" y="1087" type="curve"/>
      <point x="567" y="1087"/>
      <point x="590" y="1103"/>
      <point x="590" y="1158" type="curve" smooth="yes"/>
      <point x="590" y="1278"/>
      <point x="482" y="1387"/>
      <point x="337" y="1387" type="curve" smooth="yes"/>
    </contour>
  </outline>
</glyph>
<glyph name="phadeva" format="1">
  <advance width="1480"/>
  <unicode hex="092B"/>
  <outline>
    <contour>
      <point x="1530" y="1197" type="line"/>
      <point x="1536" y="1206" type="line"/>
      <point x="1480" y="1330" type="line"/>
      <point x="-50" y="1330" type="line"/>
      <point x="-56" y="1321" type="line"/>
      <point x="0" y="1197" type="line"/>
      <point x="129" y="1197" type="line"/>
      <point x="129" y="745" type="line" smooth="yes"/>
      <point x="129" y="536"/>
      <point x="305" y="361"/>
      <point x="492" y="361" type="curve" smooth="yes"/>
      <point x="552" y="361"/>
      <point x="619" y="379"/>
      <point x="674" y="413" type="curve"/>
      <point x="684" y="407" type="line"/>
      <point x="684" y="19" type="line"/>
      <point x="835" y="-19" type="line"/>
      <point x="844" y="-12" type="line"/>
      <point x="844" y="518" type="line" smooth="yes"/>
      <point x="844" y="694"/>
      <point x="999" y="815"/>
      <point x="1137" y="815" type="curve" smooth="yes"/>
      <point x="1220" y="815"/>
      <point x="1271" y="772"/>
      <point x="1271" y="666" type="curve" smooth="yes"/>
      <point x="1271" y="530"/>
      <point x="1186" y="367"/>
      <point x="1057" y="293" type="curve"/>
      <point x="1099" y="242"/>
      <point x="1155" y="220"/>
      <point x="1195" y="220" type="curve" smooth="yes"/>
      <point x="1296" y="220"/>
      <point x="1396" y="360"/>
      <point x="1396" y="559" type="curve" smooth="yes"/>
      <point x="1396" y="812"/>
      <point x="1235" y="942"/>
      <point x="1065" y="942" type="curve" smooth="yes"/>
      <point x="983" y="942"/>
      <point x="907" y="911"/>
      <point x="854" y="855" type="curve"/>
      <point x="844" y="859" type="line"/>
      <point x="844" y="1197" type="line"/>
    </contour>
    <contour>
      <point x="289" y="1197" type="line"/>
      <point x="684" y="1197" type="line"/>
      <point x="684" y="720" type="line" smooth="yes"/>
      <point x="684" y="588"/>
      <point x="558" y="483"/>
      <point x="435" y="483" type="curve" smooth="yes"/>
      <point x="342" y="483"/>
      <point x="289" y="543"/>
      <point x="289" y="660" type="curve" smooth="yes"/>
    </contour>
  </outline>
</glyph>
<glyph name="badeva" format="1">
  <advance width="1160"/>
  <unicode hex="092C"/>
  <outline>
    <contour>
      <point x="1210" y="1197" type="line"/>
      <point x="1216" y="1206" type="line"/>
      <point x="1160" y="1330" type="line"/>
      <point x="-50" y="1330" type="line"/>
      <point x="-56" y="1321" type="line"/>
      <point x="0" y="1197" type="line"/>
      <point x="793" y="1197" type="line"/>
      <point x="793" y="865" type="line"/>
      <point x="783" y="861" type="line"/>
      <point x="689" y="964"/>
      <point x="560" y="1007"/>
      <point x="447" y="1007" type="curve" smooth="yes"/>
      <point x="237" y="1007"/>
      <point x="79" y="860"/>
      <point x="79" y="666" type="curve" smooth="yes"/>
      <point x="79" y="421"/>
      <point x="330" y="219"/>
      <point x="550" y="219" type="curve" smooth="yes"/>
      <point x="621" y="219"/>
      <point x="711" y="240"/>
      <point x="783" y="291" type="curve"/>
      <point x="793" y="287" type="line"/>
      <point x="793" y="19" type="line"/>
      <point x="944" y="-19" type="line"/>
      <point x="953" y="-12" type="line"/>
      <point x="953" y="1197" type="line"/>
    </contour>
    <contour>
      <point x="793" y="618" type="line" smooth="yes"/>
      <point x="793" y="549"/>
      <point x="762" y="488"/>
      <point x="714" y="442" type="curve"/>
      <point x="393" y="832" type="line"/>
      <point x="395" y="840" type="line"/>
      <point x="432" y="855"/>
      <point x="474" y="863"/>
      <point x="520" y="863" type="curve" smooth="yes"/>
      <point x="674" y="863"/>
      <point x="793" y="773"/>
      <point x="793" y="652" type="curve" smooth="yes"/>
    </contour>
    <contour>
      <point x="330" y="350"/>
      <point x="228" y="457"/>
      <point x="228" y="597" type="curve" smooth="yes"/>
      <point x="228" y="666"/>
      <point x="253" y="727"/>
      <point x="296" y="774" type="curve"/>
      <point x="619" y="387" type="line"/>
      <point x="617" y="379" type="line"/>
      <point x="575" y="360"/>
      <point x="528" y="350"/>
      <point x="481" y="350" type="curve" smooth="yes"/>
    </contour>
  </outline>
</glyph>
<glyph name="bhadeva" format="1">
  <advance width="1433"/>
  <unicode hex="092D"/>
  <outline>
    <contour>
      <point x="118" y="1058"/>
      <point x="252" y="934"/>
      <point x="370" y="934" type="curve" smooth="yes"/>
      <point x="410" y="934"/>
      <point x="430" y="948"/>
      <point x="439" y="963" type="curve"/>
      <point x="315" y="1012"/>
      <point x="268" y="1079"/>
      <point x="268" y="1148" type="curve" smooth="yes"/>
      <point x="268" y="1217"/>
      <point x="313" y="1260"/>
      <point x="381" y="1260" type="curve" smooth="yes"/>
      <point x="456" y="1260"/>
      <point x="497" y="1207"/>
      <point x="497" y="1069" type="curve" smooth="yes"/>
      <point x="497" y="662" type="line"/>
      <point x="421" y="659"/>
      <point x="352" y="641"/>
      <point x="352" y="573" type="curve" smooth="yes"/>
      <point x="352" y="464"/>
      <point x="524" y="294"/>
      <point x="600" y="294" type="curve" smooth="yes"/>
      <point x="628" y="294"/>
      <point x="655" y="317"/>
      <point x="655" y="373" type="curve" smooth="yes"/>
      <point x="655" y="518" type="line"/>
      <point x="1066" y="518" type="line"/>
      <point x="1066" y="19" type="line"/>
      <point x="1217" y="-19" type="line"/>
      <point x="1226" y="-12" type="line"/>
      <point x="1226" y="1197" type="line"/>
      <point x="1483" y="1197" type="line"/>
      <point x="1489" y="1206" type="line"/>
      <point x="1433" y="1330" type="line"/>
      <point x="734" y="1330" type="line"/>
      <point x="728" y="1321" type="line"/>
      <point x="784" y="1197" type="line"/>
      <point x="1066" y="1197" type="line"/>
      <point x="1066" y="663" type="line"/>
      <point x="655" y="663" type="line"/>
      <point x="655" y="973" type="line" smooth="yes"/>
      <point x="655" y="1206"/>
      <point x="495" y="1387"/>
      <point x="316" y="1387" type="curve" smooth="yes"/>
      <point x="196" y="1387"/>
      <point x="118" y="1304"/>
      <point x="118" y="1198" type="curve" smooth="yes"/>
    </contour>
  </outline>
</glyph>
<glyph name="madeva" format="1">
  <advance width="1196"/>
  <unicode hex="092E"/>
  <outline>
    <contour>
      <point x="1246" y="1197" type="line"/>
      <point x="1252" y="1206" type="line"/>
      <point x="1196" y="1330" type="line"/>
      <point x="-50" y="1330" type="line"/>
      <point x="-56" y="1321" type="line"/>
      <point x="0" y="1197" type="line"/>
      <point x="210" y="1197" type="line"/>
      <point x="210" y="652" type="line"/>
      <point x="99" y="649"/>
      <point x="65" y="609"/>
      <point x="65" y="562" type="curve" smooth="yes"/>
      <point x="65" y="455"/>
      <point x="237" y="284"/>
      <point x="313" y="284" type="curve" smooth="yes"/>
      <point x="341" y="284"/>
      <point x="368" y="307"/>
      <point x="368" y="363" type="curve" smooth="yes"/>
      <point x="368" y="508" type="line"/>
      <point x="829" y="508" type="line"/>
      <point x="829" y="19" type="line"/>
      <point x="980" y="-19" type="line"/>
      <point x="989" y="-12" type="line"/>
      <point x="989" y="1197" type="line"/>
    </contour>
    <contour>
      <point x="368" y="653" type="line"/>
      <point x="368" y="1197" type="line"/>
      <point x="829" y="1197" type="line"/>
      <point x="829" y="653" type="line"/>
    </contour>
  </outline>
</glyph>
<glyph name="radeva" format="1">
  <advance width="866"/>
  <unicode hex="0930"/>
  <outline>
    <contour>
      <point x="916" y="1197" type="line"/>
      <point x="922" y="1206" type="line"/>
      <point x="866" y="1330" type="line"/>
      <point x="-50" y="1330" type="line"/>
      <point x="-56" y="1321" type="line"/>
      <point x="0" y="1197" type="line"/>
      <point x="452" y="1197" type="line"/>
      <point x="494" y="1104"/>
      <point x="513" y="1010"/>
      <point x="513" y="935" type="curve" smooth="yes"/>
      <point x="513" y="835"/>
      <point x="479" y="767"/>
      <point x="397" y="723" type="curve"/>
      <point x="328" y="762"/>
      <point x="262" y="779"/>
      <point x="213" y="779" type="curve" smooth="yes"/>
      <point x="125" y="779"/>
      <point x="78" y="723"/>
      <point x="78" y="653" type="curve" smooth="yes"/>
      <point x="78" y="452"/>
      <point x="461" y="-2"/>
      <point x="639" y="-2" type="curve" smooth="yes"/>
      <point x="681" y="-2"/>
      <point x="723" y="24"/>
      <point x="733" y="66" type="curve"/>
      <point x="528" y="171"/>
      <point x="380" y="292"/>
      <point x="255" y="484" type="curve"/>
      <point x="550" y="536"/>
      <point x="647" y="688"/>
      <point x="647" y="861" type="curve" smooth="yes"/>
      <point x="647" y="967"/>
      <point x="610" y="1085"/>
      <point x="564" y="1188" type="curve"/>
      <point x="571" y="1197" type="line"/>
    </contour>
  </outline>
</glyph>
<glyph name="rradeva" format="1">
  <advance width="866"/>
  <unicode hex="0931"/>
  <outline>
    <contour>
      <point x="916" y="1197" type="line"/>
      <point x="922" y="1206" type="line"/>
      <point x="866" y="1330" type="line"/>
      <point x="-50" y="1330" type="line"/>
      <point x="-56" y="1321" type="line"/>
      <point x="0" y="1197" type="line"/>
      <point x="462" y="1197" type="line"/>
      <point x="497" y="1104"/>
      <point x="513" y="1009"/>
      <point x="513" y="938" type="curve" smooth="yes"/>
      <point x="513" y="834"/>
      <point x="479" y="767"/>
      <point x="397" y="723" type="curve"/>
      <point x="328" y="762"/>
      <point x="262" y="779"/>
      <point x="213" y="779" type="curve" smooth="yes"/>
      <point x="125" y="779"/>
      <point x="78" y="723"/>
      <point x="78" y="653" type="curve" smooth="yes"/>
      <point x="78" y="452"/>
      <point x="461" y="-2"/>
      <point x="639" y="-2" type="curve" smooth="yes"/>
      <point x="681" y="-2"/>
      <point x="723" y="24"/>
      <point x="733" y="66" type="curve"/>
      <point x="530" y="170"/>
      <point x="383" y="289"/>
      <point x="259" y="478" type="curve"/>
      <point x="263" y="485" type="line"/>
      <point x="552" y="539"/>
      <point x="647" y="690"/>
      <point x="647" y="861" type="curve" smooth="yes"/>
      <point x="647" y="967"/>
      <point x="610" y="1085"/>
      <point x="564" y="1188" type="curve"/>
      <point x="571" y="1197" type="line"/>
    </contour>
    <contour>
      <point x="119" y="172"/>
      <point x="76" y="129"/>
      <point x="76" y="77" type="curve" smooth="yes"/>
      <point x="76" y="24"/>
      <point x="119" y="-19"/>
      <point x="172" y="-19" type="curve" smooth="yes"/>
      <point x="224" y="-19"/>
      <point x="267" y="24"/>
      <point x="267" y="77" type="curve" smooth="yes"/>
      <point x="267" y="129"/>
      <point x="224" y="172"/>
      <point x="172" y="172" type="curve" smooth="yes"/>
    </contour>
  </outline>
</glyph>
<glyph name="ladeva" format="1">
  <advance width="1411"/>
  <unicode hex="0932"/>
  <outline>
    <contour>
      <point x="1461" y="1197" type="line"/>
      <point x="1467" y="1206" type="line"/>
      <point x="1411" y="1330" type="line"/>
      <point x="-50" y="1330" type="line"/>
      <point x="-56" y="1321" type="line"/>
      <point x="0" y="1197" type="line"/>
      <point x="1044" y="1197" type="line"/>
      <point x="1044" y="928" type="line"/>
      <point x="902" y="916"/>
      <point x="783" y="860"/>
      <point x="696" y="769" type="curve"/>
      <point x="581" y="901"/>
      <point x="482" y="946"/>
      <point x="379" y="946" type="curve" smooth="yes"/>
      <point x="213" y="946"/>
      <point x="111" y="829"/>
      <point x="111" y="656" type="curve" smooth="yes"/>
      <point x="111" y="337"/>
      <point x="455" y="-18"/>
      <point x="573" y="-18" type="curve" smooth="yes"/>
      <point x="599" y="-18"/>
      <point x="622" y="-1"/>
      <point x="631" y="24" type="curve"/>
      <point x="402" y="189"/>
      <point x="268" y="423"/>
      <point x="268" y="591" type="curve" smooth="yes"/>
      <point x="268" y="713"/>
      <point x="339" y="798"/>
      <point x="444" y="798" type="curve" smooth="yes"/>
      <point x="508" y="798"/>
      <point x="572" y="767"/>
      <point x="639" y="698" type="curve"/>
      <point x="606" y="649"/>
      <point x="581" y="594"/>
      <point x="563" y="532" type="curve"/>
      <point x="705" y="437" type="line"/>
      <point x="716" y="441" type="line"/>
      <point x="767" y="632"/>
      <point x="863" y="745"/>
      <point x="1035" y="790" type="curve"/>
      <point x="1044" y="783" type="line"/>
      <point x="1044" y="19" type="line"/>
      <point x="1195" y="-19" type="line"/>
      <point x="1204" y="-12" type="line"/>
      <point x="1204" y="1197" type="line"/>
    </contour>
  </outline>
</glyph>
<glyph name="lladeva" format="1">
  <advance width="1431"/>
  <unicode hex="0933"/>
  <outline>
    <contour>
      <point x="1481" y="1197" type="line"/>
      <point x="1487" y="1206" type="line"/>
      <point x="1431" y="1330" type="line"/>
      <point x="-50" y="1330" type="line"/>
      <point x="-56" y="1321" type="line"/>
      <point x="0" y="1197" type="line"/>
      <point x="924" y="1197" type="line"/>
      <point x="924" y="894" type="line"/>
      <point x="848" y="876"/>
      <point x="795" y="820"/>
      <point x="736" y="724" type="curve"/>
      <point x="606" y="850"/>
      <point x="491" y="910"/>
      <point x="371" y="910" type="curve" smooth="yes"/>
      <point x="188" y="910"/>
      <point x="56" y="771"/>
      <point x="56" y="587" type="curve" smooth="yes"/>
      <point x="56" y="360"/>
      <point x="255" y="157"/>
      <point x="457" y="157" type="curve" smooth="yes"/>
      <point x="586" y="157"/>
      <point x="656" y="240"/>
      <point x="723" y="361" type="curve"/>
      <point x="850" y="216"/>
      <point x="962" y="147"/>
      <point x="1083" y="147" type="curve" smooth="yes"/>
      <point x="1255" y="147"/>
      <point x="1385" y="286"/>
      <point x="1385" y="470" type="curve" smooth="yes"/>
      <point x="1385" y="663"/>
      <point x="1242" y="838"/>
      <point x="1074" y="887" type="curve"/>
      <point x="1074" y="1197" type="line"/>
    </contour>
    <contour>
      <point x="525" y="769"/>
      <point x="609" y="726"/>
      <point x="689" y="641" type="curve"/>
      <point x="660" y="587" type="line" smooth="yes"/>
      <point x="552" y="381"/>
      <point x="503" y="288"/>
      <point x="390" y="288" type="curve" smooth="yes"/>
      <point x="277" y="288"/>
      <point x="200" y="381"/>
      <point x="200" y="511" type="curve" smooth="yes"/>
      <point x="200" y="654"/>
      <point x="293" y="769"/>
      <point x="437" y="769" type="curve" smooth="yes"/>
    </contour>
    <contour>
      <point x="1167" y="769"/>
      <point x="1241" y="676"/>
      <point x="1241" y="547" type="curve" smooth="yes"/>
      <point x="1241" y="403"/>
      <point x="1150" y="288"/>
      <point x="1017" y="288" type="curve" smooth="yes"/>
      <point x="930" y="288"/>
      <point x="850" y="338"/>
      <point x="769" y="449" type="curve"/>
      <point x="782" y="475" type="line" smooth="yes"/>
      <point x="905" y="720"/>
      <point x="961" y="769"/>
      <point x="1048" y="769" type="curve" smooth="yes"/>
    </contour>
  </outline>
</glyph>
<glyph name="vadeva" format="1">
  <advance width="1160"/>
  <unicode hex="0935"/>
  <outline>
    <contour>
      <point x="1210" y="1197" type="line"/>
      <point x="1216" y="1206" type="line"/>
      <point x="1160" y="1330" type="line"/>
      <point x="-50" y="1330" type="line"/>
      <point x="-56" y="1321" type="line"/>
      <point x="0" y="1197" type="line"/>
      <point x="793" y="1197" type="line"/>
      <point x="793" y="875" type="line"/>
      <point x="783" y="871" type="line"/>
      <point x="689" y="967"/>
      <point x="559" y="1007"/>
      <point x="448" y="1007" type="curve" smooth="yes"/>
      <point x="236" y="1007"/>
      <point x="79" y="860"/>
      <point x="79" y="666" type="curve" smooth="yes"/>
      <point x="79" y="421"/>
      <point x="330" y="219"/>
      <point x="550" y="219" type="curve" smooth="yes"/>
      <point x="621" y="219"/>
      <point x="711" y="240"/>
      <point x="783" y="291" type="curve"/>
      <point x="793" y="287" type="line"/>
      <point x="793" y="19" type="line"/>
      <point x="944" y="-19" type="line"/>
      <point x="953" y="-12" type="line"/>
      <point x="953" y="1197" type="line"/>
    </contour>
    <contour>
      <point x="674" y="863"/>
      <point x="793" y="769"/>
      <point x="793" y="642" type="curve" smooth="yes"/>
      <point x="793" y="618" type="line" smooth="yes"/>
      <point x="793" y="464"/>
      <point x="637" y="358"/>
      <point x="481" y="358" type="curve" smooth="yes"/>
      <point x="330" y="358"/>
      <point x="228" y="457"/>
      <point x="228" y="597" type="curve" smooth="yes"/>
      <point x="228" y="747"/>
      <point x="346" y="863"/>
      <point x="519" y="863" type="curve" smooth="yes"/>
    </contour>
  </outline>
</glyph>
<glyph name="shadeva" format="1">
  <advance width="1491"/>
  <unicode hex="0936"/>
  <outline>
    <contour>
      <point x="741" y="469"/>
      <point x="845" y="720"/>
      <point x="845" y="904" type="curve" smooth="yes"/>
      <point x="845" y="1017"/>
      <point x="806" y="1112"/>
      <point x="740" y="1187" type="curve"/>
      <point x="744" y="1197" type="line"/>
      <point x="1124" y="1197" type="line"/>
      <point x="1124" y="19" type="line"/>
      <point x="1275" y="-19" type="line"/>
      <point x="1284" y="-12" type="line"/>
      <point x="1284" y="1197" type="line"/>
      <point x="1541" y="1197" type="line"/>
      <point x="1547" y="1206" type="line"/>
      <point x="1491" y="1330" type="line"/>
      <point x="-50" y="1330" type="line"/>
      <point x="-56" y="1321" type="line"/>
      <point x="0" y="1197" type="line"/>
      <point x="259" y="1197" type="line"/>
      <point x="245" y="1166"/>
      <point x="238" y="1130"/>
      <point x="238" y="1088" type="curve" smooth="yes"/>
      <point x="238" y="924"/>
      <point x="346" y="790"/>
      <point x="593" y="680" type="curve"/>
      <point x="595" y="672" type="line"/>
      <point x="545" y="609"/>
      <point x="480" y="555"/>
      <point x="398" y="517" type="curve"/>
      <point x="345" y="605"/>
      <point x="275" y="645"/>
      <point x="208" y="645" type="curve" smooth="yes"/>
      <point x="138" y="645"/>
      <point x="86" y="600"/>
      <point x="86" y="531" type="curve" smooth="yes"/>
      <point x="86" y="431"/>
      <point x="196" y="339"/>
      <point x="368" y="336" type="curve"/>
      <point x="505" y="50"/>
      <point x="655" y="-25"/>
      <point x="770" y="-25" type="curve" smooth="yes"/>
      <point x="864" y="-25"/>
      <point x="915" y="26"/>
      <point x="915" y="90" type="curve" smooth="yes"/>
      <point x="915" y="112"/>
      <point x="909" y="140"/>
      <point x="893" y="171" type="curve"/>
      <point x="848" y="149"/>
      <point x="805" y="135"/>
      <point x="748" y="135" type="curve" smooth="yes"/>
      <point x="640" y="135"/>
      <point x="539" y="185"/>
      <point x="460" y="355" type="curve"/>
    </contour>
    <contour>
      <point x="635" y="1205"/>
      <point x="705" y="1135"/>
      <point x="705" y="986" type="curve" smooth="yes"/>
      <point x="705" y="906"/>
      <point x="685" y="826"/>
      <point x="647" y="752" type="curve"/>
      <point x="463" y="845"/>
      <point x="388" y="936"/>
      <point x="388" y="1048" type="curve" smooth="yes"/>
      <point x="388" y="1137"/>
      <point x="435" y="1205"/>
      <point x="534" y="1205" type="curve" smooth="yes"/>
    </contour>
  </outline>
</glyph>
<glyph name="ssadeva" format="1">
  <advance width="1112"/>
  <unicode hex="0937"/>
  <outline>
    <contour>
      <point x="1162" y="1197" type="line"/>
      <point x="1168" y="1206" type="line"/>
      <point x="1112" y="1330" type="line"/>
      <point x="-50" y="1330" type="line"/>
      <point x="-56" y="1321" type="line"/>
      <point x="0" y="1197" type="line"/>
      <point x="129" y="1197" type="line"/>
      <point x="129" y="755" type="line" smooth="yes"/>
      <point x="129" y="536"/>
      <point x="320" y="351"/>
      <point x="522" y="351" type="curve" smooth="yes"/>
      <point x="594" y="351"/>
      <point x="671" y="374"/>
      <point x="734" y="416" type="curve"/>
      <point x="744" y="411" type="line"/>
      <point x="744" y="19" type="line"/>
      <point x="895" y="-19" type="line"/>
      <point x="904" y="-12" type="line"/>
      <point x="904" y="1197" type="line"/>
    </contour>
    <contour>
      <point x="314" y="1197" type="line"/>
      <point x="744" y="1197" type="line"/>
      <point x="744" y="750" type="line" smooth="yes"/>
      <point x="744" y="711"/>
      <point x="735" y="673"/>
      <point x="720" y="640" type="curve"/>
    </contour>
    <contour>
      <point x="355" y="473"/>
      <point x="289" y="541"/>
      <point x="289" y="670" type="curve" smooth="yes"/>
      <point x="289" y="1063" type="line"/>
      <point x="659" y="555" type="line"/>
      <point x="606" y="504"/>
      <point x="534" y="473"/>
      <point x="462" y="473" type="curve" smooth="yes"/>
    </contour>
  </outline>
</glyph>
<glyph name="sadeva" format="1">
  <advance width="1360"/>
  <unicode hex="0938"/>
  <outline>
    <contour>
      <point x="1410" y="1197" type="line"/>
      <point x="1416" y="1206" type="line"/>
      <point x="1360" y="1330" type="line"/>
      <point x="-50" y="1330" type="line"/>
      <point x="-56" y="1321" type="line"/>
      <point x="0" y="1197" type="line"/>
      <point x="404" y="1197" type="line"/>
      <point x="444" y="1105"/>
      <point x="463" y="1011"/>
      <point x="463" y="932" type="curve" smooth="yes"/>
      <point x="463" y="840"/>
      <point x="437" y="777"/>
      <point x="377" y="733" type="curve"/>
      <point x="316" y="765"/>
      <point x="257" y="779"/>
      <point x="213" y="779" type="curve" smooth="yes"/>
      <point x="125" y="779"/>
      <point x="78" y="723"/>
      <point x="78" y="653" type="curve" smooth="yes"/>
      <point x="78" y="452"/>
      <point x="461" y="-2"/>
      <point x="639" y="-2" type="curve" smooth="yes"/>
      <point x="681" y="-2"/>
      <point x="723" y="24"/>
      <point x="733" y="66" type="curve"/>
      <point x="530" y="171"/>
      <point x="383" y="290"/>
      <point x="258" y="479" type="curve"/>
      <point x="261" y="487" type="line"/>
      <point x="360" y="508"/>
      <point x="433" y="544"/>
      <point x="486" y="591" type="curve"/>
      <point x="595" y="540"/>
      <point x="718" y="503"/>
      <point x="823" y="503" type="curve" smooth="yes"/>
      <point x="878" y="503"/>
      <point x="932" y="513"/>
      <point x="983" y="538" type="curve"/>
      <point x="992" y="532" type="line"/>
      <point x="992" y="19" type="line"/>
      <point x="1143" y="-19" type="line"/>
      <point x="1152" y="-12" type="line"/>
      <point x="1152" y="1197" type="line"/>
    </contour>
    <contour>
      <point x="514" y="1197" type="line"/>
      <point x="992" y="1197" type="line"/>
      <point x="992" y="830" type="line" smooth="yes"/>
      <point x="990" y="711"/>
      <point x="887" y="626"/>
      <point x="742" y="626" type="curve" smooth="yes"/>
      <point x="689" y="626"/>
      <point x="619" y="637"/>
      <point x="552" y="660" type="curve"/>
      <point x="549" y="668" type="line"/>
      <point x="583" y="724"/>
      <point x="597" y="788"/>
      <point x="597" y="856" type="curve" smooth="yes"/>
      <point x="597" y="968"/>
      <point x="558" y="1083"/>
      <point x="508" y="1188" type="curve"/>
    </contour>
  </outline>
</glyph>
<glyph name="hadeva" format="1">
  <advance width="1006"/>
  <unicode hex="0939"/>
  <outline>
    <contour>
      <point x="1056" y="1197" type="line"/>
      <point x="1062" y="1206" type="line"/>
      <point x="1006" y="1330" type="line"/>
      <point x="-50" y="1330" type="line"/>
      <point x="-56" y="1321" type="line"/>
      <point x="0" y="1197" type="line"/>
      <point x="648" y="1197" type="line"/>
      <point x="648" y="1024" type="line" smooth="yes"/>
      <point x="648" y="1019"/>
      <point x="645" y="1016"/>
      <point x="640" y="1016" type="curve" smooth="yes"/>
      <point x="297" y="1016" type="line" smooth="yes"/>
      <point x="159" y="1016"/>
      <point x="94" y="938"/>
      <point x="94" y="840" type="curve" smooth="yes"/>
      <point x="94" y="756"/>
      <point x="142" y="654"/>
      <point x="235" y="579" type="curve"/>
      <point x="185" y="523"/>
      <point x="153" y="445"/>
      <point x="153" y="356" type="curve" smooth="yes"/>
      <point x="153" y="101"/>
      <point x="413" y="-117"/>
      <point x="706" y="-117" type="curve" smooth="yes"/>
      <point x="818" y="-117"/>
      <point x="858" y="-85"/>
      <point x="858" y="-32" type="curve"/>
      <point x="503" y="-32"/>
      <point x="303" y="119"/>
      <point x="303" y="304" type="curve" smooth="yes"/>
      <point x="303" y="444"/>
      <point x="418" y="556"/>
      <point x="597" y="556" type="curve" smooth="yes"/>
      <point x="710" y="556"/>
      <point x="788" y="511"/>
      <point x="788" y="431" type="curve" smooth="yes"/>
      <point x="788" y="366"/>
      <point x="737" y="307"/>
      <point x="628" y="258" type="curve"/>
      <point x="668" y="203"/>
      <point x="708" y="185"/>
      <point x="750" y="185" type="curve" smooth="yes"/>
      <point x="829" y="185"/>
      <point x="898" y="251"/>
      <point x="898" y="364" type="curve" smooth="yes"/>
      <point x="898" y="537"/>
      <point x="738" y="699"/>
      <point x="526" y="699" type="curve" smooth="yes"/>
      <point x="451" y="699"/>
      <point x="369" y="679"/>
      <point x="304" y="637" type="curve"/>
      <point x="263" y="673"/>
      <point x="239" y="715"/>
      <point x="239" y="760" type="curve" smooth="yes"/>
      <point x="239" y="817"/>
      <point x="277" y="875"/>
      <point x="379" y="875" type="curve" smooth="yes"/>
      <point x="794" y="875" type="line"/>
      <point x="802" y="883" type="line"/>
      <point x="802" y="1197" type="line"/>
    </contour>
  </outline>
</glyph>
<glyph name="oesigndeva" format="1">
  <advance width="0"/>
  <unicode hex="093A"/>
  <outline>
    <contour>
      <point x="-215" y="1258" type="line"/>
      <point x="-215" y="1587" type="line"/>
      <point x="-349" y="1615" type="line"/>
      <point x="-358" y="1608" type="line"/>
      <point x="-358" y="1279" type="line"/>
      <point x="-224" y="1251" type="line"/>
    </contour>
    <contour>
      <point x="-133" y="666" type="move" name="_class0"/>
    </contour>
  </outline>
</glyph>
<glyph name="ooesigndeva" format="1">
  <advance width="573"/>
  <unicode hex="093B"/>
  <outline>
    <contour>
      <point x="573" y="1330" type="line"/>
      <point x="358" y="1330" type="line"/>
      <point x="358" y="1587" type="line"/>
      <point x="224" y="1615" type="line"/>
      <point x="215" y="1608" type="line"/>
      <point x="215" y="1330" type="line"/>
      <point x="-50" y="1330" type="line"/>
      <point x="-56" y="1321" type="line"/>
      <point x="0" y="1197" type="line"/>
      <point x="206" y="1197" type="line"/>
      <point x="206" y="19" type="line"/>
      <point x="357" y="-19" type="line"/>
      <point x="366" y="-12" type="line"/>
      <point x="366" y="1197" type="line"/>
      <point x="623" y="1197" type="line"/>
      <point x="629" y="1206" type="line"/>
    </contour>
  </outline>
</glyph>
<glyph name="nuktadeva" format="1">
  <advance width="0"/>
  <unicode hex="093C"/>
  <outline>
    <contour>
      <point x="-741" y="172"/>
      <point x="-784" y="129"/>
      <point x="-784" y="77" type="curve" smooth="yes"/>
      <point x="-784" y="24"/>
      <point x="-741" y="-19"/>
      <point x="-688" y="-19" type="curve" smooth="yes"/>
      <point x="-636" y="-19"/>
      <point x="-593" y="24"/>
      <point x="-593" y="77" type="curve" smooth="yes"/>
      <point x="-593" y="129"/>
      <point x="-636" y="172"/>
      <point x="-688" y="172" type="curve" smooth="yes"/>
    </contour>
  </outline>
</glyph>
<glyph name="avagrahadeva" format="1">
  <advance width="979"/>
  <unicode hex="093D"/>
  <outline>
    <contour>
      <point x="846" y="1206" type="line"/>
      <point x="790" y="1330" type="line"/>
      <point x="435" y="1330" type="line" smooth="yes"/>
      <point x="260" y="1330"/>
      <point x="143" y="1253"/>
      <point x="143" y="1111" type="curve" smooth="yes"/>
      <point x="143" y="1040"/>
      <point x="172" y="985"/>
      <point x="202" y="943" type="curve" smooth="yes"/>
      <point x="396" y="668"/>
      <point x="764" y="691"/>
      <point x="764" y="461" type="curve" smooth="yes"/>
      <point x="764" y="343"/>
      <point x="668" y="255"/>
      <point x="530" y="255" type="curve" smooth="yes"/>
      <point x="379" y="255"/>
      <point x="239" y="359"/>
      <point x="204" y="616" type="curve"/>
      <point x="140" y="605"/>
      <point x="130" y="559"/>
      <point x="130" y="518" type="curve" smooth="yes"/>
      <point x="130" y="352"/>
      <point x="300" y="99"/>
      <point x="576" y="99" type="curve" smooth="yes"/>
      <point x="770" y="99"/>
      <point x="879" y="225"/>
      <point x="879" y="394" type="curve" smooth="yes"/>
      <point x="879" y="468"/>
      <point x="858" y="539"/>
      <point x="814" y="606" type="curve" smooth="yes"/>
      <point x="654" y="848"/>
      <point x="285" y="861"/>
      <point x="285" y="1042" type="curve" smooth="yes"/>
      <point x="285" y="1124"/>
      <point x="362" y="1197"/>
      <point x="518" y="1197" type="curve" smooth="yes"/>
      <point x="840" y="1197" type="line"/>
    </contour>
  </outline>
</glyph>
<glyph name="isigndeva" format="1">
  <advance width="573"/>
  <unicode hex="093F"/>
  <outline>
    <contour>
      <point x="207" y="1906"/>
      <point x="63" y="1761"/>
      <point x="63" y="1581" type="curve" smooth="yes"/>
      <point x="63" y="1488"/>
      <point x="102" y="1406"/>
      <point x="164" y="1340" type="curve"/>
      <point x="160" y="1330" type="line"/>
      <point x="-50" y="1330" type="line"/>
      <point x="-56" y="1321" type="line"/>
      <point x="0" y="1197" type="line"/>
      <point x="206" y="1197" type="line"/>
      <point x="206" y="19" type="line"/>
      <point x="357" y="-19" type="line"/>
      <point x="366" y="-12" type="line"/>
      <point x="366" y="1197" type="line"/>
      <point x="623" y="1197" type="line"/>
      <point x="629" y="1206" type="line"/>
      <point x="573" y="1330" type="line"/>
      <point x="292" y="1330" type="line"/>
      <point x="230" y="1383"/>
      <point x="201" y="1445"/>
      <point x="201" y="1512" type="curve" smooth="yes"/>
      <point x="201" y="1647"/>
      <point x="319" y="1746"/>
      <point x="540" y="1746" type="curve" smooth="yes"/>
      <point x="842" y="1746"/>
      <point x="1171" y="1560"/>
      <point x="1369" y="1252" type="curve"/>
      <point x="1454" y="1305" type="line"/>
      <point x="1191" y="1702"/>
      <point x="824" y="1906"/>
      <point x="489" y="1906" type="curve" smooth="yes"/>
    </contour>
  </outline>
</glyph>
<glyph name="iisigndeva" format="1">
  <advance width="573"/>
  <unicode hex="0940"/>
  <outline>
    <contour>
      <point x="366" y="-12" type="line"/>
      <point x="366" y="1197" type="line"/>
      <point x="623" y="1197" type="line"/>
      <point x="629" y="1206" type="line"/>
      <point x="573" y="1330" type="line"/>
      <point x="329" y="1330" type="line"/>
      <point x="109" y="1788"/>
      <point x="-125" y="1910"/>
      <point x="-329" y="1910" type="curve" smooth="yes"/>
      <point x="-520" y="1910"/>
      <point x="-625" y="1803"/>
      <point x="-625" y="1660" type="curve" smooth="yes"/>
      <point x="-625" y="1555"/>
      <point x="-568" y="1429"/>
      <point x="-359" y="1299" type="curve"/>
      <point x="-223" y="1297" type="line"/>
      <point x="-385" y="1379"/>
      <point x="-464" y="1494"/>
      <point x="-464" y="1597" type="curve" smooth="yes"/>
      <point x="-464" y="1691"/>
      <point x="-398" y="1766"/>
      <point x="-267" y="1766" type="curve" smooth="yes"/>
      <point x="-119" y="1766"/>
      <point x="59" y="1669"/>
      <point x="230" y="1340" type="curve"/>
      <point x="224" y="1330" type="line"/>
      <point x="-50" y="1330" type="line"/>
      <point x="-56" y="1321" type="line"/>
      <point x="0" y="1197" type="line"/>
      <point x="206" y="1197" type="line"/>
      <point x="206" y="19" type="line"/>
      <point x="357" y="-19" type="line"/>
    </contour>
  </outline>
</glyph>
<glyph name="rvocalicsigndeva" format="1">
  <advance width="0"/>
  <unicode hex="0943"/>
  <outline>
    <contour>
      <point x="-207" y="-11" type="line"/>
      <point x="-316" y="98" type="line"/>
      <point x="-510" y="46"/>
      <point x="-588" y="-45"/>
      <point x="-588" y="-150" type="curve" smooth="yes"/>
      <point x="-588" y="-287"/>
      <point x="-455" y="-436"/>
      <point x="-262" y="-436" type="curve" smooth="yes"/>
      <point x="-141" y="-436"/>
      <point x="1" y="-378"/>
      <point x="1" y="-291" type="curve" smooth="yes"/>
      <point x="1" y="-246"/>
      <point x="-37" y="-201"/>
      <point x="-73" y="-189" type="curve"/>
      <point x="-133" y="-252"/>
      <point x="-250" y="-318"/>
      <point x="-345" y="-318" type="curve" smooth="yes"/>
      <point x="-434" y="-318"/>
      <point x="-469" y="-260"/>
      <point x="-469" y="-212" type="curve" smooth="yes"/>
      <point x="-469" y="-149"/>
      <point x="-409" y="-77"/>
      <point x="-207" y="-22" type="curve"/>
    </contour>
    <contour>
      <point x="-127" y="50" type="move" name="_class0"/>
    </contour>
  </outline>
</glyph>
<glyph name="ecandrasigndeva" format="1">
  <advance width="0"/>
  <unicode hex="0945"/>
  <outline>
    <contour>
      <point x="-640" y="1870"/>
      <point x="-655" y="1856"/>
      <point x="-655" y="1812" type="curve" smooth="yes"/>
      <point x="-655" y="1683"/>
      <point x="-524" y="1486"/>
      <point x="-319" y="1486" type="curve" smooth="yes"/>
      <point x="-139" y="1486"/>
      <point x="-12" y="1639"/>
      <point x="-12" y="1760" type="curve" smooth="yes"/>
      <point x="-12" y="1812"/>
      <point x="-35" y="1838"/>
      <point x="-102" y="1866" type="curve"/>
      <point x="-144" y="1696"/>
      <point x="-243" y="1619"/>
      <point x="-355" y="1619" type="curve" smooth="yes"/>
      <point x="-461" y="1619"/>
      <point x="-553" y="1689"/>
      <point x="-614" y="1884" type="curve"/>
    </contour>
    <contour>
      <point x="-127" y="666" type="move" name="_class0"/>
    </contour>
  </outline>
</glyph>
<glyph name="esigndeva" format="1">
  <advance width="0"/>
  <unicode hex="0947"/>
  <outline>
    <contour>
      <point x="-372" y="1330" type="line"/>
      <point x="-372" y="1272" type="line"/>
      <point x="-246" y="1272" type="line"/>
      <point x="-246" y="1330" type="line"/>
      <point x="-642" y="1842"/>
      <point x="-793" y="1922"/>
      <point x="-928" y="1922" type="curve" smooth="yes"/>
      <point x="-1047" y="1922"/>
      <point x="-1115" y="1859"/>
      <point x="-1115" y="1788" type="curve" smooth="yes"/>
      <point x="-1115" y="1732"/>
      <point x="-1074" y="1687"/>
      <point x="-1016" y="1668" type="curve"/>
      <point x="-983" y="1735"/>
      <point x="-933" y="1771"/>
      <point x="-859" y="1771" type="curve" smooth="yes"/>
      <point x="-754" y="1771"/>
      <point x="-654" y="1698"/>
      <point x="-369" y="1338" type="curve"/>
    </contour>
    <contour>
      <point x="-122" y="664" type="move" name="_class0"/>
    </contour>
  </outline>
</glyph>
<glyph name="aisigndeva" format="1">
  <advance width="0"/>
  <unicode hex="0948"/>
  <outline>
    <contour>
      <point x="-776" y="2022"/>
      <point x="-825" y="1962"/>
      <point x="-825" y="1905" type="curve" smooth="yes"/>
      <point x="-825" y="1853"/>
      <point x="-784" y="1820"/>
      <point x="-732" y="1801" type="curve"/>
      <point x="-705" y="1839"/>
      <point x="-670" y="1864"/>
      <point x="-622" y="1864" type="curve" smooth="yes"/>
      <point x="-554" y="1864"/>
      <point x="-491" y="1814"/>
      <point x="-368" y="1455" type="curve"/>
      <point x="-376" y="1449" type="line"/>
      <point x="-583" y="1614"/>
      <point x="-811" y="1732"/>
      <point x="-939" y="1732" type="curve" smooth="yes"/>
      <point x="-1027" y="1732"/>
      <point x="-1095" y="1677"/>
      <point x="-1095" y="1603" type="curve" smooth="yes"/>
      <point x="-1095" y="1551"/>
      <point x="-1061" y="1508"/>
      <point x="-983" y="1488" type="curve"/>
      <point x="-958" y="1550"/>
      <point x="-914" y="1589"/>
      <point x="-850" y="1589" type="curve" smooth="yes"/>
      <point x="-752" y="1589"/>
      <point x="-564" y="1497"/>
      <point x="-383" y="1338" type="curve"/>
      <point x="-386" y="1330" type="line"/>
      <point x="-386" y="1282" type="line"/>
      <point x="-233" y="1282" type="line"/>
      <point x="-233" y="1330" type="line"/>
      <point x="-407" y="1929"/>
      <point x="-556" y="2022"/>
      <point x="-678" y="2022" type="curve" smooth="yes"/>
    </contour>
    <contour>
      <point x="-135" y="664" type="move" name="_class0"/>
    </contour>
  </outline>
</glyph>
<glyph name="ocandrasigndeva" format="1">
  <advance width="483"/>
  <unicode hex="0949"/>
  <outline>
    <contour>
      <point x="-357" y="1871"/>
      <point x="-372" y="1852"/>
      <point x="-372" y="1817" type="curve" smooth="yes"/>
      <point x="-372" y="1679"/>
      <point x="-236" y="1486"/>
      <point x="-31" y="1486" type="curve" smooth="yes"/>
      <point x="133" y="1486"/>
      <point x="258" y="1609"/>
      <point x="258" y="1762" type="curve" smooth="yes"/>
      <point x="258" y="1824"/>
      <point x="226" y="1865"/>
      <point x="163" y="1886" type="curve"/>
      <point x="141" y="1699"/>
      <point x="48" y="1619"/>
      <point x="-69" y="1619" type="curve" smooth="yes"/>
      <point x="-179" y="1619"/>
      <point x="-270" y="1689"/>
      <point x="-331" y="1884" type="curve"/>
    </contour>
    <contour>
      <point x="276" y="-12" type="line"/>
      <point x="276" y="1197" type="line"/>
      <point x="533" y="1197" type="line"/>
      <point x="539" y="1206" type="line"/>
      <point x="483" y="1330" type="line"/>
      <point x="-140" y="1330" type="line"/>
      <point x="-146" y="1321" type="line"/>
      <point x="-90" y="1197" type="line"/>
      <point x="116" y="1197" type="line"/>
      <point x="116" y="19" type="line"/>
      <point x="267" y="-19" type="line"/>
    </contour>
  </outline>
</glyph>
<glyph name="oshortsigndeva" format="1">
  <advance width="573"/>
  <unicode hex="094A"/>
  <outline>
    <contour>
      <point x="623" y="1197" type="line"/>
      <point x="629" y="1206" type="line"/>
      <point x="573" y="1330" type="line"/>
      <point x="361" y="1330" type="line"/>
      <point x="311" y="1603"/>
      <point x="150" y="1702"/>
      <point x="-164" y="1731" type="curve" smooth="yes"/>
      <point x="-428" y="1760"/>
      <point x="-515" y="1818"/>
      <point x="-595" y="1956" type="curve"/>
      <point x="-606" y="1934"/>
      <point x="-613" y="1912"/>
      <point x="-613" y="1880" type="curve" smooth="yes"/>
      <point x="-613" y="1729"/>
      <point x="-468" y="1601"/>
      <point x="-58" y="1557" type="curve" smooth="yes"/>
      <point x="173" y="1535"/>
      <point x="239" y="1511"/>
      <point x="239" y="1413" type="curve" smooth="yes"/>
      <point x="239" y="1392"/>
      <point x="233" y="1362"/>
      <point x="221" y="1330" type="curve"/>
      <point x="-50" y="1330" type="line"/>
      <point x="-56" y="1321" type="line"/>
      <point x="0" y="1197" type="line"/>
      <point x="206" y="1197" type="line"/>
      <point x="206" y="19" type="line"/>
      <point x="357" y="-19" type="line"/>
      <point x="366" y="-12" type="line"/>
      <point x="366" y="1197" type="line"/>
    </contour>
  </outline>
</glyph>
<glyph name="osigndeva" format="1">
  <advance width="573"/>
  <unicode hex="094B"/>
  <outline>
    <contour>
      <point x="623" y="1197" type="line"/>
      <point x="629" y="1206" type="line"/>
      <point x="573" y="1330" type="line"/>
      <point x="330" y="1330" type="line"/>
      <point x="-66" y="1842"/>
      <point x="-217" y="1922"/>
      <point x="-352" y="1922" type="curve" smooth="yes"/>
      <point x="-471" y="1922"/>
      <point x="-539" y="1859"/>
      <point x="-539" y="1788" type="curve" smooth="yes"/>
      <point x="-539" y="1732"/>
      <point x="-498" y="1687"/>
      <point x="-440" y="1668" type="curve"/>
      <point x="-407" y="1735"/>
      <point x="-357" y="1771"/>
      <point x="-283" y="1771" type="curve" smooth="yes"/>
      <point x="-178" y="1771"/>
      <point x="-78" y="1698"/>
      <point x="207" y="1338" type="curve"/>
      <point x="204" y="1330" type="line"/>
      <point x="-50" y="1330" type="line"/>
      <point x="-56" y="1321" type="line"/>
      <point x="0" y="1197" type="line"/>
      <point x="206" y="1197" type="line"/>
      <point x="206" y="19" type="line"/>
      <point x="357" y="-19" type="line"/>
      <point x="366" y="-12" type="line"/>
      <point x="366" y="1197" type="line"/>
    </contour>
  </outline>
</glyph>
<glyph name="ausigndeva" format="1">
  <advance width="573"/>
  <unicode hex="094C"/>
  <outline>
    <contour>
      <point x="623" y="1197" type="line"/>
      <point x="629" y="1206" type="line"/>
      <point x="573" y="1330" type="line"/>
      <point x="350" y="1330" type="line"/>
      <point x="174" y="1937"/>
      <point x="27" y="2032"/>
      <point x="-96" y="2032" type="curve" smooth="yes"/>
      <point x="-193" y="2032"/>
      <point x="-242" y="1973"/>
      <point x="-242" y="1913" type="curve" smooth="yes"/>
      <point x="-242" y="1859"/>
      <point x="-201" y="1822"/>
      <point x="-149" y="1801" type="curve"/>
      <point x="-124" y="1837"/>
      <point x="-86" y="1864"/>
      <point x="-42" y="1864" type="curve" smooth="yes"/>
      <point x="29" y="1864"/>
      <point x="87" y="1821"/>
      <point x="217" y="1437" type="curve"/>
      <point x="12" y="1610"/>
      <point x="-221" y="1742"/>
      <point x="-359" y="1742" type="curve" smooth="yes"/>
      <point x="-442" y="1742"/>
      <point x="-516" y="1693"/>
      <point x="-516" y="1619" type="curve" smooth="yes"/>
      <point x="-516" y="1564"/>
      <point x="-477" y="1511"/>
      <point x="-400" y="1488" type="curve"/>
      <point x="-373" y="1548"/>
      <point x="-326" y="1587"/>
      <point x="-256" y="1587" type="curve" smooth="yes"/>
      <point x="-159" y="1587"/>
      <point x="29" y="1492"/>
      <point x="208" y="1330" type="curve"/>
      <point x="-50" y="1330" type="line"/>
      <point x="-56" y="1321" type="line"/>
      <point x="0" y="1197" type="line"/>
      <point x="206" y="1197" type="line"/>
      <point x="206" y="19" type="line"/>
      <point x="357" y="-19" type="line"/>
      <point x="366" y="-12" type="line"/>
      <point x="366" y="1197" type="line"/>
    </contour>
  </outline>
</glyph>
<glyph name="viramadeva" format="1">
  <advance width="0"/>
  <unicode hex="094D"/>
  <outline>
    <contour>
      <point x="-460" y="-92"/>
      <point x="-518" y="-127"/>
      <point x="-518" y="-175" type="curve" smooth="yes"/>
      <point x="-518" y="-213"/>
      <point x="-490" y="-246"/>
      <point x="-441" y="-278" type="curve"/>
      <point x="-407" y="-268"/>
      <point x="-358" y="-257"/>
      <point x="-301" y="-257" type="curve" smooth="yes"/>
      <point x="-187" y="-257"/>
      <point x="-48" y="-304"/>
      <point x="157" y="-539" type="curve"/>
      <point x="179" y="-530"/>
      <point x="188" y="-509"/>
      <point x="188" y="-496" type="curve" smooth="yes"/>
      <point x="188" y="-446"/>
      <point x="47" y="-269"/>
      <point x="-119" y="-171" type="curve" smooth="yes"/>
      <point x="-223" y="-107"/>
      <point x="-304" y="-92"/>
      <point x="-373" y="-92" type="curve" smooth="yes"/>
    </contour>
    <contour>
      <point x="-119" y="42" type="move" name="_class0"/>
    </contour>
  </outline>
</glyph>
<glyph name="eprishthamatrasigndeva" format="1">
  <advance width="573"/>
  <unicode hex="094E"/>
  <outline>
    <contour>
      <point x="366" y="-12" type="line"/>
      <point x="366" y="1197" type="line"/>
      <point x="623" y="1197" type="line"/>
      <point x="629" y="1206" type="line"/>
      <point x="573" y="1330" type="line"/>
      <point x="206" y="1330" type="line"/>
      <point x="206" y="19" type="line"/>
      <point x="357" y="-19" type="line"/>
    </contour>
  </outline>
</glyph>
<glyph name="awsigndeva" format="1">
  <advance width="573"/>
  <unicode hex="094F"/>
  <outline>
    <contour>
      <point x="623" y="1197" type="line"/>
      <point x="629" y="1206" type="line"/>
      <point x="573" y="1330" type="line"/>
      <point x="360" y="1330" type="line"/>
      <point x="337" y="1646"/>
      <point x="230" y="1792"/>
      <point x="-96" y="1859" type="curve" smooth="yes"/>
      <point x="-307" y="1907"/>
      <point x="-349" y="1937"/>
      <point x="-386" y="2033" type="curve"/>
      <point x="-401" y="2010"/>
      <point x="-409" y="1978"/>
      <point x="-409" y="1947" type="curve" smooth="yes"/>
      <point x="-409" y="1858"/>
      <point x="-340" y="1760"/>
      <point x="-46" y="1711" type="curve" smooth="yes"/>
      <point x="160" y="1676"/>
      <point x="251" y="1598"/>
      <point x="266" y="1473" type="curve"/>
      <point x="202" y="1573"/>
      <point x="62" y="1631"/>
      <point x="-194" y="1631" type="curve" smooth="yes"/>
      <point x="-456" y="1631"/>
      <point x="-551" y="1706"/>
      <point x="-625" y="1826" type="curve"/>
      <point x="-636" y="1804"/>
      <point x="-643" y="1782"/>
      <point x="-643" y="1750" type="curve" smooth="yes"/>
      <point x="-643" y="1629"/>
      <point x="-531" y="1487"/>
      <point x="-118" y="1487" type="curve" smooth="yes"/>
      <point x="166" y="1487"/>
      <point x="229" y="1456"/>
      <point x="229" y="1393" type="curve" smooth="yes"/>
      <point x="229" y="1377"/>
      <point x="226" y="1354"/>
      <point x="219" y="1330" type="curve"/>
      <point x="-50" y="1330" type="line"/>
      <point x="-56" y="1321" type="line"/>
      <point x="0" y="1197" type="line"/>
      <point x="206" y="1197" type="line"/>
      <point x="206" y="19" type="line"/>
      <point x="357" y="-19" type="line"/>
      <point x="366" y="-12" type="line"/>
      <point x="366" y="1197" type="line"/>
    </contour>
  </outline>
</glyph>
<glyph name="omdeva" format="1">
  <advance width="1728"/>
  <unicode hex="0950"/>
  <outline>
    <contour>
      <point x="1192" y="1389"/>
      <point x="1236" y="1433"/>
      <point x="1236" y="1487" type="curve" smooth="yes"/>
      <point x="1236" y="1540"/>
      <point x="1192" y="1584"/>
      <point x="1138" y="1584" type="curve" smooth="yes"/>
      <point x="1085" y="1584"/>
      <point x="1041" y="1540"/>
      <point x="1041" y="1487" type="curve" smooth="yes"/>
      <point x="1041" y="1433"/>
      <point x="1085" y="1389"/>
      <point x="1138" y="1389" type="curve" smooth="yes"/>
    </contour>
    <contour>
      <point x="1330" y="1116"/>
      <point x="1455" y="1239"/>
      <point x="1455" y="1392" type="curve" smooth="yes"/>
      <point x="1455" y="1454"/>
      <point x="1423" y="1495"/>
      <point x="1360" y="1516" type="curve"/>
      <point x="1338" y="1329"/>
      <point x="1245" y="1249"/>
      <point x="1128" y="1249" type="curve" smooth="yes"/>
      <point x="1018" y="1249"/>
      <point x="927" y="1319"/>
      <point x="866" y="1514" type="curve"/>
      <point x="840" y="1501"/>
      <point x="825" y="1482"/>
      <point x="825" y="1447" type="curve" smooth="yes"/>
      <point x="825" y="1309"/>
      <point x="961" y="1116"/>
      <point x="1166" y="1116" type="curve" smooth="yes"/>
    </contour>
    <contour>
      <point x="1194" y="963"/>
      <point x="1149" y="671"/>
      <point x="925" y="671" type="curve" smooth="yes"/>
      <point x="868" y="671"/>
      <point x="824" y="681"/>
      <point x="778" y="719" type="curve"/>
      <point x="849" y="775"/>
      <point x="892" y="853"/>
      <point x="892" y="960" type="curve" smooth="yes"/>
      <point x="892" y="1172"/>
      <point x="723" y="1325"/>
      <point x="483" y="1325" type="curve" smooth="yes"/>
      <point x="284" y="1325"/>
      <point x="177" y="1219"/>
      <point x="177" y="1118" type="curve" smooth="yes"/>
      <point x="177" y="1044"/>
      <point x="234" y="997"/>
      <point x="323" y="997" type="curve"/>
      <point x="323" y="1121"/>
      <point x="406" y="1214"/>
      <point x="548" y="1214" type="curve" smooth="yes"/>
      <point x="664" y="1214"/>
      <point x="746" y="1152"/>
      <point x="746" y="1027" type="curve" smooth="yes"/>
      <point x="746" y="877"/>
      <point x="629" y="784"/>
      <point x="358" y="769" type="curve"/>
      <point x="352" y="759" type="line"/>
      <point x="433" y="602" type="line"/>
      <point x="522" y="612"/>
      <point x="604" y="631"/>
      <point x="674" y="660" type="curve"/>
      <point x="749" y="615"/>
      <point x="797" y="530"/>
      <point x="797" y="438" type="curve" smooth="yes"/>
      <point x="797" y="307"/>
      <point x="700" y="214"/>
      <point x="548" y="214" type="curve" smooth="yes"/>
      <point x="349" y="214"/>
      <point x="187" y="375"/>
      <point x="124" y="746" type="curve"/>
      <point x="83" y="742"/>
      <point x="60" y="724"/>
      <point x="60" y="656" type="curve" smooth="yes"/>
      <point x="60" y="479"/>
      <point x="220" y="52"/>
      <point x="593" y="52" type="curve" smooth="yes"/>
      <point x="800" y="52"/>
      <point x="932" y="184"/>
      <point x="932" y="376" type="curve" smooth="yes"/>
      <point x="932" y="444"/>
      <point x="916" y="504"/>
      <point x="883" y="563" type="curve"/>
      <point x="925" y="541"/>
      <point x="966" y="530"/>
      <point x="1005" y="530" type="curve" smooth="yes"/>
      <point x="1058" y="530"/>
      <point x="1106" y="547"/>
      <point x="1149" y="573" type="curve"/>
      <point x="1212" y="472"/>
      <point x="1315" y="389"/>
      <point x="1437" y="389" type="curve" smooth="yes"/>
      <point x="1569" y="389"/>
      <point x="1678" y="486"/>
      <point x="1678" y="641" type="curve" smooth="yes"/>
      <point x="1678" y="824"/>
      <point x="1525" y="963"/>
      <point x="1390" y="963" type="curve" smooth="yes"/>
    </contour>
    <contour>
      <point x="1326" y="522"/>
      <point x="1266" y="552"/>
      <point x="1220" y="627" type="curve"/>
      <point x="1317" y="712"/>
      <point x="1391" y="823"/>
      <point x="1463" y="823" type="curve" smooth="yes"/>
      <point x="1499" y="823"/>
      <point x="1554" y="796"/>
      <point x="1554" y="710" type="curve" smooth="yes"/>
      <point x="1554" y="606"/>
      <point x="1474" y="522"/>
      <point x="1381" y="522" type="curve" smooth="yes"/>
    </contour>
  </outline>
</glyph>
<glyph name="anudattadeva" format="1">
  <advance width="0"/>
  <unicode hex="0952"/>
  <outline>
    <contour>
      <point x="-168" y="-293" type="line"/>
      <point x="-162" y="-284" type="line"/>
      <point x="-208" y="-180" type="line"/>
      <point x="-768" y="-180" type="line"/>
      <point x="-774" y="-189" type="line"/>
      <point x="-728" y="-293" type="line"/>
    </contour>
  </outline>
</glyph>
<glyph name="ecandralongsigndeva" format="1">
  <advance width="0"/>
  <unicode hex="0955"/>
  <outline>
    <contour>
      <point x="-610" y="2011"/>
      <point x="-625" y="1992"/>
      <point x="-625" y="1957" type="curve" smooth="yes"/>
      <point x="-625" y="1819"/>
      <point x="-489" y="1626"/>
      <point x="-284" y="1626" type="curve" smooth="yes"/>
      <point x="-120" y="1626"/>
      <point x="5" y="1749"/>
      <point x="5" y="1902" type="curve" smooth="yes"/>
      <point x="5" y="1964"/>
      <point x="-27" y="2005"/>
      <point x="-90" y="2026" type="curve"/>
      <point x="-112" y="1839"/>
      <point x="-205" y="1759"/>
      <point x="-322" y="1759" type="curve" smooth="yes"/>
      <point x="-432" y="1759"/>
      <point x="-523" y="1829"/>
      <point x="-584" y="2024" type="curve"/>
    </contour>
    <contour>
      <point x="32" y="1422" type="line"/>
      <point x="38" y="1431" type="line"/>
      <point x="1" y="1528" type="line"/>
      <point x="-609" y="1528" type="line"/>
      <point x="-614" y="1516" type="line"/>
      <point x="-578" y="1422" type="line"/>
    </contour>
    <contour>
      <point x="-120" y="666" type="move" name="_class0"/>
    </contour>
  </outline>
</glyph>
<glyph name="uesigndeva" format="1">
  <advance width="0"/>
  <unicode hex="0956"/>
  <outline>
    <contour>
      <point x="-1021" y="-115"/>
      <point x="-1028" y="-128"/>
      <point x="-1028" y="-152" type="curve" smooth="yes"/>
      <point x="-1028" y="-275"/>
      <point x="-835" y="-441"/>
      <point x="-576" y="-441" type="curve" smooth="yes"/>
      <point x="-357" y="-441"/>
      <point x="-200" y="-323"/>
      <point x="-200" y="-214" type="curve" smooth="yes"/>
      <point x="-200" y="-167"/>
      <point x="-230" y="-129"/>
      <point x="-283" y="-110" type="curve"/>
      <point x="-350" y="-238"/>
      <point x="-479" y="-311"/>
      <point x="-626" y="-311" type="curve" smooth="yes"/>
      <point x="-770" y="-311"/>
      <point x="-911" y="-241"/>
      <point x="-1012" y="-104" type="curve"/>
    </contour>
    <contour>
      <point x="-259" y="-1" type="move" name="_class0"/>
    </contour>
  </outline>
</glyph>
<glyph name="uuesigndeva" format="1">
  <advance width="0"/>
  <unicode hex="0957"/>
  <outline>
    <contour>
      <point x="-1021" y="-115"/>
      <point x="-1028" y="-128"/>
      <point x="-1028" y="-152" type="curve" smooth="yes"/>
      <point x="-1028" y="-275"/>
      <point x="-835" y="-441"/>
      <point x="-576" y="-441" type="curve" smooth="yes"/>
      <point x="-357" y="-441"/>
      <point x="-200" y="-323"/>
      <point x="-200" y="-214" type="curve" smooth="yes"/>
      <point x="-200" y="-167"/>
      <point x="-230" y="-129"/>
      <point x="-283" y="-110" type="curve"/>
      <point x="-350" y="-238"/>
      <point x="-479" y="-311"/>
      <point x="-626" y="-311" type="curve" smooth="yes"/>
      <point x="-770" y="-311"/>
      <point x="-911" y="-241"/>
      <point x="-1012" y="-104" type="curve"/>
    </contour>
    <contour>
      <point x="-330" y="-704"/>
      <point x="-200" y="-618"/>
      <point x="-200" y="-529" type="curve" smooth="yes"/>
      <point x="-200" y="-492"/>
      <point x="-218" y="-460"/>
      <point x="-255" y="-439" type="curve"/>
      <point x="-315" y="-520"/>
      <point x="-422" y="-573"/>
      <point x="-561" y="-573" type="curve" smooth="yes"/>
      <point x="-752" y="-573"/>
      <point x="-909" y="-490"/>
      <point x="-1012" y="-354" type="curve"/>
      <point x="-1021" y="-365"/>
      <point x="-1028" y="-378"/>
      <point x="-1028" y="-402" type="curve" smooth="yes"/>
      <point x="-1028" y="-515"/>
      <point x="-826" y="-704"/>
      <point x="-513" y="-704" type="curve" smooth="yes"/>
    </contour>
    <contour>
      <point x="-265" y="0" type="move" name="_class0"/>
    </contour>
  </outline>
</glyph>
<glyph name="qadeva" format="1">
  <advance width="1542"/>
  <unicode hex="0958"/>
  <outline>
    <contour>
      <point x="1592" y="1197" type="line"/>
      <point x="1598" y="1206" type="line"/>
      <point x="1542" y="1330" type="line"/>
      <point x="-50" y="1330" type="line"/>
      <point x="-56" y="1321" type="line"/>
      <point x="0" y="1197" type="line"/>
      <point x="733" y="1197" type="line"/>
      <point x="733" y="856" type="line"/>
      <point x="723" y="853" type="line"/>
      <point x="635" y="951"/>
      <point x="515" y="987"/>
      <point x="420" y="987" type="curve" smooth="yes"/>
      <point x="235" y="987"/>
      <point x="99" y="849"/>
      <point x="99" y="667" type="curve" smooth="yes"/>
      <point x="99" y="421"/>
      <point x="349" y="219"/>
      <point x="552" y="219" type="curve" smooth="yes"/>
      <point x="611" y="219"/>
      <point x="672" y="236"/>
      <point x="723" y="274" type="curve"/>
      <point x="733" y="269" type="line"/>
      <point x="733" y="19" type="line"/>
      <point x="884" y="-19" type="line"/>
      <point x="893" y="-12" type="line"/>
      <point x="893" y="496" type="line" smooth="yes"/>
      <point x="893" y="678"/>
      <point x="1057" y="805"/>
      <point x="1188" y="805" type="curve" smooth="yes"/>
      <point x="1277" y="805"/>
      <point x="1331" y="745"/>
      <point x="1331" y="634" type="curve" smooth="yes"/>
      <point x="1331" y="492"/>
      <point x="1242" y="344"/>
      <point x="1107" y="273" type="curve"/>
      <point x="1149" y="222"/>
      <point x="1204" y="200"/>
      <point x="1248" y="200" type="curve" smooth="yes"/>
      <point x="1351" y="200"/>
      <point x="1456" y="321"/>
      <point x="1456" y="524" type="curve" smooth="yes"/>
      <point x="1456" y="779"/>
      <point x="1290" y="932"/>
      <point x="1117" y="932" type="curve" smooth="yes"/>
      <point x="1032" y="932"/>
      <point x="956" y="895"/>
      <point x="903" y="839" type="curve"/>
      <point x="893" y="843" type="line"/>
      <point x="893" y="1197" type="line"/>
    </contour>
    <contour>
      <point x="627" y="843"/>
      <point x="733" y="740"/>
      <point x="733" y="622" type="curve" smooth="yes"/>
      <point x="733" y="568" type="line" smooth="yes"/>
      <point x="733" y="444"/>
      <point x="614" y="358"/>
      <point x="486" y="358" type="curve" smooth="yes"/>
      <point x="350" y="358"/>
      <point x="248" y="456"/>
      <point x="248" y="596" type="curve" smooth="yes"/>
      <point x="248" y="734"/>
      <point x="347" y="843"/>
      <point x="489" y="843" type="curve" smooth="yes"/>
    </contour>
    <contour>
      <point x="346" y="72"/>
      <point x="303" y="29"/>
      <point x="303" y="-23" type="curve" smooth="yes"/>
      <point x="303" y="-76"/>
      <point x="346" y="-119"/>
      <point x="399" y="-119" type="curve" smooth="yes"/>
      <point x="451" y="-119"/>
      <point x="494" y="-76"/>
      <point x="494" y="-23" type="curve" smooth="yes"/>
      <point x="494" y="29"/>
      <point x="451" y="72"/>
      <point x="399" y="72" type="curve" smooth="yes"/>
    </contour>
  </outline>
</glyph>
<glyph name="khhadeva" format="1">
  <advance width="1566"/>
  <unicode hex="0959"/>
  <outline>
    <contour>
      <point x="1616" y="1197" type="line"/>
      <point x="1622" y="1206" type="line"/>
      <point x="1566" y="1330" type="line"/>
      <point x="-50" y="1330" type="line"/>
      <point x="-56" y="1321" type="line"/>
      <point x="0" y="1197" type="line"/>
      <point x="313" y="1197" type="line"/>
      <point x="363" y="1094"/>
      <point x="383" y="994"/>
      <point x="383" y="910" type="curve" smooth="yes"/>
      <point x="383" y="845"/>
      <point x="371" y="791"/>
      <point x="340" y="751" type="curve"/>
      <point x="295" y="769"/>
      <point x="250" y="779"/>
      <point x="210" y="779" type="curve" smooth="yes"/>
      <point x="126" y="779"/>
      <point x="78" y="734"/>
      <point x="78" y="654" type="curve" smooth="yes"/>
      <point x="78" y="406"/>
      <point x="545" y="-4"/>
      <point x="831" y="-4" type="curve" smooth="yes"/>
      <point x="904" y="-4"/>
      <point x="946" y="23"/>
      <point x="963" y="86" type="curve"/>
      <point x="650" y="131"/>
      <point x="416" y="272"/>
      <point x="258" y="489" type="curve"/>
      <point x="455" y="544"/>
      <point x="517" y="687"/>
      <point x="517" y="836" type="curve" smooth="yes"/>
      <point x="517" y="953"/>
      <point x="478" y="1074"/>
      <point x="426" y="1188" type="curve"/>
      <point x="432" y="1197" type="line"/>
      <point x="1198" y="1197" type="line"/>
      <point x="1198" y="859" type="line"/>
      <point x="1188" y="855" type="line"/>
      <point x="1115" y="941"/>
      <point x="1018" y="986"/>
      <point x="914" y="986" type="curve" smooth="yes"/>
      <point x="751" y="986"/>
      <point x="638" y="873"/>
      <point x="638" y="717" type="curve" smooth="yes"/>
      <point x="638" y="501"/>
      <point x="856" y="316"/>
      <point x="1046" y="316" type="curve" smooth="yes"/>
      <point x="1096" y="316"/>
      <point x="1143" y="329"/>
      <point x="1188" y="357" type="curve"/>
      <point x="1198" y="352" type="line"/>
      <point x="1198" y="19" type="line"/>
      <point x="1349" y="-19" type="line"/>
      <point x="1358" y="-12" type="line"/>
      <point x="1358" y="1197" type="line"/>
    </contour>
    <contour>
      <point x="1110" y="850"/>
      <point x="1198" y="748"/>
      <point x="1198" y="651" type="curve" smooth="yes"/>
      <point x="1198" y="615" type="line" smooth="yes"/>
      <point x="1198" y="520"/>
      <point x="1104" y="438"/>
      <point x="990" y="438" type="curve" smooth="yes"/>
      <point x="880" y="438"/>
      <point x="778" y="514"/>
      <point x="778" y="645" type="curve" smooth="yes"/>
      <point x="778" y="758"/>
      <point x="855" y="850"/>
      <point x="979" y="850" type="curve" smooth="yes"/>
    </contour>
    <contour>
      <point x="259" y="72"/>
      <point x="216" y="29"/>
      <point x="216" y="-23" type="curve" smooth="yes"/>
      <point x="216" y="-76"/>
      <point x="259" y="-119"/>
      <point x="312" y="-119" type="curve" smooth="yes"/>
      <point x="364" y="-119"/>
      <point x="407" y="-76"/>
      <point x="407" y="-23" type="curve" smooth="yes"/>
      <point x="407" y="29"/>
      <point x="364" y="72"/>
      <point x="312" y="72" type="curve" smooth="yes"/>
    </contour>
  </outline>
</glyph>
<glyph name="zadeva" format="1">
  <advance width="1421"/>
  <unicode hex="095B"/>
  <outline>
    <contour>
      <point x="1471" y="1197" type="line"/>
      <point x="1477" y="1206" type="line"/>
      <point x="1421" y="1330" type="line"/>
      <point x="-50" y="1330" type="line"/>
      <point x="-56" y="1321" type="line"/>
      <point x="0" y="1197" type="line"/>
      <point x="1054" y="1197" type="line"/>
      <point x="1054" y="923" type="line"/>
      <point x="444" y="923" type="line"/>
      <point x="438" y="914" type="line"/>
      <point x="494" y="790" type="line"/>
      <point x="631" y="790"/>
      <point x="704" y="688"/>
      <point x="704" y="578" type="curve" smooth="yes"/>
      <point x="704" y="456"/>
      <point x="615" y="389"/>
      <point x="511" y="389" type="curve" smooth="yes"/>
      <point x="350" y="389"/>
      <point x="221" y="551"/>
      <point x="171" y="923" type="curve"/>
      <point x="110" y="917"/>
      <point x="89" y="891"/>
      <point x="90" y="826" type="curve" smooth="yes"/>
      <point x="92" y="656"/>
      <point x="227" y="227"/>
      <point x="554" y="227" type="curve" smooth="yes"/>
      <point x="720" y="227"/>
      <point x="842" y="337"/>
      <point x="842" y="505" type="curve" smooth="yes"/>
      <point x="842" y="600"/>
      <point x="803" y="700"/>
      <point x="726" y="780" type="curve"/>
      <point x="731" y="790" type="line"/>
      <point x="1054" y="790" type="line"/>
      <point x="1054" y="19" type="line"/>
      <point x="1205" y="-19" type="line"/>
      <point x="1214" y="-12" type="line"/>
      <point x="1214" y="1197" type="line"/>
    </contour>
    <contour>
      <point x="479" y="52"/>
      <point x="436" y="9"/>
      <point x="436" y="-43" type="curve" smooth="yes"/>
      <point x="436" y="-96"/>
      <point x="479" y="-139"/>
      <point x="532" y="-139" type="curve" smooth="yes"/>
      <point x="584" y="-139"/>
      <point x="627" y="-96"/>
      <point x="627" y="-43" type="curve" smooth="yes"/>
      <point x="627" y="9"/>
      <point x="584" y="52"/>
      <point x="532" y="52" type="curve" smooth="yes"/>
    </contour>
  </outline>
</glyph>
<glyph name="dddhadeva" format="1">
  <advance width="1052"/>
  <unicode hex="095C"/>
  <outline>
    <contour>
      <point x="1102" y="1197" type="line"/>
      <point x="1108" y="1206" type="line"/>
      <point x="1052" y="1330" type="line"/>
      <point x="-50" y="1330" type="line"/>
      <point x="-56" y="1321" type="line"/>
      <point x="0" y="1197" type="line"/>
      <point x="708" y="1197" type="line"/>
      <point x="708" y="1034" type="line" smooth="yes"/>
      <point x="708" y="1029"/>
      <point x="705" y="1026"/>
      <point x="700" y="1026" type="curve" smooth="yes"/>
      <point x="377" y="1026" type="line" smooth="yes"/>
      <point x="245" y="1026"/>
      <point x="184" y="962"/>
      <point x="184" y="872" type="curve" smooth="yes"/>
      <point x="184" y="721"/>
      <point x="358" y="522"/>
      <point x="526" y="522" type="curve" smooth="yes"/>
      <point x="575" y="522"/>
      <point x="693" y="539"/>
      <point x="739" y="539" type="curve" smooth="yes"/>
      <point x="818" y="539"/>
      <point x="845" y="488"/>
      <point x="845" y="435" type="curve" smooth="yes"/>
      <point x="845" y="325"/>
      <point x="728" y="255"/>
      <point x="596" y="255" type="curve" smooth="yes"/>
      <point x="424" y="255"/>
      <point x="254" y="374"/>
      <point x="133" y="616" type="curve"/>
      <point x="103" y="601"/>
      <point x="88" y="572"/>
      <point x="91" y="535" type="curve" smooth="yes"/>
      <point x="101" y="411"/>
      <point x="320" y="99"/>
      <point x="648" y="99" type="curve" smooth="yes"/>
      <point x="837" y="99"/>
      <point x="950" y="202"/>
      <point x="950" y="361" type="curve" smooth="yes"/>
      <point x="950" y="537"/>
      <point x="810" y="701"/>
      <point x="666" y="701" type="curve" smooth="yes"/>
      <point x="614" y="701"/>
      <point x="502" y="680"/>
      <point x="444" y="680" type="curve" smooth="yes"/>
      <point x="360" y="680"/>
      <point x="316" y="723"/>
      <point x="316" y="787" type="curve" smooth="yes"/>
      <point x="316" y="845"/>
      <point x="352" y="885"/>
      <point x="459" y="885" type="curve" smooth="yes"/>
      <point x="854" y="885" type="line"/>
      <point x="862" y="893" type="line"/>
      <point x="862" y="1197" type="line"/>
    </contour>
    <contour>
      <point x="539" y="-28"/>
      <point x="496" y="-71"/>
      <point x="496" y="-123" type="curve" smooth="yes"/>
      <point x="496" y="-176"/>
      <point x="539" y="-219"/>
      <point x="592" y="-219" type="curve" smooth="yes"/>
      <point x="644" y="-219"/>
      <point x="687" y="-176"/>
      <point x="687" y="-123" type="curve" smooth="yes"/>
      <point x="687" y="-71"/>
      <point x="644" y="-28"/>
      <point x="592" y="-28" type="curve" smooth="yes"/>
    </contour>
  </outline>
</glyph>
<glyph name="fadeva" format="1">
  <advance width="1480"/>
  <unicode hex="095E"/>
  <outline>
    <contour>
      <point x="1396" y="810"/>
      <point x="1238" y="942"/>
      <point x="1066" y="942" type="curve" smooth="yes"/>
      <point x="982" y="942"/>
      <point x="907" y="911"/>
      <point x="854" y="855" type="curve"/>
      <point x="844" y="859" type="line"/>
      <point x="844" y="1197" type="line"/>
      <point x="1530" y="1197" type="line"/>
      <point x="1536" y="1206" type="line"/>
      <point x="1480" y="1330" type="line"/>
      <point x="-50" y="1330" type="line"/>
      <point x="-56" y="1321" type="line"/>
      <point x="0" y="1197" type="line"/>
      <point x="129" y="1197" type="line"/>
      <point x="129" y="745" type="line" smooth="yes"/>
      <point x="129" y="536"/>
      <point x="305" y="361"/>
      <point x="492" y="361" type="curve" smooth="yes"/>
      <point x="552" y="361"/>
      <point x="619" y="379"/>
      <point x="674" y="413" type="curve"/>
      <point x="684" y="407" type="line"/>
      <point x="684" y="19" type="line"/>
      <point x="835" y="-19" type="line"/>
      <point x="844" y="-12" type="line"/>
      <point x="844" y="518" type="line" smooth="yes"/>
      <point x="844" y="694"/>
      <point x="1003" y="815"/>
      <point x="1128" y="815" type="curve" smooth="yes"/>
      <point x="1216" y="815"/>
      <point x="1271" y="756"/>
      <point x="1271" y="646" type="curve" smooth="yes"/>
      <point x="1271" y="524"/>
      <point x="1198" y="387"/>
      <point x="1060" y="317" type="curve"/>
      <point x="1091" y="266"/>
      <point x="1143" y="230"/>
      <point x="1195" y="230" type="curve" smooth="yes"/>
      <point x="1290" y="230"/>
      <point x="1396" y="348"/>
      <point x="1396" y="559" type="curve" smooth="yes"/>
    </contour>
    <contour>
      <point x="289" y="1197" type="line"/>
      <point x="684" y="1197" type="line"/>
      <point x="684" y="720" type="line" smooth="yes"/>
      <point x="684" y="588"/>
      <point x="558" y="483"/>
      <point x="435" y="483" type="curve" smooth="yes"/>
      <point x="342" y="483"/>
      <point x="289" y="543"/>
      <point x="289" y="660" type="curve" smooth="yes"/>
    </contour>
    <contour>
      <point x="309" y="172"/>
      <point x="266" y="129"/>
      <point x="266" y="77" type="curve" smooth="yes"/>
      <point x="266" y="24"/>
      <point x="309" y="-19"/>
      <point x="362" y="-19" type="curve" smooth="yes"/>
      <point x="414" y="-19"/>
      <point x="457" y="24"/>
      <point x="457" y="77" type="curve" smooth="yes"/>
      <point x="457" y="129"/>
      <point x="414" y="172"/>
      <point x="362" y="172" type="curve" smooth="yes"/>
    </contour>
  </outline>
</glyph>
<glyph name="yyadeva" format="1">
  <advance width="1288"/>
  <unicode hex="095F"/>
  <outline>
    <contour>
      <point x="1338" y="1197" type="line"/>
      <point x="1344" y="1206" type="line"/>
      <point x="1288" y="1330" type="line"/>
      <point x="-50" y="1330" type="line"/>
      <point x="-56" y="1321" type="line"/>
      <point x="0" y="1197" type="line"/>
      <point x="369" y="1197" type="line"/>
      <point x="398" y="1149"/>
      <point x="422" y="1083"/>
      <point x="422" y="1013" type="curve" smooth="yes"/>
      <point x="422" y="892"/>
      <point x="351" y="813"/>
      <point x="127" y="750" type="curve"/>
      <point x="122" y="740" type="line"/>
      <point x="295" y="403"/>
      <point x="496" y="261"/>
      <point x="697" y="261" type="curve" smooth="yes"/>
      <point x="781" y="261"/>
      <point x="854" y="286"/>
      <point x="911" y="329" type="curve"/>
      <point x="921" y="324" type="line"/>
      <point x="921" y="19" type="line"/>
      <point x="1072" y="-19" type="line"/>
      <point x="1081" y="-12" type="line"/>
      <point x="1081" y="1197" type="line"/>
    </contour>
    <contour>
      <point x="490" y="1197" type="line"/>
      <point x="921" y="1197" type="line"/>
      <point x="921" y="690" type="line" smooth="yes"/>
      <point x="921" y="528"/>
      <point x="780" y="421"/>
      <point x="630" y="421" type="curve" smooth="yes"/>
      <point x="517" y="421"/>
      <point x="392" y="482"/>
      <point x="307" y="628" type="curve"/>
      <point x="472" y="688"/>
      <point x="562" y="781"/>
      <point x="562" y="926" type="curve" smooth="yes"/>
      <point x="562" y="1015"/>
      <point x="528" y="1109"/>
      <point x="485" y="1187" type="curve"/>
    </contour>
    <contour>
      <point x="259" y="172"/>
      <point x="216" y="129"/>
      <point x="216" y="77" type="curve" smooth="yes"/>
      <point x="216" y="24"/>
      <point x="259" y="-19"/>
      <point x="312" y="-19" type="curve" smooth="yes"/>
      <point x="364" y="-19"/>
      <point x="407" y="24"/>
      <point x="407" y="77" type="curve" smooth="yes"/>
      <point x="407" y="129"/>
      <point x="364" y="172"/>
      <point x="312" y="172" type="curve" smooth="yes"/>
    </contour>
  </outline>
</glyph>
<glyph name="rrvocalicdeva" format="1">
  <advance width="1771"/>
  <unicode hex="0960"/>
  <outline>
    <contour>
      <point x="954" y="1197" type="line"/>
      <point x="1821" y="1197" type="line"/>
      <point x="1827" y="1206" type="line"/>
      <point x="1771" y="1330" type="line"/>
      <point x="-50" y="1330" type="line"/>
      <point x="-56" y="1321" type="line"/>
      <point x="0" y="1197" type="line"/>
      <point x="794" y="1197" type="line"/>
      <point x="794" y="773" type="line"/>
      <point x="784" y="769" type="line"/>
      <point x="514" y="972"/>
      <point x="428" y="1019"/>
      <point x="321" y="1019" type="curve" smooth="yes"/>
      <point x="176" y="1019"/>
      <point x="94" y="931"/>
      <point x="94" y="859" type="curve" smooth="yes"/>
      <point x="94" y="811"/>
      <point x="130" y="765"/>
      <point x="194" y="725" type="curve"/>
      <point x="230" y="823"/>
      <point x="318" y="879"/>
      <point x="392" y="879" type="curve" smooth="yes"/>
      <point x="464" y="879"/>
      <point x="553" y="824"/>
      <point x="734" y="691" type="curve"/>
      <point x="734" y="682" type="line"/>
      <point x="543" y="559"/>
      <point x="375" y="426"/>
      <point x="221" y="288" type="curve"/>
      <point x="221" y="276" type="line"/>
      <point x="343" y="158" type="line"/>
      <point x="478" y="282"/>
      <point x="625" y="403"/>
      <point x="784" y="517" type="curve"/>
      <point x="794" y="512" type="line"/>
      <point x="794" y="19" type="line"/>
      <point x="945" y="-19" type="line"/>
      <point x="954" y="-12" type="line"/>
      <point x="954" y="567" type="line"/>
      <point x="1091" y="573"/>
      <point x="1216" y="613"/>
      <point x="1311" y="669" type="curve"/>
      <point x="1336" y="617"/>
      <point x="1360" y="572"/>
      <point x="1383" y="528" type="curve"/>
      <point x="1244" y="444"/>
      <point x="1186" y="376"/>
      <point x="1186" y="287" type="curve" smooth="yes"/>
      <point x="1186" y="148"/>
      <point x="1325" y="-10"/>
      <point x="1509" y="-10" type="curve" smooth="yes"/>
      <point x="1642" y="-10"/>
      <point x="1746" y="73"/>
      <point x="1746" y="154" type="curve" smooth="yes"/>
      <point x="1746" y="209"/>
      <point x="1697" y="254"/>
      <point x="1661" y="267" type="curve"/>
      <point x="1608" y="186"/>
      <point x="1497" y="123"/>
      <point x="1419" y="123" type="curve" smooth="yes"/>
      <point x="1360" y="123"/>
      <point x="1315" y="159"/>
      <point x="1315" y="216" type="curve" smooth="yes"/>
      <point x="1315" y="273"/>
      <point x="1361" y="335"/>
      <point x="1534" y="438" type="curve"/>
      <point x="1536" y="446" type="line"/>
      <point x="1489" y="527"/>
      <point x="1441" y="617"/>
      <point x="1388" y="725" type="curve"/>
      <point x="1444" y="775"/>
      <point x="1477" y="832"/>
      <point x="1477" y="888" type="curve" smooth="yes"/>
      <point x="1477" y="968"/>
      <point x="1409" y="1045"/>
      <point x="1316" y="1045" type="curve" smooth="yes"/>
      <point x="1239" y="1045"/>
      <point x="1193" y="992"/>
      <point x="1193" y="928" type="curve" smooth="yes"/>
      <point x="1193" y="893"/>
      <point x="1207" y="855"/>
      <point x="1236" y="808" type="curve"/>
      <point x="1156" y="753"/>
      <point x="1065" y="722"/>
      <point x="954" y="713" type="curve"/>
    </contour>
  </outline>
</glyph>
<glyph name="llvocalicdeva" format="1">
  <advance width="1411"/>
  <unicode hex="0961"/>
  <outline>
    <contour>
      <point x="1371" y="-234"/>
      <point x="1256" y="-291"/>
      <point x="1179" y="-291" type="curve" smooth="yes"/>
      <point x="1133" y="-291"/>
      <point x="1098" y="-271"/>
      <point x="1098" y="-228" type="curve" smooth="yes"/>
      <point x="1098" y="-181"/>
      <point x="1138" y="-111"/>
      <point x="1354" y="-4" type="curve"/>
      <point x="1357" y="7" type="line"/>
      <point x="1269" y="106" type="line"/>
      <point x="1157" y="38"/>
      <point x="1096" y="10"/>
      <point x="1049" y="10" type="curve" smooth="yes"/>
      <point x="1003" y="10"/>
      <point x="985" y="36"/>
      <point x="985" y="63" type="curve" smooth="yes"/>
      <point x="985" y="119"/>
      <point x="1061" y="178"/>
      <point x="1188" y="302" type="curve" smooth="yes"/>
      <point x="1258" y="370"/>
      <point x="1320" y="436"/>
      <point x="1320" y="558" type="curve" smooth="yes"/>
      <point x="1320" y="723"/>
      <point x="1208" y="858"/>
      <point x="1074" y="897" type="curve"/>
      <point x="1074" y="1197" type="line"/>
      <point x="1461" y="1197" type="line"/>
      <point x="1467" y="1206" type="line"/>
      <point x="1411" y="1330" type="line"/>
      <point x="-50" y="1330" type="line"/>
      <point x="-56" y="1321" type="line"/>
      <point x="0" y="1197" type="line"/>
      <point x="924" y="1197" type="line"/>
      <point x="924" y="901" type="line"/>
      <point x="851" y="883"/>
      <point x="773" y="838"/>
      <point x="706" y="762" type="curve"/>
      <point x="698" y="762" type="line"/>
      <point x="583" y="881"/>
      <point x="487" y="924"/>
      <point x="383" y="924" type="curve" smooth="yes"/>
      <point x="208" y="924"/>
      <point x="102" y="799"/>
      <point x="102" y="625" type="curve" smooth="yes"/>
      <point x="102" y="314"/>
      <point x="438" y="-8"/>
      <point x="553" y="-8" type="curve" smooth="yes"/>
      <point x="579" y="-8"/>
      <point x="602" y="9"/>
      <point x="611" y="34" type="curve"/>
      <point x="379" y="197"/>
      <point x="258" y="417"/>
      <point x="258" y="574" type="curve" smooth="yes"/>
      <point x="258" y="698"/>
      <point x="334" y="788"/>
      <point x="443" y="788" type="curve" smooth="yes"/>
      <point x="510" y="788"/>
      <point x="577" y="755"/>
      <point x="645" y="682" type="curve"/>
      <point x="616" y="635"/>
      <point x="590" y="583"/>
      <point x="568" y="522" type="curve"/>
      <point x="701" y="438" type="line"/>
      <point x="711" y="441" type="line"/>
      <point x="809" y="675"/>
      <point x="942" y="771"/>
      <point x="1057" y="771" type="curve" smooth="yes"/>
      <point x="1139" y="771"/>
      <point x="1198" y="722"/>
      <point x="1198" y="636" type="curve" smooth="yes"/>
      <point x="1198" y="556"/>
      <point x="1148" y="477"/>
      <point x="1028" y="363" type="curve" smooth="yes"/>
      <point x="930" y="270"/>
      <point x="856" y="220"/>
      <point x="856" y="128" type="curve" smooth="yes"/>
      <point x="856" y="47"/>
      <point x="914" y="-26"/>
      <point x="1003" y="-67" type="curve"/>
      <point x="978" y="-100"/>
      <point x="969" y="-129"/>
      <point x="969" y="-161" type="curve" smooth="yes"/>
      <point x="969" y="-284"/>
      <point x="1095" y="-399"/>
      <point x="1258" y="-399" type="curve" smooth="yes"/>
      <point x="1398" y="-399"/>
      <point x="1502" y="-314"/>
      <point x="1502" y="-239" type="curve" smooth="yes"/>
      <point x="1502" y="-194"/>
      <point x="1463" y="-162"/>
      <point x="1424" y="-147" type="curve"/>
    </contour>
  </outline>
</glyph>
<glyph name="llvocalicsigndeva" format="1">
  <advance width="0"/>
  <unicode hex="0963"/>
  <outline>
    <contour>
      <point x="-808" y="-70"/>
      <point x="-878" y="-148"/>
      <point x="-878" y="-257" type="curve" smooth="yes"/>
      <point x="-878" y="-444"/>
      <point x="-669" y="-637"/>
      <point x="-598" y="-637" type="curve" smooth="yes"/>
      <point x="-578" y="-637"/>
      <point x="-558" y="-622"/>
      <point x="-552" y="-601" type="curve"/>
      <point x="-691" y="-510"/>
      <point x="-771" y="-380"/>
      <point x="-771" y="-291" type="curve" smooth="yes"/>
      <point x="-771" y="-222"/>
      <point x="-723" y="-175"/>
      <point x="-657" y="-175" type="curve" smooth="yes"/>
      <point x="-614" y="-175"/>
      <point x="-573" y="-191"/>
      <point x="-531" y="-224" type="curve"/>
      <point x="-552" y="-264"/>
      <point x="-568" y="-316"/>
      <point x="-577" y="-380" type="curve"/>
      <point x="-478" y="-421" type="line"/>
      <point x="-468" y="-415" type="line"/>
      <point x="-435" y="-217"/>
      <point x="-334" y="-176"/>
      <point x="-270" y="-176" type="curve" smooth="yes"/>
      <point x="-222" y="-176"/>
      <point x="-192" y="-200"/>
      <point x="-192" y="-251" type="curve" smooth="yes"/>
      <point x="-192" y="-318"/>
      <point x="-244" y="-354"/>
      <point x="-311" y="-411" type="curve" smooth="yes"/>
      <point x="-383" y="-472"/>
      <point x="-412" y="-505"/>
      <point x="-412" y="-569" type="curve" smooth="yes"/>
      <point x="-412" y="-621"/>
      <point x="-367" y="-675"/>
      <point x="-314" y="-699" type="curve"/>
      <point x="-330" y="-722"/>
      <point x="-336" y="-744"/>
      <point x="-336" y="-763" type="curve" smooth="yes"/>
      <point x="-336" y="-838"/>
      <point x="-249" y="-936"/>
      <point x="-134" y="-936" type="curve" smooth="yes"/>
      <point x="-54" y="-936"/>
      <point x="13" y="-889"/>
      <point x="13" y="-837" type="curve" smooth="yes"/>
      <point x="13" y="-809"/>
      <point x="-7" y="-779"/>
      <point x="-37" y="-762" type="curve"/>
      <point x="-70" y="-823"/>
      <point x="-142" y="-852"/>
      <point x="-188" y="-852" type="curve" smooth="yes"/>
      <point x="-223" y="-852"/>
      <point x="-248" y="-835"/>
      <point x="-248" y="-806" type="curve" smooth="yes"/>
      <point x="-248" y="-775"/>
      <point x="-221" y="-733"/>
      <point x="-84" y="-672" type="curve"/>
      <point x="-80" y="-661" type="line"/>
      <point x="-133" y="-582" type="line"/>
      <point x="-206" y="-630"/>
      <point x="-247" y="-650"/>
      <point x="-277" y="-650" type="curve" smooth="yes"/>
      <point x="-307" y="-650"/>
      <point x="-317" y="-630"/>
      <point x="-317" y="-612" type="curve" smooth="yes"/>
      <point x="-317" y="-560"/>
      <point x="-248" y="-510"/>
      <point x="-197" y="-466" type="curve" smooth="yes"/>
      <point x="-132" y="-410"/>
      <point x="-102" y="-363"/>
      <point x="-102" y="-297" type="curve" smooth="yes"/>
      <point x="-102" y="-176"/>
      <point x="-204" y="-80"/>
      <point x="-317" y="-80" type="curve" smooth="yes"/>
      <point x="-366" y="-80"/>
      <point x="-435" y="-98"/>
      <point x="-491" y="-163" type="curve"/>
      <point x="-564" y="-94"/>
      <point x="-626" y="-70"/>
      <point x="-693" y="-70" type="curve" smooth="yes"/>
    </contour>
    <contour>
      <point x="-138" y="34" type="move" name="_class0"/>
    </contour>
  </outline>
</glyph>
<glyph name="danda" format="1">
  <advance width="860"/>
  <unicode hex="0964"/>
  <outline>
    <contour>
      <point x="660" y="1299" type="line"/>
      <point x="509" y="1337" type="line"/>
      <point x="500" y="1330" type="line"/>
      <point x="500" y="-21" type="line"/>
      <point x="651" y="-59" type="line"/>
      <point x="660" y="-52" type="line"/>
    </contour>
  </outline>
</glyph>
<glyph name="dbldanda" format="1">
  <advance width="1230"/>
  <unicode hex="0965"/>
  <outline>
    <contour>
      <point x="660" y="1299" type="line"/>
      <point x="509" y="1337" type="line"/>
      <point x="500" y="1330" type="line"/>
      <point x="500" y="-21" type="line"/>
      <point x="651" y="-59" type="line"/>
      <point x="660" y="-52" type="line"/>
    </contour>
    <contour>
      <point x="1030" y="1299" type="line"/>
      <point x="879" y="1337" type="line"/>
      <point x="870" y="1330" type="line"/>
      <point x="870" y="-21" type="line"/>
      <point x="1021" y="-59" type="line"/>
      <point x="1030" y="-52" type="line"/>
    </contour>
  </outline>
</glyph>
<glyph name="zerodeva" format="1">
  <advance width="1038"/>
  <unicode hex="0966"/>
  <outline>
    <contour>
      <point x="938" y="822"/>
      <point x="730" y="1046"/>
      <point x="483" y="1046" type="curve" smooth="yes"/>
      <point x="264" y="1046"/>
      <point x="100" y="871"/>
      <point x="100" y="661" type="curve" smooth="yes"/>
      <point x="100" y="418"/>
      <point x="320" y="196"/>
      <point x="565" y="196" type="curve" smooth="yes"/>
      <point x="772" y="196"/>
      <point x="938" y="355"/>
      <point x="938" y="575" type="curve" smooth="yes"/>
    </contour>
    <contour>
      <point x="697" y="899"/>
      <point x="807" y="794"/>
      <point x="807" y="639" type="curve" smooth="yes"/>
      <point x="807" y="459"/>
      <point x="660" y="338"/>
      <point x="503" y="338" type="curve" smooth="yes"/>
      <point x="348" y="338"/>
      <point x="242" y="455"/>
      <point x="242" y="602" type="curve" smooth="yes"/>
      <point x="242" y="761"/>
      <point x="367" y="899"/>
      <point x="543" y="899" type="curve" smooth="yes"/>
    </contour>
  </outline>
</glyph>
<glyph name="onedeva" format="1">
  <advance width="809"/>
  <unicode hex="0967"/>
  <outline>
    <contour>
      <point x="520" y="196"/>
      <point x="396" y="290"/>
      <point x="323" y="340" type="curve"/>
      <point x="587" y="590"/>
      <point x="714" y="746"/>
      <point x="714" y="918" type="curve" smooth="yes"/>
      <point x="714" y="1109"/>
      <point x="557" y="1277"/>
      <point x="376" y="1277" type="curve" smooth="yes"/>
      <point x="238" y="1277"/>
      <point x="120" y="1179"/>
      <point x="120" y="1026" type="curve" smooth="yes"/>
      <point x="120" y="860"/>
      <point x="257" y="747"/>
      <point x="412" y="665" type="curve"/>
      <point x="343" y="588"/>
      <point x="249" y="497"/>
      <point x="125" y="382" type="curve"/>
      <point x="124" y="372" type="line"/>
      <point x="267" y="261"/>
      <point x="338" y="210"/>
      <point x="497" y="80" type="curve" smooth="yes"/>
      <point x="585" y="8"/>
      <point x="592" y="0"/>
      <point x="592" y="-35" type="curve" smooth="yes"/>
      <point x="592" y="-56"/>
      <point x="573" y="-102"/>
      <point x="509" y="-137" type="curve"/>
      <point x="535" y="-200"/>
      <point x="580" y="-237"/>
      <point x="632" y="-237" type="curve" smooth="yes"/>
      <point x="699" y="-237"/>
      <point x="749" y="-182"/>
      <point x="749" y="-96" type="curve" smooth="yes"/>
      <point x="749" y="-20"/>
      <point x="710" y="43"/>
      <point x="577" y="150" type="curve" smooth="yes"/>
    </contour>
    <contour>
      <point x="280" y="1081"/>
      <point x="346" y="1152"/>
      <point x="435" y="1152" type="curve" smooth="yes"/>
      <point x="516" y="1152"/>
      <point x="578" y="1093"/>
      <point x="578" y="982" type="curve" smooth="yes"/>
      <point x="578" y="904"/>
      <point x="547" y="830"/>
      <point x="470" y="732" type="curve"/>
      <point x="326" y="815"/>
      <point x="280" y="900"/>
      <point x="280" y="982" type="curve" smooth="yes"/>
    </contour>
  </outline>
</glyph>
<glyph name="twodeva" format="1">
  <advance width="1062"/>
  <unicode hex="0968"/>
  <outline>
    <contour>
      <point x="911" y="36"/>
      <point x="877" y="25"/>
      <point x="831" y="25" type="curve" smooth="yes"/>
      <point x="713" y="25"/>
      <point x="625" y="98"/>
      <point x="521" y="337" type="curve"/>
      <point x="801" y="453"/>
      <point x="946" y="656"/>
      <point x="946" y="862" type="curve" smooth="yes"/>
      <point x="946" y="1093"/>
      <point x="763" y="1277"/>
      <point x="523" y="1277" type="curve" smooth="yes"/>
      <point x="319" y="1277"/>
      <point x="171" y="1144"/>
      <point x="171" y="1014" type="curve" smooth="yes"/>
      <point x="171" y="934"/>
      <point x="227" y="889"/>
      <point x="317" y="889" type="curve"/>
      <point x="317" y="1029"/>
      <point x="416" y="1152"/>
      <point x="579" y="1152" type="curve" smooth="yes"/>
      <point x="711" y="1152"/>
      <point x="806" y="1072"/>
      <point x="806" y="925" type="curve" smooth="yes"/>
      <point x="806" y="770"/>
      <point x="701" y="597"/>
      <point x="454" y="496" type="curve"/>
      <point x="408" y="578"/>
      <point x="344" y="615"/>
      <point x="280" y="615" type="curve" smooth="yes"/>
      <point x="206" y="615"/>
      <point x="150" y="565"/>
      <point x="150" y="492" type="curve" smooth="yes"/>
      <point x="150" y="402"/>
      <point x="234" y="304"/>
      <point x="386" y="304" type="curve" smooth="yes"/>
      <point x="396" y="304"/>
      <point x="410" y="304"/>
      <point x="424" y="306" type="curve"/>
      <point x="583" y="-39"/>
      <point x="741" y="-148"/>
      <point x="868" y="-148" type="curve" smooth="yes"/>
      <point x="952" y="-148"/>
      <point x="1002" y="-101"/>
      <point x="1002" y="-39" type="curve" smooth="yes"/>
      <point x="1002" y="-4"/>
      <point x="986" y="35"/>
      <point x="957" y="61" type="curve"/>
    </contour>
  </outline>
</glyph>
<glyph name="threedeva" format="1">
  <advance width="945"/>
  <unicode hex="0969"/>
  <outline>
    <contour>
      <point x="767" y="-72"/>
      <point x="733" y="-83"/>
      <point x="686" y="-83" type="curve" smooth="yes"/>
      <point x="600" y="-83"/>
      <point x="553" y="-46"/>
      <point x="500" y="64" type="curve"/>
      <point x="504" y="72" type="line"/>
      <point x="759" y="89"/>
      <point x="885" y="221"/>
      <point x="885" y="374" type="curve" smooth="yes"/>
      <point x="885" y="490"/>
      <point x="813" y="600"/>
      <point x="708" y="674" type="curve"/>
      <point x="708" y="682" type="line"/>
      <point x="807" y="742"/>
      <point x="852" y="820"/>
      <point x="852" y="923" type="curve" smooth="yes"/>
      <point x="852" y="1119"/>
      <point x="688" y="1275"/>
      <point x="446" y="1275" type="curve" smooth="yes"/>
      <point x="242" y="1275"/>
      <point x="130" y="1164"/>
      <point x="130" y="1058" type="curve" smooth="yes"/>
      <point x="130" y="984"/>
      <point x="186" y="937"/>
      <point x="276" y="937" type="curve"/>
      <point x="276" y="1067"/>
      <point x="362" y="1164"/>
      <point x="509" y="1164" type="curve" smooth="yes"/>
      <point x="628" y="1164"/>
      <point x="711" y="1101"/>
      <point x="711" y="993" type="curve" smooth="yes"/>
      <point x="711" y="858"/>
      <point x="583" y="763"/>
      <point x="271" y="749" type="curve"/>
      <point x="265" y="739" type="line"/>
      <point x="346" y="582" type="line"/>
      <point x="446" y="592"/>
      <point x="531" y="609"/>
      <point x="601" y="633" type="curve"/>
      <point x="702" y="586"/>
      <point x="740" y="513"/>
      <point x="740" y="443" type="curve" smooth="yes"/>
      <point x="740" y="333"/>
      <point x="647" y="239"/>
      <point x="447" y="224" type="curve"/>
      <point x="412" y="319"/>
      <point x="348" y="376"/>
      <point x="272" y="376" type="curve" smooth="yes"/>
      <point x="197" y="376"/>
      <point x="148" y="321"/>
      <point x="148" y="252" type="curve" smooth="yes"/>
      <point x="148" y="154"/>
      <point x="249" y="63"/>
      <point x="407" y="64" type="curve"/>
      <point x="503" y="-163"/>
      <point x="617" y="-256"/>
      <point x="727" y="-256" type="curve" smooth="yes"/>
      <point x="806" y="-256"/>
      <point x="858" y="-209"/>
      <point x="858" y="-147" type="curve" smooth="yes"/>
      <point x="858" y="-111"/>
      <point x="841" y="-72"/>
      <point x="813" y="-47" type="curve"/>
    </contour>
  </outline>
</glyph>
<glyph name="fourdeva" format="1">
  <advance width="1110"/>
  <unicode hex="096A"/>
  <outline>
    <contour>
      <point x="810" y="826"/>
      <point x="885" y="927"/>
      <point x="1056" y="1154" type="curve"/>
      <point x="1055" y="1163" type="line"/>
      <point x="928" y="1249" type="line"/>
      <point x="733" y="985"/>
      <point x="659" y="885"/>
      <point x="545" y="737" type="curve"/>
      <point x="536" y="737" type="line"/>
      <point x="345" y="892"/>
      <point x="264" y="947"/>
      <point x="264" y="1029" type="curve" smooth="yes"/>
      <point x="264" y="1102"/>
      <point x="328" y="1152"/>
      <point x="416" y="1162" type="curve"/>
      <point x="384" y="1235"/>
      <point x="346" y="1277"/>
      <point x="280" y="1277" type="curve" smooth="yes"/>
      <point x="189" y="1277"/>
      <point x="110" y="1197"/>
      <point x="110" y="1096" type="curve" smooth="yes"/>
      <point x="110" y="934"/>
      <point x="314" y="791"/>
      <point x="484" y="654" type="curve"/>
      <point x="354" y="474"/>
      <point x="336" y="414"/>
      <point x="336" y="357" type="curve" smooth="yes"/>
      <point x="336" y="188"/>
      <point x="494" y="39"/>
      <point x="654" y="39" type="curve" smooth="yes"/>
      <point x="753" y="39"/>
      <point x="884" y="96"/>
      <point x="884" y="265" type="curve" smooth="yes"/>
      <point x="884" y="385"/>
      <point x="818" y="480"/>
      <point x="664" y="623" type="curve"/>
    </contour>
    <contour>
      <point x="529" y="172"/>
      <point x="467" y="216"/>
      <point x="467" y="291" type="curve" smooth="yes"/>
      <point x="467" y="345"/>
      <point x="499" y="401"/>
      <point x="603" y="542" type="curve"/>
      <point x="612" y="542" type="line"/>
      <point x="693" y="464"/>
      <point x="742" y="394"/>
      <point x="742" y="317" type="curve" smooth="yes"/>
      <point x="742" y="229"/>
      <point x="676" y="172"/>
      <point x="598" y="172" type="curve" smooth="yes"/>
    </contour>
  </outline>
</glyph>
<glyph name="fivedeva" format="1">
  <advance width="1047"/>
  <unicode hex="096B"/>
  <outline>
    <contour>
      <point x="919" y="516"/>
      <point x="938" y="575"/>
      <point x="938" y="633" type="curve" smooth="yes"/>
      <point x="938" y="741"/>
      <point x="871" y="838"/>
      <point x="772" y="838" type="curve" smooth="yes"/>
      <point x="695" y="838"/>
      <point x="641" y="779"/>
      <point x="641" y="701" type="curve" smooth="yes"/>
      <point x="641" y="642"/>
      <point x="672" y="583"/>
      <point x="724" y="517" type="curve"/>
      <point x="623" y="397"/>
      <point x="529" y="356"/>
      <point x="432" y="356" type="curve" smooth="yes"/>
      <point x="302" y="356"/>
      <point x="232" y="430"/>
      <point x="232" y="552" type="curve" smooth="yes"/>
      <point x="232" y="688"/>
      <point x="318" y="910"/>
      <point x="500" y="1174" type="curve"/>
      <point x="357" y="1264" type="line"/>
      <point x="208" y="1047"/>
      <point x="94" y="810"/>
      <point x="94" y="630" type="curve" smooth="yes"/>
      <point x="94" y="390"/>
      <point x="297" y="214"/>
      <point x="493" y="214" type="curve" smooth="yes"/>
      <point x="617" y="214"/>
      <point x="744" y="286"/>
      <point x="830" y="384" type="curve"/>
      <point x="884" y="304"/>
      <point x="919" y="254"/>
      <point x="919" y="176" type="curve" smooth="yes"/>
      <point x="919" y="87"/>
      <point x="874" y="43"/>
      <point x="753" y="22" type="curve"/>
      <point x="789" y="-65"/>
      <point x="845" y="-99"/>
      <point x="906" y="-99" type="curve" smooth="yes"/>
      <point x="996" y="-99"/>
      <point x="1057" y="-24"/>
      <point x="1057" y="77" type="curve" smooth="yes"/>
      <point x="1057" y="204"/>
      <point x="960" y="342"/>
      <point x="886" y="460" type="curve"/>
    </contour>
  </outline>
</glyph>
<glyph name="sixdeva" format="1">
  <advance width="981"/>
  <unicode hex="096C"/>
  <outline>
    <contour>
      <point x="860" y="229"/>
      <point x="888" y="284"/>
      <point x="888" y="339" type="curve" smooth="yes"/>
      <point x="888" y="420"/>
      <point x="827" y="499"/>
      <point x="739" y="499" type="curve" smooth="yes"/>
      <point x="662" y="499"/>
      <point x="607" y="438"/>
      <point x="607" y="363" type="curve" smooth="yes"/>
      <point x="607" y="324"/>
      <point x="622" y="291"/>
      <point x="647" y="259" type="curve"/>
      <point x="601" y="233"/>
      <point x="546" y="219"/>
      <point x="490" y="219" type="curve" smooth="yes"/>
      <point x="378" y="219"/>
      <point x="275" y="285"/>
      <point x="275" y="403" type="curve" smooth="yes"/>
      <point x="275" y="514"/>
      <point x="366" y="638"/>
      <point x="727" y="669" type="curve"/>
      <point x="731" y="679" type="line"/>
      <point x="640" y="818" type="line"/>
      <point x="545" y="811"/>
      <point x="463" y="794"/>
      <point x="393" y="767" type="curve"/>
      <point x="314" y="816"/>
      <point x="286" y="872"/>
      <point x="286" y="930" type="curve" smooth="yes"/>
      <point x="286" y="1032"/>
      <point x="372" y="1123"/>
      <point x="540" y="1123" type="curve" smooth="yes"/>
      <point x="606" y="1123"/>
      <point x="677" y="1109"/>
      <point x="699" y="1102" type="curve"/>
      <point x="690" y="1202"/>
      <point x="609" y="1272"/>
      <point x="462" y="1272" type="curve" smooth="yes"/>
      <point x="275" y="1272"/>
      <point x="140" y="1157"/>
      <point x="140" y="994" type="curve" smooth="yes"/>
      <point x="140" y="880"/>
      <point x="207" y="794"/>
      <point x="306" y="726" type="curve"/>
      <point x="200" y="663"/>
      <point x="143" y="574"/>
      <point x="143" y="470" type="curve" smooth="yes"/>
      <point x="143" y="285"/>
      <point x="326" y="91"/>
      <point x="553" y="91" type="curve" smooth="yes"/>
      <point x="630" y="91"/>
      <point x="701" y="112"/>
      <point x="757" y="144" type="curve"/>
      <point x="812" y="82"/>
      <point x="827" y="50"/>
      <point x="827" y="14" type="curve" smooth="yes"/>
      <point x="827" y="-54"/>
      <point x="774" y="-98"/>
      <point x="708" y="-98" type="curve"/>
      <point x="724" y="-162"/>
      <point x="774" y="-202"/>
      <point x="836" y="-202" type="curve" smooth="yes"/>
      <point x="909" y="-202"/>
      <point x="951" y="-145"/>
      <point x="951" y="-73" type="curve" smooth="yes"/>
      <point x="951" y="-13"/>
      <point x="923" y="61"/>
      <point x="816" y="188" type="curve"/>
    </contour>
  </outline>
</glyph>
<glyph name="sevendeva" format="1">
  <advance width="1035"/>
  <unicode hex="096D"/>
  <outline>
    <contour>
      <point x="497" y="1183"/>
      <point x="392" y="1083"/>
      <point x="392" y="950" type="curve" smooth="yes"/>
      <point x="392" y="717"/>
      <point x="601" y="513"/>
      <point x="848" y="506" type="curve"/>
      <point x="806" y="369"/>
      <point x="712" y="297"/>
      <point x="592" y="297" type="curve" smooth="yes"/>
      <point x="364" y="297"/>
      <point x="162" y="556"/>
      <point x="124" y="1240" type="curve"/>
      <point x="38" y="1240"/>
      <point x="28" y="1180"/>
      <point x="28" y="1084" type="curve" smooth="yes"/>
      <point x="28" y="625"/>
      <point x="257" y="135"/>
      <point x="638" y="135" type="curve" smooth="yes"/>
      <point x="850" y="135"/>
      <point x="995" y="287"/>
      <point x="995" y="581" type="curve" smooth="yes"/>
      <point x="995" y="926"/>
      <point x="831" y="1183"/>
      <point x="626" y="1183" type="curve" smooth="yes"/>
    </contour>
    <contour>
      <point x="535" y="983"/>
      <point x="607" y="1047"/>
      <point x="679" y="1047" type="curve" smooth="yes"/>
      <point x="792" y="1047"/>
      <point x="871" y="888"/>
      <point x="871" y="681" type="curve" smooth="yes"/>
      <point x="871" y="654"/>
      <point x="870" y="629"/>
      <point x="867" y="605" type="curve"/>
      <point x="662" y="616"/>
      <point x="535" y="716"/>
      <point x="535" y="881" type="curve" smooth="yes"/>
    </contour>
  </outline>
</glyph>
<glyph name="eightdeva" format="1">
  <advance width="987"/>
  <unicode hex="096E"/>
  <outline>
    <contour>
      <point x="927" y="261"/>
      <point x="737" y="89"/>
      <point x="524" y="89" type="curve" smooth="yes"/>
      <point x="320" y="89"/>
      <point x="120" y="248"/>
      <point x="120" y="475" type="curve" smooth="yes"/>
      <point x="120" y="555"/>
      <point x="145" y="639"/>
      <point x="362" y="866" type="curve" smooth="yes"/>
      <point x="526" y="1037"/>
      <point x="721" y="1208"/>
      <point x="752" y="1239" type="curve"/>
      <point x="884" y="1150" type="line"/>
      <point x="862" y="1129"/>
      <point x="652" y="928"/>
      <point x="468" y="736" type="curve" smooth="yes"/>
      <point x="304" y="565"/>
      <point x="251" y="495"/>
      <point x="251" y="410" type="curve" smooth="yes"/>
      <point x="251" y="306"/>
      <point x="331" y="229"/>
      <point x="460" y="229" type="curve" smooth="yes"/>
      <point x="602" y="229"/>
      <point x="731" y="322"/>
      <point x="842" y="482" type="curve"/>
      <point x="890" y="456"/>
      <point x="927" y="405"/>
      <point x="927" y="361" type="curve" smooth="yes"/>
    </contour>
  </outline>
</glyph>
<glyph name="ninedeva" format="1">
  <advance width="865"/>
  <unicode hex="096F"/>
  <outline>
    <contour>
      <point x="639" y="596"/>
      <point x="750" y="720"/>
      <point x="750" y="886" type="curve" smooth="yes"/>
      <point x="750" y="1101"/>
      <point x="565" y="1270"/>
      <point x="372" y="1270" type="curve" smooth="yes"/>
      <point x="188" y="1270"/>
      <point x="80" y="1158"/>
      <point x="80" y="991" type="curve" smooth="yes"/>
      <point x="80" y="846"/>
      <point x="162" y="734"/>
      <point x="316" y="560" type="curve" smooth="yes"/>
      <point x="482" y="373"/>
      <point x="583" y="281"/>
      <point x="583" y="174" type="curve" smooth="yes"/>
      <point x="583" y="123"/>
      <point x="533" y="67"/>
      <point x="463" y="39" type="curve"/>
      <point x="497" y="-37"/>
      <point x="540" y="-69"/>
      <point x="591" y="-69" type="curve" smooth="yes"/>
      <point x="657" y="-69"/>
      <point x="735" y="1"/>
      <point x="735" y="104" type="curve" smooth="yes"/>
      <point x="735" y="174"/>
      <point x="707" y="239"/>
      <point x="638" y="328" type="curve" smooth="yes"/>
      <point x="569" y="413"/>
      <point x="515" y="481"/>
      <point x="422" y="588" type="curve"/>
    </contour>
    <contour>
      <point x="540" y="1141"/>
      <point x="623" y="1057"/>
      <point x="623" y="943" type="curve" smooth="yes"/>
      <point x="623" y="822"/>
      <point x="524" y="731"/>
      <point x="307" y="724" type="curve"/>
      <point x="252" y="797"/>
      <point x="232" y="851"/>
      <point x="232" y="932" type="curve" smooth="yes"/>
      <point x="232" y="1067"/>
      <point x="325" y="1141"/>
      <point x="431" y="1141" type="curve" smooth="yes"/>
    </contour>
  </outline>
</glyph>
<glyph name="abbreviationsigndeva" format="1">
  <advance width="1038"/>
  <unicode hex="0970"/>
  <outline>
    <contour>
      <point x="878" y="1139"/>
      <point x="701" y="1326"/>
      <point x="483" y="1326" type="curve" smooth="yes"/>
      <point x="300" y="1326"/>
      <point x="160" y="1195"/>
      <point x="160" y="1027" type="curve" smooth="yes"/>
      <point x="160" y="832"/>
      <point x="349" y="646"/>
      <point x="565" y="646" type="curve" smooth="yes"/>
      <point x="738" y="646"/>
      <point x="878" y="765"/>
      <point x="878" y="941" type="curve" smooth="yes"/>
    </contour>
    <contour>
      <point x="657" y="1184"/>
      <point x="747" y="1112"/>
      <point x="747" y="996" type="curve" smooth="yes"/>
      <point x="747" y="868"/>
      <point x="637" y="783"/>
      <point x="509" y="783" type="curve" smooth="yes"/>
      <point x="384" y="783"/>
      <point x="292" y="865"/>
      <point x="292" y="974" type="curve" smooth="yes"/>
      <point x="292" y="1089"/>
      <point x="394" y="1184"/>
      <point x="535" y="1184" type="curve" smooth="yes"/>
    </contour>
  </outline>
</glyph>
<glyph name="highspacingdotdeva" format="1">
  <advance width="431"/>
  <unicode hex="0971"/>
  <outline>
    <contour>
      <point x="163" y="1358"/>
      <point x="120" y="1315"/>
      <point x="120" y="1263" type="curve" smooth="yes"/>
      <point x="120" y="1210"/>
      <point x="163" y="1167"/>
      <point x="216" y="1167" type="curve" smooth="yes"/>
      <point x="268" y="1167"/>
      <point x="311" y="1210"/>
      <point x="311" y="1263" type="curve" smooth="yes"/>
      <point x="311" y="1315"/>
      <point x="268" y="1358"/>
      <point x="216" y="1358" type="curve" smooth="yes"/>
    </contour>
  </outline>
</glyph>
<glyph name="ooedeva" format="1">
  <advance width="2033"/>
  <unicode hex="0974"/>
  <outline>
    <contour>
      <point x="2033" y="1330" type="line"/>
      <point x="1817" y="1330" type="line"/>
      <point x="1817" y="1587" type="line"/>
      <point x="1683" y="1615" type="line"/>
      <point x="1674" y="1608" type="line"/>
      <point x="1674" y="1330" type="line"/>
      <point x="969" y="1330" type="line"/>
      <point x="963" y="1321" type="line"/>
      <point x="1019" y="1197" type="line"/>
      <point x="1182" y="1197" type="line"/>
      <point x="1182" y="907" type="line" smooth="yes"/>
      <point x="1182" y="770"/>
      <point x="1084" y="696"/>
      <point x="958" y="696" type="curve" smooth="yes"/>
      <point x="905" y="696"/>
      <point x="847" y="709"/>
      <point x="790" y="735" type="curve"/>
      <point x="788" y="747" type="line"/>
      <point x="858" y="803"/>
      <point x="892" y="879"/>
      <point x="892" y="973" type="curve" smooth="yes"/>
      <point x="892" y="1181"/>
      <point x="724" y="1335"/>
      <point x="481" y="1335" type="curve" smooth="yes"/>
      <point x="284" y="1335"/>
      <point x="177" y="1234"/>
      <point x="177" y="1136" type="curve" smooth="yes"/>
      <point x="177" y="1065"/>
      <point x="234" y="1017"/>
      <point x="323" y="1017" type="curve"/>
      <point x="323" y="1135"/>
      <point x="407" y="1224"/>
      <point x="547" y="1224" type="curve" smooth="yes"/>
      <point x="665" y="1224"/>
      <point x="746" y="1161"/>
      <point x="746" y="1039" type="curve" smooth="yes"/>
      <point x="746" y="898"/>
      <point x="638" y="812"/>
      <point x="388" y="799" type="curve"/>
      <point x="382" y="789" type="line"/>
      <point x="463" y="632" type="line"/>
      <point x="548" y="642"/>
      <point x="620" y="659"/>
      <point x="679" y="683" type="curve"/>
      <point x="768" y="644"/>
      <point x="827" y="550"/>
      <point x="827" y="448" type="curve" smooth="yes"/>
      <point x="827" y="317"/>
      <point x="730" y="224"/>
      <point x="578" y="224" type="curve" smooth="yes"/>
      <point x="379" y="224"/>
      <point x="207" y="385"/>
      <point x="154" y="756" type="curve"/>
      <point x="107" y="752"/>
      <point x="80" y="735"/>
      <point x="80" y="664" type="curve" smooth="yes"/>
      <point x="80" y="489"/>
      <point x="245" y="62"/>
      <point x="621" y="62" type="curve" smooth="yes"/>
      <point x="833" y="62"/>
      <point x="962" y="198"/>
      <point x="962" y="383" type="curve" smooth="yes"/>
      <point x="962" y="460"/>
      <point x="940" y="531"/>
      <point x="903" y="593" type="curve"/>
      <point x="909" y="600" type="line"/>
      <point x="955" y="582"/>
      <point x="1002" y="573"/>
      <point x="1046" y="573" type="curve" smooth="yes"/>
      <point x="1090" y="573"/>
      <point x="1133" y="582"/>
      <point x="1173" y="601" type="curve"/>
      <point x="1182" y="595" type="line"/>
      <point x="1182" y="19" type="line"/>
      <point x="1333" y="-19" type="line"/>
      <point x="1342" y="-12" type="line"/>
      <point x="1342" y="1197" type="line"/>
      <point x="1665" y="1197" type="line"/>
      <point x="1665" y="19" type="line"/>
      <point x="1816" y="-19" type="line"/>
      <point x="1825" y="-12" type="line"/>
      <point x="1825" y="1197" type="line"/>
      <point x="2083" y="1197" type="line"/>
      <point x="2089" y="1206" type="line"/>
    </contour>
  </outline>
</glyph>
<glyph name="uuedeva" format="1">
  <advance width="2033"/>
  <unicode hex="0977"/>
  <outline>
    <contour>
      <point x="2083" y="1197" type="line"/>
      <point x="2089" y="1206" type="line"/>
      <point x="2033" y="1330" type="line"/>
      <point x="969" y="1330" type="line"/>
      <point x="963" y="1321" type="line"/>
      <point x="1019" y="1197" type="line"/>
      <point x="1182" y="1197" type="line"/>
      <point x="1182" y="907" type="line" smooth="yes"/>
      <point x="1182" y="770"/>
      <point x="1084" y="696"/>
      <point x="957" y="696" type="curve" smooth="yes"/>
      <point x="905" y="696"/>
      <point x="847" y="709"/>
      <point x="790" y="735" type="curve"/>
      <point x="788" y="747" type="line"/>
      <point x="858" y="803"/>
      <point x="892" y="879"/>
      <point x="892" y="973" type="curve" smooth="yes"/>
      <point x="892" y="1181"/>
      <point x="724" y="1335"/>
      <point x="481" y="1335" type="curve" smooth="yes"/>
      <point x="285" y="1335"/>
      <point x="177" y="1234"/>
      <point x="177" y="1137" type="curve" smooth="yes"/>
      <point x="177" y="1065"/>
      <point x="233" y="1017"/>
      <point x="323" y="1017" type="curve"/>
      <point x="323" y="1135"/>
      <point x="407" y="1224"/>
      <point x="547" y="1224" type="curve" smooth="yes"/>
      <point x="665" y="1224"/>
      <point x="746" y="1161"/>
      <point x="746" y="1039" type="curve" smooth="yes"/>
      <point x="746" y="898"/>
      <point x="638" y="812"/>
      <point x="388" y="799" type="curve"/>
      <point x="382" y="789" type="line"/>
      <point x="463" y="632" type="line"/>
      <point x="548" y="642"/>
      <point x="620" y="659"/>
      <point x="679" y="683" type="curve"/>
      <point x="768" y="643"/>
      <point x="827" y="554"/>
      <point x="827" y="443" type="curve" smooth="yes"/>
      <point x="827" y="319"/>
      <point x="730" y="224"/>
      <point x="578" y="224" type="curve" smooth="yes"/>
      <point x="379" y="224"/>
      <point x="217" y="385"/>
      <point x="154" y="756" type="curve"/>
      <point x="113" y="752"/>
      <point x="90" y="734"/>
      <point x="90" y="666" type="curve" smooth="yes"/>
      <point x="90" y="489"/>
      <point x="248" y="62"/>
      <point x="627" y="62" type="curve" smooth="yes"/>
      <point x="830" y="62"/>
      <point x="962" y="198"/>
      <point x="962" y="383" type="curve" smooth="yes"/>
      <point x="962" y="460"/>
      <point x="940" y="531"/>
      <point x="903" y="593" type="curve"/>
      <point x="909" y="600" type="line"/>
      <point x="955" y="582"/>
      <point x="1002" y="573"/>
      <point x="1047" y="573" type="curve" smooth="yes"/>
      <point x="1090" y="573"/>
      <point x="1133" y="582"/>
      <point x="1173" y="601" type="curve"/>
      <point x="1182" y="595" type="line"/>
      <point x="1182" y="19" type="line"/>
      <point x="1333" y="-19" type="line"/>
      <point x="1342" y="-12" type="line"/>
      <point x="1342" y="1197" type="line"/>
      <point x="1665" y="1197" type="line"/>
      <point x="1665" y="19" type="line"/>
      <point x="1816" y="-19" type="line"/>
      <point x="1825" y="-12" type="line"/>
      <point x="1825" y="1197" type="line"/>
    </contour>
    <contour>
      <point x="379" y="-115"/>
      <point x="372" y="-128"/>
      <point x="372" y="-152" type="curve" smooth="yes"/>
      <point x="372" y="-275"/>
      <point x="565" y="-441"/>
      <point x="824" y="-441" type="curve" smooth="yes"/>
      <point x="1043" y="-441"/>
      <point x="1200" y="-323"/>
      <point x="1200" y="-214" type="curve" smooth="yes"/>
      <point x="1200" y="-167"/>
      <point x="1170" y="-129"/>
      <point x="1117" y="-110" type="curve"/>
      <point x="1050" y="-238"/>
      <point x="921" y="-311"/>
      <point x="774" y="-311" type="curve" smooth="yes"/>
      <point x="630" y="-311"/>
      <point x="489" y="-241"/>
      <point x="388" y="-104" type="curve"/>
    </contour>
    <contour>
      <point x="1070" y="-704"/>
      <point x="1200" y="-618"/>
      <point x="1200" y="-529" type="curve" smooth="yes"/>
      <point x="1200" y="-492"/>
      <point x="1182" y="-460"/>
      <point x="1145" y="-439" type="curve"/>
      <point x="1085" y="-520"/>
      <point x="978" y="-573"/>
      <point x="839" y="-573" type="curve" smooth="yes"/>
      <point x="648" y="-573"/>
      <point x="491" y="-490"/>
      <point x="388" y="-354" type="curve"/>
      <point x="379" y="-365"/>
      <point x="372" y="-378"/>
      <point x="372" y="-402" type="curve" smooth="yes"/>
      <point x="372" y="-515"/>
      <point x="574" y="-704"/>
      <point x="887" y="-704" type="curve" smooth="yes"/>
    </contour>
  </outline>
</glyph>
<glyph name="zhadeva" format="1">
  <advance width="1421"/>
  <unicode hex="0979"/>
  <outline>
    <contour>
      <point x="1471" y="1197" type="line"/>
      <point x="1477" y="1206" type="line"/>
      <point x="1421" y="1330" type="line"/>
      <point x="-50" y="1330" type="line"/>
      <point x="-56" y="1321" type="line"/>
      <point x="0" y="1197" type="line"/>
      <point x="1054" y="1197" type="line"/>
      <point x="1054" y="923" type="line"/>
      <point x="444" y="923" type="line"/>
      <point x="438" y="914" type="line"/>
      <point x="494" y="790" type="line"/>
      <point x="631" y="790"/>
      <point x="704" y="688"/>
      <point x="704" y="578" type="curve" smooth="yes"/>
      <point x="704" y="456"/>
      <point x="615" y="389"/>
      <point x="511" y="389" type="curve" smooth="yes"/>
      <point x="350" y="389"/>
      <point x="221" y="551"/>
      <point x="171" y="923" type="curve"/>
      <point x="110" y="917"/>
      <point x="89" y="891"/>
      <point x="90" y="826" type="curve" smooth="yes"/>
      <point x="92" y="656"/>
      <point x="227" y="227"/>
      <point x="554" y="227" type="curve" smooth="yes"/>
      <point x="720" y="227"/>
      <point x="842" y="337"/>
      <point x="842" y="505" type="curve" smooth="yes"/>
      <point x="842" y="600"/>
      <point x="803" y="700"/>
      <point x="726" y="780" type="curve"/>
      <point x="731" y="790" type="line"/>
      <point x="1054" y="790" type="line"/>
      <point x="1054" y="19" type="line"/>
      <point x="1205" y="-19" type="line"/>
      <point x="1214" y="-12" type="line"/>
      <point x="1214" y="1197" type="line"/>
    </contour>
    <contour>
      <point x="275" y="120"/>
      <point x="238" y="82"/>
      <point x="238" y="37" type="curve" smooth="yes"/>
      <point x="238" y="-9"/>
      <point x="275" y="-46"/>
      <point x="321" y="-46" type="curve" smooth="yes"/>
      <point x="366" y="-46"/>
      <point x="403" y="-9"/>
      <point x="403" y="37" type="curve" smooth="yes"/>
      <point x="403" y="82"/>
      <point x="366" y="120"/>
      <point x="321" y="120" type="curve" smooth="yes"/>
    </contour>
    <contour>
      <point x="735" y="120"/>
      <point x="698" y="82"/>
      <point x="698" y="37" type="curve" smooth="yes"/>
      <point x="698" y="-9"/>
      <point x="735" y="-46"/>
      <point x="781" y="-46" type="curve" smooth="yes"/>
      <point x="826" y="-46"/>
      <point x="863" y="-9"/>
      <point x="863" y="37" type="curve" smooth="yes"/>
      <point x="863" y="82"/>
      <point x="826" y="120"/>
      <point x="781" y="120" type="curve" smooth="yes"/>
    </contour>
    <contour>
      <point x="512" y="-60"/>
      <point x="475" y="-98"/>
      <point x="475" y="-143" type="curve" smooth="yes"/>
      <point x="475" y="-189"/>
      <point x="512" y="-226"/>
      <point x="558" y="-226" type="curve" smooth="yes"/>
      <point x="603" y="-226"/>
      <point x="640" y="-189"/>
      <point x="640" y="-143" type="curve" smooth="yes"/>
      <point x="640" y="-98"/>
      <point x="603" y="-60"/>
      <point x="558" y="-60" type="curve" smooth="yes"/>
    </contour>
  </outline>
</glyph>
<glyph name="yaheavydeva" format="1">
  <advance width="1248"/>
  <unicode hex="097A"/>
  <outline>
    <contour>
      <point x="1041" y="1197" type="line"/>
      <point x="1298" y="1197" type="line"/>
      <point x="1304" y="1206" type="line"/>
      <point x="1248" y="1330" type="line"/>
      <point x="-50" y="1330" type="line"/>
      <point x="-56" y="1321" type="line"/>
      <point x="0" y="1197" type="line"/>
      <point x="339" y="1197" type="line"/>
      <point x="363" y="1149"/>
      <point x="382" y="1082"/>
      <point x="382" y="1017" type="curve" smooth="yes"/>
      <point x="382" y="891"/>
      <point x="311" y="813"/>
      <point x="87" y="750" type="curve"/>
      <point x="82" y="740" type="line"/>
      <point x="255" y="403"/>
      <point x="456" y="261"/>
      <point x="657" y="261" type="curve" smooth="yes"/>
      <point x="741" y="261"/>
      <point x="814" y="286"/>
      <point x="871" y="329" type="curve"/>
      <point x="881" y="324" type="line"/>
      <point x="881" y="19" type="line"/>
      <point x="1032" y="-19" type="line"/>
      <point x="1041" y="-12" type="line"/>
    </contour>
    <contour>
      <point x="862" y="613" type="line"/>
      <point x="445" y="1187" type="line"/>
      <point x="450" y="1197" type="line"/>
      <point x="881" y="1197" type="line"/>
      <point x="881" y="690" type="line" smooth="yes"/>
      <point x="881" y="663"/>
      <point x="877" y="637"/>
      <point x="870" y="614" type="curve"/>
    </contour>
    <contour>
      <point x="482" y="421"/>
      <point x="357" y="477"/>
      <point x="270" y="622" type="curve"/>
      <point x="273" y="630" type="line"/>
      <point x="423" y="686"/>
      <point x="510" y="771"/>
      <point x="521" y="899" type="curve"/>
      <point x="528" y="901" type="line"/>
      <point x="812" y="514" type="line"/>
      <point x="756" y="455"/>
      <point x="675" y="421"/>
      <point x="590" y="421" type="curve" smooth="yes"/>
    </contour>
  </outline>
</glyph>
<glyph name="ggadeva" format="1">
  <advance width="1241"/>
  <unicode hex="097B"/>
  <outline>
    <contour>
      <point x="1241" y="1330" type="line"/>
      <point x="-50" y="1330" type="line"/>
      <point x="-56" y="1321" type="line"/>
      <point x="0" y="1197" type="line"/>
      <point x="284" y="1197" type="line"/>
      <point x="284" y="666" type="line"/>
      <point x="169" y="666" type="line" smooth="yes"/>
      <point x="113" y="666"/>
      <point x="90" y="639"/>
      <point x="90" y="610" type="curve" smooth="yes"/>
      <point x="90" y="535"/>
      <point x="245" y="363"/>
      <point x="350" y="363" type="curve" smooth="yes"/>
      <point x="409" y="363"/>
      <point x="439" y="416"/>
      <point x="439" y="524" type="curve" smooth="yes"/>
      <point x="439" y="1197" type="line"/>
      <point x="874" y="1197" type="line"/>
      <point x="874" y="60" type="line"/>
      <point x="98" y="60" type="line"/>
      <point x="92" y="51" type="line"/>
      <point x="138" y="-53" type="line"/>
      <point x="1034" y="-53" type="line"/>
      <point x="1034" y="1197" type="line"/>
      <point x="1291" y="1197" type="line"/>
      <point x="1297" y="1206" type="line"/>
    </contour>
  </outline>
</glyph>
<glyph name="glottalstopdeva" format="1">
  <advance width="895"/>
  <unicode hex="097D"/>
  <outline>
    <contour>
      <point x="825" y="1156"/>
      <point x="629" y="1335"/>
      <point x="365" y="1335" type="curve" smooth="yes"/>
      <point x="167" y="1335"/>
      <point x="60" y="1234"/>
      <point x="60" y="1136" type="curve" smooth="yes"/>
      <point x="60" y="1065"/>
      <point x="116" y="1017"/>
      <point x="206" y="1017" type="curve"/>
      <point x="206" y="1135"/>
      <point x="289" y="1224"/>
      <point x="432" y="1224" type="curve" smooth="yes"/>
      <point x="571" y="1224"/>
      <point x="679" y="1139"/>
      <point x="679" y="976" type="curve" smooth="yes"/>
      <point x="679" y="808"/>
      <point x="563" y="699"/>
      <point x="315" y="679" type="curve"/>
      <point x="315" y="39" type="line"/>
      <point x="466" y="1" type="line"/>
      <point x="475" y="8" type="line"/>
      <point x="475" y="528" type="line"/>
      <point x="681" y="579"/>
      <point x="825" y="700"/>
      <point x="825" y="911" type="curve" smooth="yes"/>
    </contour>
  </outline>
</glyph>
<glyph name="bbadeva" format="1">
  <advance width="1160"/>
  <unicode hex="097F"/>
  <outline>
    <contour>
      <point x="1210" y="1197" type="line"/>
      <point x="1216" y="1206" type="line"/>
      <point x="1160" y="1330" type="line"/>
      <point x="-50" y="1330" type="line"/>
      <point x="-56" y="1321" type="line"/>
      <point x="0" y="1197" type="line"/>
      <point x="793" y="1197" type="line"/>
      <point x="793" y="875" type="line"/>
      <point x="783" y="871" type="line"/>
      <point x="689" y="967"/>
      <point x="559" y="1007"/>
      <point x="448" y="1007" type="curve" smooth="yes"/>
      <point x="236" y="1007"/>
      <point x="79" y="860"/>
      <point x="79" y="666" type="curve" smooth="yes"/>
      <point x="79" y="421"/>
      <point x="330" y="219"/>
      <point x="550" y="219" type="curve" smooth="yes"/>
      <point x="621" y="219"/>
      <point x="711" y="240"/>
      <point x="783" y="291" type="curve"/>
      <point x="793" y="287" type="line"/>
      <point x="793" y="60" type="line"/>
      <point x="99" y="60" type="line"/>
      <point x="93" y="51" type="line"/>
      <point x="139" y="-53" type="line"/>
      <point x="953" y="-53" type="line"/>
      <point x="953" y="1197" type="line"/>
    </contour>
    <contour>
      <point x="389" y="838" type="line"/>
      <point x="427" y="854"/>
      <point x="471" y="863"/>
      <point x="519" y="863" type="curve" smooth="yes"/>
      <point x="674" y="863"/>
      <point x="793" y="769"/>
      <point x="793" y="642" type="curve" smooth="yes"/>
      <point x="793" y="618" type="line" smooth="yes"/>
      <point x="793" y="548"/>
      <point x="761" y="488"/>
      <point x="712" y="444" type="curve"/>
    </contour>
    <contour>
      <point x="330" y="358"/>
      <point x="228" y="457"/>
      <point x="228" y="597" type="curve" smooth="yes"/>
      <point x="228" y="666"/>
      <point x="253" y="728"/>
      <point x="296" y="774" type="curve"/>
      <point x="620" y="386" type="line"/>
      <point x="577" y="368"/>
      <point x="529" y="358"/>
      <point x="481" y="358" type="curve" smooth="yes"/>
    </contour>
  </outline>
</glyph>
<glyph name="zerowidthnonjoiner" format="1">
  <advance width="0"/>
  <unicode hex="200C"/>
  <outline>
    <contour>
      <point x="0" y="-492" type="line"/>
      <point x="0" y="2056" type="line"/>
      <point x="103" y="2056" type="line"/>
      <point x="103" y="-492" type="line"/>
    </contour>
  </outline>
</glyph>
<glyph name="zerowidthjoiner" format="1">
  <advance width="0"/>
  <unicode hex="200D"/>
  <outline>
    <contour>
      <point x="103" y="1971" type="line"/>
      <point x="394" y="1971" type="line"/>
      <point x="394" y="2056" type="line"/>
      <point x="0" y="2056" type="line"/>
      <point x="0" y="-492" type="line"/>
      <point x="103" y="-492" type="line"/>
    </contour>
  </outline>
</glyph>
<glyph name="ellipsis" format="1">
  <advance width="1586"/>
  <unicode hex="2026"/>
  <outline>
    <contour>
      <point x="164" y="219"/>
      <point x="210" y="264"/>
      <point x="293" y="264" type="curve" smooth="yes"/>
      <point x="376" y="264"/>
      <point x="422" y="219"/>
      <point x="422" y="125" type="curve" smooth="yes"/>
      <point x="422" y="31"/>
      <point x="376" y="-14"/>
      <point x="293" y="-14" type="curve" smooth="yes"/>
      <point x="214" y="-14"/>
      <point x="164" y="29"/>
      <point x="164" y="125" type="curve" smooth="yes"/>
    </contour>
    <contour>
      <point x="664" y="219"/>
      <point x="710" y="264"/>
      <point x="793" y="264" type="curve" smooth="yes"/>
      <point x="876" y="264"/>
      <point x="922" y="219"/>
      <point x="922" y="125" type="curve" smooth="yes"/>
      <point x="922" y="31"/>
      <point x="876" y="-14"/>
      <point x="793" y="-14" type="curve" smooth="yes"/>
      <point x="714" y="-14"/>
      <point x="664" y="29"/>
      <point x="664" y="125" type="curve" smooth="yes"/>
    </contour>
    <contour>
      <point x="1164" y="219"/>
      <point x="1210" y="264"/>
      <point x="1293" y="264" type="curve" smooth="yes"/>
      <point x="1376" y="264"/>
      <point x="1422" y="219"/>
      <point x="1422" y="125" type="curve" smooth="yes"/>
      <point x="1422" y="31"/>
      <point x="1376" y="-14"/>
      <point x="1293" y="-14" type="curve" smooth="yes"/>
      <point x="1214" y="-14"/>
      <point x="1164" y="29"/>
      <point x="1164" y="125" type="curve" smooth="yes"/>
    </contour>
  </outline>
</glyph>
<glyph name="inr_currency" format="1">
  <advance width="1138"/>
  <unicode hex="20B9"/>
  <outline>
    <contour>
      <point x="1038" y="0" type="line"/>
      <point x="1038" y="86" type="line"/>
      <point x="1032" y="86" type="line" smooth="yes"/>
      <point x="945" y="86"/>
      <point x="886" y="141"/>
      <point x="817" y="250" type="curve" smooth="yes"/>
      <point x="536" y="694" type="line"/>
      <point x="690" y="746"/>
      <point x="812" y="847"/>
      <point x="834" y="1014" type="curve"/>
      <point x="1047" y="1014" type="line"/>
      <point x="1047" y="1112" type="line"/>
      <point x="835" y="1112" type="line"/>
      <point x="826" y="1222"/>
      <point x="784" y="1306"/>
      <point x="706" y="1364" type="curve"/>
      <point x="1047" y="1364" type="line"/>
      <point x="1047" y="1462" type="line"/>
      <point x="100" y="1462" type="line"/>
      <point x="100" y="1364" type="line"/>
      <point x="300" y="1364" type="line" smooth="yes"/>
      <point x="512" y="1364"/>
      <point x="603" y="1299"/>
      <point x="616" y="1112" type="curve"/>
      <point x="101" y="1112" type="line"/>
      <point x="101" y="1014" type="line"/>
      <point x="617" y="1014" type="line"/>
      <point x="605" y="824"/>
      <point x="515" y="741"/>
      <point x="305" y="741" type="curve" smooth="yes"/>
      <point x="101" y="741" type="line"/>
      <point x="101" y="645" type="line"/>
      <point x="331" y="645" type="line"/>
      <point x="608" y="184" type="line" smooth="yes"/>
      <point x="655" y="107"/>
      <point x="690" y="61"/>
      <point x="747" y="34" type="curve" smooth="yes"/>
      <point x="804" y="7"/>
      <point x="881" y="0"/>
      <point x="1009" y="0" type="curve" smooth="yes"/>
    </contour>
  </outline>
</glyph>
<glyph name="onecombiningdigitdeva" format="1">
  <advance width="0"/>
  <unicode hex="A8E1"/>
  <outline>
    <contour>
      <point x="-159" y="1509"/>
      <point x="-274" y="1579"/>
      <point x="-342" y="1625" type="curve"/>
      <point x="-229" y="1718"/>
      <point x="-175" y="1799"/>
      <point x="-175" y="1870" type="curve" smooth="yes"/>
      <point x="-175" y="1957"/>
      <point x="-258" y="2041"/>
      <point x="-357" y="2041" type="curve" smooth="yes"/>
      <point x="-424" y="2041"/>
      <point x="-482" y="1993"/>
      <point x="-482" y="1928" type="curve" smooth="yes"/>
      <point x="-482" y="1852"/>
      <point x="-423" y="1796"/>
      <point x="-353" y="1754" type="curve"/>
      <point x="-389" y="1721"/>
      <point x="-423" y="1690"/>
      <point x="-480" y="1642" type="curve"/>
      <point x="-402" y="1585"/>
      <point x="-270" y="1502"/>
      <point x="-270" y="1471" type="curve" smooth="yes"/>
      <point x="-270" y="1459"/>
      <point x="-279" y="1439"/>
      <point x="-308" y="1429" type="curve"/>
      <point x="-299" y="1399"/>
      <point x="-268" y="1370"/>
      <point x="-225" y="1370" type="curve" smooth="yes"/>
      <point x="-187" y="1370"/>
      <point x="-159" y="1399"/>
      <point x="-159" y="1435" type="curve" smooth="yes"/>
    </contour>
    <contour>
      <point x="-370" y="1940"/>
      <point x="-346" y="1965"/>
      <point x="-320" y="1965" type="curve" smooth="yes"/>
      <point x="-297" y="1965"/>
      <point x="-276" y="1945"/>
      <point x="-276" y="1899" type="curve" smooth="yes"/>
      <point x="-276" y="1868"/>
      <point x="-287" y="1839"/>
      <point x="-311" y="1805" type="curve"/>
      <point x="-355" y="1834"/>
      <point x="-370" y="1866"/>
      <point x="-370" y="1899" type="curve" smooth="yes"/>
    </contour>
    <contour>
      <point x="-638" y="1763" type="move" name="_class0"/>
    </contour>
  </outline>
</glyph>
